<ttFont>
    <TTGlyph name="A" xMin="10" yMin="0" xMax="618" yMax="621">
      <contour>
        <pt x="77" y="58" on="1"/>
        <pt x="265" y="598" on="1"/>
        <pt x="393" y="621" on="1"/>
        <pt x="618" y="21" on="1"/>
        <pt x="618" y="0" on="1"/>
        <pt x="436" y="0" on="1"/>
        <pt x="365" y="197" on="1"/>
        <pt x="187" y="197" on="1"/>
        <pt x="139" y="58" on="1"/>
        <pt x="247" y="58" on="1"/>
        <pt x="247" y="0" on="1"/>
        <pt x="10" y="0" on="1"/>
        <pt x="10" y="58" on="1"/>
      </contour>
      <contour>
        <pt x="207" y="255" on="1"/>
        <pt x="344" y="255" on="1"/>
        <pt x="275" y="448" on="1"/>
      </contour>
    </TTGlyph>
    <TTGlyph name="AE" xMin="0" yMin="0" xMax="855" yMax="615">
      <contour>
        <pt x="402" y="58" on="1"/>
        <pt x="402" y="227" on="1"/>
        <pt x="230" y="227" on="1"/>
        <pt x="142" y="58" on="1"/>
        <pt x="237" y="58" on="1"/>
        <pt x="237" y="0" on="1"/>
        <pt x="0" y="0" on="1"/>
        <pt x="0" y="58" on="1"/>
        <pt x="72" y="58" on="1"/>
        <pt x="334" y="557" on="1"/>
        <pt x="244" y="557" on="1"/>
        <pt x="244" y="615" on="1"/>
        <pt x="840" y="615" on="1"/>
        <pt x="840" y="411" on="1"/>
        <pt x="790" y="411" on="0"/>
        <pt x="725" y="443" on="0"/>
        <pt x="684" y="489" on="0"/>
        <pt x="664" y="539" on="0"/>
        <pt x="660" y="557" on="1"/>
        <pt x="570" y="557" on="1"/>
        <pt x="570" y="335" on="1"/>
        <pt x="745" y="335" on="1"/>
        <pt x="745" y="277" on="1"/>
        <pt x="570" y="277" on="1"/>
        <pt x="570" y="58" on="1"/>
        <pt x="675" y="58" on="1"/>
        <pt x="679" y="76" on="0"/>
        <pt x="699" y="126" on="0"/>
        <pt x="739" y="172" on="0"/>
        <pt x="805" y="205" on="0"/>
        <pt x="855" y="205" on="1"/>
        <pt x="855" y="0" on="1"/>
        <pt x="313" y="0" on="1"/>
        <pt x="313" y="58" on="1"/>
      </contour>
      <contour>
        <pt x="402" y="285" on="1"/>
        <pt x="402" y="555" on="1"/>
        <pt x="261" y="285" on="1"/>
      </contour>
    </TTGlyph>
    <TTGlyph name="Aacute" xMin="10" yMin="0" xMax="618" yMax="853">
      <contour>
        <pt x="77" y="58" on="1"/>
        <pt x="265" y="598" on="1"/>
        <pt x="393" y="621" on="1"/>
        <pt x="618" y="21" on="1"/>
        <pt x="618" y="0" on="1"/>
        <pt x="436" y="0" on="1"/>
        <pt x="365" y="197" on="1"/>
        <pt x="187" y="197" on="1"/>
        <pt x="139" y="58" on="1"/>
        <pt x="247" y="58" on="1"/>
        <pt x="247" y="0" on="1"/>
        <pt x="10" y="0" on="1"/>
        <pt x="10" y="58" on="1"/>
      </contour>
      <contour>
        <pt x="207" y="255" on="1"/>
        <pt x="344" y="255" on="1"/>
        <pt x="275" y="448" on="1"/>
      </contour>
      <contour>
        <pt x="472" y="842" on="1"/>
        <pt x="492" y="853" on="0"/>
        <pt x="506" y="853" on="1"/>
        <pt x="514" y="853" on="0"/>
        <pt x="534" y="844" on="0"/>
        <pt x="552" y="828" on="0"/>
        <pt x="565" y="804" on="0"/>
        <pt x="565" y="789" on="1"/>
        <pt x="565" y="759" on="0"/>
        <pt x="540" y="739" on="1"/>
        <pt x="331" y="653" on="1"/>
        <pt x="309" y="682" on="1"/>
      </contour>
    </TTGlyph>
    <TTGlyph name="Acircumflex" xMin="10" yMin="0" xMax="618" yMax="853">
      <contour>
        <pt x="77" y="58" on="1"/>
        <pt x="265" y="598" on="1"/>
        <pt x="393" y="621" on="1"/>
        <pt x="618" y="21" on="1"/>
        <pt x="618" y="0" on="1"/>
        <pt x="436" y="0" on="1"/>
        <pt x="365" y="197" on="1"/>
        <pt x="187" y="197" on="1"/>
        <pt x="139" y="58" on="1"/>
        <pt x="247" y="58" on="1"/>
        <pt x="247" y="0" on="1"/>
        <pt x="10" y="0" on="1"/>
        <pt x="10" y="58" on="1"/>
      </contour>
      <contour>
        <pt x="297" y="842" on="1"/>
        <pt x="312" y="850" on="0"/>
        <pt x="324" y="852" on="1"/>
        <pt x="327" y="853" on="0"/>
        <pt x="330" y="853" on="1"/>
        <pt x="333" y="853" on="1"/>
        <pt x="335" y="852" on="0"/>
        <pt x="336" y="852" on="1"/>
        <pt x="341" y="851" on="1"/>
        <pt x="342" y="851" on="0"/>
        <pt x="343" y="851" on="1"/>
        <pt x="352" y="848" on="0"/>
        <pt x="364" y="842" on="1"/>
        <pt x="527" y="682" on="1"/>
        <pt x="505" y="653" on="1"/>
        <pt x="330" y="725" on="1"/>
        <pt x="156" y="653" on="1"/>
        <pt x="134" y="682" on="1"/>
      </contour>
      <contour>
        <pt x="207" y="255" on="1"/>
        <pt x="344" y="255" on="1"/>
        <pt x="275" y="448" on="1"/>
      </contour>
    </TTGlyph>
    <TTGlyph name="Adieresis" xMin="10" yMin="0" xMax="618" yMax="838">
      <contour>
        <pt x="77" y="58" on="1"/>
        <pt x="265" y="598" on="1"/>
        <pt x="393" y="621" on="1"/>
        <pt x="618" y="21" on="1"/>
        <pt x="618" y="0" on="1"/>
        <pt x="436" y="0" on="1"/>
        <pt x="365" y="197" on="1"/>
        <pt x="187" y="197" on="1"/>
        <pt x="139" y="58" on="1"/>
        <pt x="247" y="58" on="1"/>
        <pt x="247" y="0" on="1"/>
        <pt x="10" y="0" on="1"/>
        <pt x="10" y="58" on="1"/>
      </contour>
      <contour>
        <pt x="207" y="255" on="1"/>
        <pt x="344" y="255" on="1"/>
        <pt x="275" y="448" on="1"/>
      </contour>
      <contour>
        <pt x="140" y="763" on="1"/>
        <pt x="140" y="801" on="0"/>
        <pt x="173" y="838" on="0"/>
        <pt x="211" y="838" on="1"/>
        <pt x="252" y="838" on="0"/>
        <pt x="282" y="801" on="0"/>
        <pt x="282" y="763" on="1"/>
        <pt x="282" y="725" on="0"/>
        <pt x="249" y="689" on="0"/>
        <pt x="211" y="689" on="1"/>
        <pt x="173" y="689" on="0"/>
        <pt x="140" y="725" on="0"/>
      </contour>
      <contour>
        <pt x="345" y="763" on="1"/>
        <pt x="345" y="801" on="0"/>
        <pt x="378" y="838" on="0"/>
        <pt x="416" y="838" on="1"/>
        <pt x="457" y="838" on="0"/>
        <pt x="487" y="801" on="0"/>
        <pt x="487" y="763" on="1"/>
        <pt x="487" y="725" on="0"/>
        <pt x="454" y="689" on="0"/>
        <pt x="416" y="689" on="1"/>
        <pt x="378" y="689" on="0"/>
        <pt x="345" y="725" on="0"/>
      </contour>
    </TTGlyph>
    <TTGlyph name="Agrave" xMin="10" yMin="0" xMax="618" yMax="853">
      <contour>
        <pt x="77" y="58" on="1"/>
        <pt x="265" y="598" on="1"/>
        <pt x="393" y="621" on="1"/>
        <pt x="618" y="21" on="1"/>
        <pt x="618" y="0" on="1"/>
        <pt x="436" y="0" on="1"/>
        <pt x="365" y="197" on="1"/>
        <pt x="187" y="197" on="1"/>
        <pt x="139" y="58" on="1"/>
        <pt x="247" y="58" on="1"/>
        <pt x="247" y="0" on="1"/>
        <pt x="10" y="0" on="1"/>
        <pt x="10" y="58" on="1"/>
      </contour>
      <contour>
        <pt x="207" y="255" on="1"/>
        <pt x="344" y="255" on="1"/>
        <pt x="275" y="448" on="1"/>
      </contour>
      <contour>
        <pt x="353" y="682" on="1"/>
        <pt x="331" y="653" on="1"/>
        <pt x="122" y="739" on="1"/>
        <pt x="97" y="759" on="0"/>
        <pt x="97" y="789" on="1"/>
        <pt x="97" y="804" on="0"/>
        <pt x="109" y="828" on="0"/>
        <pt x="127" y="844" on="0"/>
        <pt x="148" y="853" on="0"/>
        <pt x="156" y="853" on="1"/>
        <pt x="170" y="853" on="0"/>
        <pt x="190" y="842" on="1"/>
      </contour>
    </TTGlyph>
    <TTGlyph name="Aring" xMin="10" yMin="0" xMax="618" yMax="780">
      <contour>
        <pt x="77" y="58" on="1"/>
        <pt x="258" y="578" on="1"/>
        <pt x="250" y="583" on="0"/>
        <pt x="244" y="589" on="1"/>
        <pt x="215" y="619" on="0"/>
        <pt x="215" y="670" on="1"/>
        <pt x="215" y="719" on="0"/>
        <pt x="276" y="780" on="0"/>
        <pt x="326" y="780" on="1"/>
        <pt x="378" y="780" on="0"/>
        <pt x="437" y="722" on="0"/>
        <pt x="437" y="670" on="1"/>
        <pt x="437" y="621" on="0"/>
        <pt x="406" y="590" on="1"/>
        <pt x="405" y="589" on="1"/>
        <pt x="618" y="21" on="1"/>
        <pt x="618" y="0" on="1"/>
        <pt x="436" y="0" on="1"/>
        <pt x="365" y="197" on="1"/>
        <pt x="187" y="197" on="1"/>
        <pt x="139" y="58" on="1"/>
        <pt x="247" y="58" on="1"/>
        <pt x="247" y="0" on="1"/>
        <pt x="10" y="0" on="1"/>
        <pt x="10" y="58" on="1"/>
      </contour>
      <contour>
        <pt x="207" y="255" on="1"/>
        <pt x="344" y="255" on="1"/>
        <pt x="275" y="448" on="1"/>
      </contour>
      <contour>
        <pt x="275" y="671" on="1"/>
        <pt x="275" y="642" on="0"/>
        <pt x="302" y="612" on="0"/>
        <pt x="326" y="612" on="1"/>
        <pt x="349" y="612" on="0"/>
        <pt x="377" y="643" on="0"/>
        <pt x="377" y="671" on="1"/>
        <pt x="377" y="728" on="0"/>
        <pt x="326" y="728" on="1"/>
        <pt x="303" y="728" on="0"/>
        <pt x="275" y="698" on="0"/>
      </contour>
    </TTGlyph>
    <TTGlyph name="Atilde" xMin="10" yMin="0" xMax="618" yMax="797">
      <contour>
        <pt x="77" y="58" on="1"/>
        <pt x="265" y="598" on="1"/>
        <pt x="393" y="621" on="1"/>
        <pt x="618" y="21" on="1"/>
        <pt x="618" y="0" on="1"/>
        <pt x="436" y="0" on="1"/>
        <pt x="365" y="197" on="1"/>
        <pt x="187" y="197" on="1"/>
        <pt x="139" y="58" on="1"/>
        <pt x="247" y="58" on="1"/>
        <pt x="247" y="0" on="1"/>
        <pt x="10" y="0" on="1"/>
        <pt x="10" y="58" on="1"/>
      </contour>
      <contour>
        <pt x="207" y="255" on="1"/>
        <pt x="344" y="255" on="1"/>
        <pt x="275" y="448" on="1"/>
      </contour>
      <contour>
        <pt x="167" y="723" on="1"/>
        <pt x="177" y="764" on="0"/>
        <pt x="218" y="796" on="0"/>
        <pt x="249" y="796" on="1"/>
        <pt x="265" y="796" on="0"/>
        <pt x="297" y="785" on="0"/>
        <pt x="328" y="772" on="0"/>
        <pt x="358" y="761" on="0"/>
        <pt x="372" y="761" on="1"/>
        <pt x="389" y="761" on="0"/>
        <pt x="406" y="782" on="0"/>
        <pt x="411" y="797" on="1"/>
        <pt x="460" y="776" on="1"/>
        <pt x="450" y="735" on="0"/>
        <pt x="409" y="703" on="0"/>
        <pt x="379" y="703" on="1"/>
        <pt x="362" y="703" on="0"/>
        <pt x="330" y="714" on="0"/>
        <pt x="299" y="727" on="0"/>
        <pt x="269" y="738" on="0"/>
        <pt x="255" y="738" on="1"/>
        <pt x="238" y="738" on="0"/>
        <pt x="221" y="717" on="0"/>
        <pt x="216" y="702" on="1"/>
      </contour>
    </TTGlyph>
    <TTGlyph name="B" xMin="25" yMin="-2" xMax="594" yMax="617">
      <contour>
        <pt x="114" y="58" on="1"/>
        <pt x="114" y="557" on="1"/>
        <pt x="25" y="557" on="1"/>
        <pt x="25" y="615" on="1"/>
        <pt x="255" y="615" on="1"/>
        <pt x="273" y="615" on="0"/>
        <pt x="305" y="617" on="0"/>
        <pt x="321" y="617" on="1"/>
        <pt x="450" y="617" on="0"/>
        <pt x="573" y="548" on="0"/>
        <pt x="573" y="463" on="1"/>
        <pt x="573" y="404" on="0"/>
        <pt x="514" y="340" on="0"/>
        <pt x="470" y="327" on="1"/>
        <pt x="533" y="311" on="0"/>
        <pt x="594" y="236" on="0"/>
        <pt x="594" y="170" on="1"/>
        <pt x="594" y="123" on="0"/>
        <pt x="563" y="57" on="0"/>
        <pt x="501" y="16" on="0"/>
        <pt x="405" y="-2" on="0"/>
        <pt x="341" y="-2" on="1"/>
        <pt x="324" y="-2" on="0"/>
        <pt x="284" y="0" on="0"/>
        <pt x="261" y="0" on="1"/>
        <pt x="25" y="0" on="1"/>
        <pt x="25" y="58" on="1"/>
      </contour>
      <contour>
        <pt x="282" y="300" on="1"/>
        <pt x="282" y="51" on="1"/>
        <pt x="307" y="48" on="0"/>
        <pt x="341" y="48" on="1"/>
        <pt x="352" y="48" on="0"/>
        <pt x="371" y="49" on="0"/>
        <pt x="378" y="50" on="1"/>
        <pt x="386" y="51" on="0"/>
        <pt x="392" y="53" on="1"/>
        <pt x="396" y="68" on="0"/>
        <pt x="400" y="86" on="1"/>
        <pt x="403" y="102" on="0"/>
        <pt x="408" y="145" on="0"/>
        <pt x="408" y="173" on="1"/>
        <pt x="408" y="199" on="0"/>
        <pt x="401" y="246" on="0"/>
        <pt x="397" y="263" on="1"/>
        <pt x="393" y="283" on="0"/>
        <pt x="387" y="300" on="1"/>
      </contour>
      <contour>
        <pt x="321" y="566" on="1"/>
        <pt x="300" y="566" on="0"/>
        <pt x="282" y="563" on="1"/>
        <pt x="282" y="352" on="1"/>
        <pt x="385" y="352" on="1"/>
        <pt x="387" y="366" on="0"/>
        <pt x="389" y="384" on="1"/>
        <pt x="391" y="399" on="0"/>
        <pt x="394" y="438" on="0"/>
        <pt x="394" y="461" on="1"/>
        <pt x="394" y="484" on="0"/>
        <pt x="389" y="521" on="0"/>
        <pt x="386" y="535" on="1"/>
        <pt x="382" y="550" on="0"/>
        <pt x="379" y="562" on="1"/>
        <pt x="372" y="563" on="0"/>
        <pt x="362" y="564" on="1"/>
        <pt x="354" y="565" on="0"/>
        <pt x="332" y="566" on="0"/>
      </contour>
    </TTGlyph>
    <TTGlyph name="C" xMin="45" yMin="-15" xMax="537" yMax="630">
      <contour>
        <pt x="516" y="411" on="1"/>
        <pt x="454" y="411" on="0"/>
        <pt x="382" y="459" on="0"/>
        <pt x="345" y="519" on="0"/>
        <pt x="333" y="573" on="0"/>
        <pt x="333" y="580" on="1"/>
        <pt x="316" y="579" on="0"/>
        <pt x="289" y="577" on="0"/>
        <pt x="280" y="575" on="1"/>
        <pt x="269" y="573" on="0"/>
        <pt x="261" y="571" on="1"/>
        <pt x="252" y="536" on="0"/>
        <pt x="246" y="494" on="1"/>
        <pt x="241" y="458" on="0"/>
        <pt x="232" y="362" on="0"/>
        <pt x="232" y="308" on="1"/>
        <pt x="232" y="253" on="0"/>
        <pt x="241" y="158" on="0"/>
        <pt x="246" y="122" on="1"/>
        <pt x="252" y="80" on="0"/>
        <pt x="261" y="44" on="1"/>
        <pt x="267" y="42" on="0"/>
        <pt x="277" y="40" on="1"/>
        <pt x="293" y="37" on="0"/>
        <pt x="328" y="37" on="1"/>
        <pt x="361" y="37" on="0"/>
        <pt x="416" y="52" on="0"/>
        <pt x="456" y="85" on="0"/>
        <pt x="479" y="138" on="0"/>
        <pt x="479" y="175" on="1"/>
        <pt x="479" y="206" on="1"/>
        <pt x="537" y="206" on="1"/>
        <pt x="537" y="178" on="1"/>
        <pt x="537" y="127" on="0"/>
        <pt x="503" y="54" on="0"/>
        <pt x="445" y="7" on="0"/>
        <pt x="370" y="-15" on="0"/>
        <pt x="328" y="-15" on="1"/>
        <pt x="256" y="-15" on="0"/>
        <pt x="150" y="20" on="0"/>
        <pt x="79" y="98" on="0"/>
        <pt x="45" y="221" on="0"/>
        <pt x="45" y="308" on="1"/>
        <pt x="45" y="395" on="0"/>
        <pt x="80" y="517" on="0"/>
        <pt x="153" y="595" on="0"/>
        <pt x="266" y="630" on="0"/>
        <pt x="344" y="630" on="1"/>
        <pt x="378" y="630" on="0"/>
        <pt x="440" y="625" on="0"/>
        <pt x="464" y="622" on="1"/>
        <pt x="492" y="618" on="0"/>
        <pt x="516" y="615" on="1"/>
      </contour>
    </TTGlyph>
    <TTGlyph name="Ccedilla" xMin="45" yMin="-166" xMax="537" yMax="630">
      <contour>
        <pt x="516" y="411" on="1"/>
        <pt x="454" y="411" on="0"/>
        <pt x="382" y="459" on="0"/>
        <pt x="345" y="519" on="0"/>
        <pt x="333" y="573" on="0"/>
        <pt x="333" y="580" on="1"/>
        <pt x="316" y="579" on="0"/>
        <pt x="289" y="577" on="0"/>
        <pt x="280" y="575" on="1"/>
        <pt x="269" y="573" on="0"/>
        <pt x="261" y="571" on="1"/>
        <pt x="252" y="536" on="0"/>
        <pt x="246" y="494" on="1"/>
        <pt x="241" y="458" on="0"/>
        <pt x="232" y="362" on="0"/>
        <pt x="232" y="308" on="1"/>
        <pt x="232" y="253" on="0"/>
        <pt x="241" y="158" on="0"/>
        <pt x="246" y="122" on="1"/>
        <pt x="252" y="80" on="0"/>
        <pt x="261" y="44" on="1"/>
        <pt x="267" y="42" on="0"/>
        <pt x="277" y="40" on="1"/>
        <pt x="293" y="37" on="0"/>
        <pt x="328" y="37" on="1"/>
        <pt x="361" y="37" on="0"/>
        <pt x="416" y="52" on="0"/>
        <pt x="456" y="85" on="0"/>
        <pt x="479" y="138" on="0"/>
        <pt x="479" y="175" on="1"/>
        <pt x="479" y="206" on="1"/>
        <pt x="537" y="206" on="1"/>
        <pt x="537" y="178" on="1"/>
        <pt x="537" y="127" on="0"/>
        <pt x="503" y="54" on="0"/>
        <pt x="445" y="7" on="0"/>
        <pt x="407" y="-4" on="1"/>
        <pt x="384" y="-11" on="0"/>
        <pt x="359" y="-13" on="1"/>
        <pt x="359" y="-34" on="1"/>
        <pt x="366" y="-34" on="1"/>
        <pt x="395" y="-34" on="0"/>
        <pt x="431" y="-67" on="0"/>
        <pt x="431" y="-94" on="1"/>
        <pt x="431" y="-126" on="0"/>
        <pt x="389" y="-166" on="0"/>
        <pt x="349" y="-166" on="1"/>
        <pt x="290" y="-166" on="1"/>
        <pt x="290" y="-116" on="1"/>
        <pt x="349" y="-116" on="1"/>
        <pt x="360" y="-116" on="0"/>
        <pt x="375" y="-108" on="0"/>
        <pt x="375" y="-95" on="1"/>
        <pt x="375" y="-84" on="0"/>
        <pt x="359" y="-74" on="0"/>
        <pt x="347" y="-74" on="1"/>
        <pt x="297" y="-74" on="1"/>
        <pt x="297" y="-14" on="1"/>
        <pt x="244" y="-11" on="0"/>
        <pt x="203" y="2" on="1"/>
        <pt x="150" y="20" on="0"/>
        <pt x="79" y="98" on="0"/>
        <pt x="45" y="221" on="0"/>
        <pt x="45" y="308" on="1"/>
        <pt x="45" y="395" on="0"/>
        <pt x="80" y="517" on="0"/>
        <pt x="153" y="595" on="0"/>
        <pt x="266" y="630" on="0"/>
        <pt x="344" y="630" on="1"/>
        <pt x="378" y="630" on="0"/>
        <pt x="440" y="625" on="0"/>
        <pt x="464" y="622" on="1"/>
        <pt x="492" y="618" on="0"/>
        <pt x="516" y="615" on="1"/>
      </contour>
    </TTGlyph>
    <TTGlyph name="D" xMin="25" yMin="-4" xMax="665" yMax="620">
      <contour>
        <pt x="151" y="615" on="1"/>
        <pt x="168" y="615" on="0"/>
        <pt x="223" y="617" on="0"/>
        <pt x="283" y="618" on="0"/>
        <pt x="343" y="620" on="0"/>
        <pt x="365" y="620" on="1"/>
        <pt x="443" y="620" on="0"/>
        <pt x="557" y="588" on="0"/>
        <pt x="630" y="514" on="0"/>
        <pt x="665" y="395" on="0"/>
        <pt x="665" y="308" on="1"/>
        <pt x="665" y="221" on="0"/>
        <pt x="630" y="101" on="0"/>
        <pt x="557" y="28" on="0"/>
        <pt x="443" y="-4" on="0"/>
        <pt x="365" y="-4" on="1"/>
        <pt x="337" y="-4" on="0"/>
        <pt x="276" y="-3" on="0"/>
        <pt x="218" y="-1" on="0"/>
        <pt x="167" y="0" on="0"/>
        <pt x="151" y="0" on="1"/>
        <pt x="25" y="0" on="1"/>
        <pt x="25" y="58" on="1"/>
        <pt x="114" y="58" on="1"/>
        <pt x="114" y="557" on="1"/>
        <pt x="25" y="557" on="1"/>
        <pt x="25" y="615" on="1"/>
      </contour>
      <contour>
        <pt x="282" y="570" on="1"/>
        <pt x="282" y="48" on="1"/>
        <pt x="402" y="48" on="1"/>
        <pt x="418" y="48" on="0"/>
        <pt x="429" y="49" on="1"/>
        <pt x="441" y="50" on="0"/>
        <pt x="449" y="51" on="1"/>
        <pt x="457" y="85" on="0"/>
        <pt x="463" y="126" on="1"/>
        <pt x="468" y="161" on="0"/>
        <pt x="478" y="254" on="0"/>
        <pt x="478" y="308" on="1"/>
        <pt x="478" y="364" on="0"/>
        <pt x="468" y="457" on="0"/>
        <pt x="463" y="491" on="1"/>
        <pt x="457" y="531" on="0"/>
        <pt x="449" y="563" on="1"/>
        <pt x="441" y="564" on="0"/>
        <pt x="429" y="566" on="1"/>
        <pt x="418" y="568" on="0"/>
        <pt x="387" y="570" on="0"/>
        <pt x="365" y="570" on="1"/>
      </contour>
    </TTGlyph>
    <TTGlyph name="E" xMin="25" yMin="0" xMax="567" yMax="615">
      <contour>
        <pt x="552" y="615" on="1"/>
        <pt x="552" y="411" on="1"/>
        <pt x="502" y="411" on="0"/>
        <pt x="437" y="443" on="0"/>
        <pt x="396" y="489" on="0"/>
        <pt x="376" y="539" on="0"/>
        <pt x="372" y="557" on="1"/>
        <pt x="282" y="557" on="1"/>
        <pt x="282" y="335" on="1"/>
        <pt x="457" y="335" on="1"/>
        <pt x="457" y="277" on="1"/>
        <pt x="282" y="277" on="1"/>
        <pt x="282" y="58" on="1"/>
        <pt x="387" y="58" on="1"/>
        <pt x="391" y="76" on="0"/>
        <pt x="411" y="126" on="0"/>
        <pt x="451" y="172" on="0"/>
        <pt x="517" y="205" on="0"/>
        <pt x="567" y="205" on="1"/>
        <pt x="567" y="0" on="1"/>
        <pt x="25" y="0" on="1"/>
        <pt x="25" y="58" on="1"/>
        <pt x="114" y="58" on="1"/>
        <pt x="114" y="557" on="1"/>
        <pt x="25" y="557" on="1"/>
        <pt x="25" y="615" on="1"/>
      </contour>
    </TTGlyph>
    <TTGlyph name="Eacute" xMin="25" yMin="0" xMax="567" yMax="853">
      <contour>
        <pt x="552" y="615" on="1"/>
        <pt x="552" y="411" on="1"/>
        <pt x="502" y="411" on="0"/>
        <pt x="437" y="443" on="0"/>
        <pt x="396" y="489" on="0"/>
        <pt x="376" y="539" on="0"/>
        <pt x="372" y="557" on="1"/>
        <pt x="282" y="557" on="1"/>
        <pt x="282" y="335" on="1"/>
        <pt x="457" y="335" on="1"/>
        <pt x="457" y="277" on="1"/>
        <pt x="282" y="277" on="1"/>
        <pt x="282" y="58" on="1"/>
        <pt x="387" y="58" on="1"/>
        <pt x="391" y="76" on="0"/>
        <pt x="411" y="126" on="0"/>
        <pt x="451" y="172" on="0"/>
        <pt x="517" y="205" on="0"/>
        <pt x="567" y="205" on="1"/>
        <pt x="567" y="0" on="1"/>
        <pt x="25" y="0" on="1"/>
        <pt x="25" y="58" on="1"/>
        <pt x="114" y="58" on="1"/>
        <pt x="114" y="557" on="1"/>
        <pt x="25" y="557" on="1"/>
        <pt x="25" y="615" on="1"/>
      </contour>
      <contour>
        <pt x="457" y="842" on="1"/>
        <pt x="477" y="853" on="0"/>
        <pt x="491" y="853" on="1"/>
        <pt x="499" y="853" on="0"/>
        <pt x="519" y="844" on="0"/>
        <pt x="537" y="828" on="0"/>
        <pt x="550" y="804" on="0"/>
        <pt x="550" y="789" on="1"/>
        <pt x="550" y="759" on="0"/>
        <pt x="525" y="739" on="1"/>
        <pt x="316" y="653" on="1"/>
        <pt x="294" y="682" on="1"/>
      </contour>
    </TTGlyph>
    <TTGlyph name="Ecircumflex" xMin="25" yMin="0" xMax="567" yMax="853">
      <contour>
        <pt x="552" y="615" on="1"/>
        <pt x="552" y="411" on="1"/>
        <pt x="502" y="411" on="0"/>
        <pt x="437" y="443" on="0"/>
        <pt x="396" y="489" on="0"/>
        <pt x="376" y="539" on="0"/>
        <pt x="372" y="557" on="1"/>
        <pt x="282" y="557" on="1"/>
        <pt x="282" y="335" on="1"/>
        <pt x="457" y="335" on="1"/>
        <pt x="457" y="277" on="1"/>
        <pt x="282" y="277" on="1"/>
        <pt x="282" y="58" on="1"/>
        <pt x="387" y="58" on="1"/>
        <pt x="391" y="76" on="0"/>
        <pt x="411" y="126" on="0"/>
        <pt x="451" y="172" on="0"/>
        <pt x="517" y="205" on="0"/>
        <pt x="567" y="205" on="1"/>
        <pt x="567" y="0" on="1"/>
        <pt x="25" y="0" on="1"/>
        <pt x="25" y="58" on="1"/>
        <pt x="114" y="58" on="1"/>
        <pt x="114" y="557" on="1"/>
        <pt x="25" y="557" on="1"/>
        <pt x="25" y="615" on="1"/>
      </contour>
      <contour>
        <pt x="282" y="842" on="1"/>
        <pt x="293" y="848" on="0"/>
        <pt x="302" y="851" on="1"/>
        <pt x="303" y="851" on="0"/>
        <pt x="304" y="851" on="1"/>
        <pt x="309" y="852" on="1"/>
        <pt x="311" y="853" on="0"/>
        <pt x="312" y="853" on="1"/>
        <pt x="315" y="853" on="1"/>
        <pt x="316" y="853" on="1"/>
        <pt x="319" y="853" on="0"/>
        <pt x="321" y="852" on="1"/>
        <pt x="333" y="850" on="0"/>
        <pt x="349" y="842" on="1"/>
        <pt x="512" y="682" on="1"/>
        <pt x="490" y="653" on="1"/>
        <pt x="315" y="725" on="1"/>
        <pt x="141" y="653" on="1"/>
        <pt x="119" y="682" on="1"/>
      </contour>
    </TTGlyph>
    <TTGlyph name="Edieresis" xMin="25" yMin="0" xMax="567" yMax="838">
      <contour>
        <pt x="552" y="615" on="1"/>
        <pt x="552" y="411" on="1"/>
        <pt x="502" y="411" on="0"/>
        <pt x="437" y="443" on="0"/>
        <pt x="396" y="489" on="0"/>
        <pt x="376" y="539" on="0"/>
        <pt x="372" y="557" on="1"/>
        <pt x="282" y="557" on="1"/>
        <pt x="282" y="335" on="1"/>
        <pt x="457" y="335" on="1"/>
        <pt x="457" y="277" on="1"/>
        <pt x="282" y="277" on="1"/>
        <pt x="282" y="58" on="1"/>
        <pt x="387" y="58" on="1"/>
        <pt x="391" y="76" on="0"/>
        <pt x="411" y="126" on="0"/>
        <pt x="451" y="172" on="0"/>
        <pt x="517" y="205" on="0"/>
        <pt x="567" y="205" on="1"/>
        <pt x="567" y="0" on="1"/>
        <pt x="25" y="0" on="1"/>
        <pt x="25" y="58" on="1"/>
        <pt x="114" y="58" on="1"/>
        <pt x="114" y="557" on="1"/>
        <pt x="25" y="557" on="1"/>
        <pt x="25" y="615" on="1"/>
      </contour>
      <contour>
        <pt x="135" y="763" on="1"/>
        <pt x="135" y="801" on="0"/>
        <pt x="168" y="838" on="0"/>
        <pt x="206" y="838" on="1"/>
        <pt x="247" y="838" on="0"/>
        <pt x="277" y="801" on="0"/>
        <pt x="277" y="763" on="1"/>
        <pt x="277" y="725" on="0"/>
        <pt x="244" y="689" on="0"/>
        <pt x="206" y="689" on="1"/>
        <pt x="168" y="689" on="0"/>
        <pt x="135" y="725" on="0"/>
      </contour>
      <contour>
        <pt x="340" y="763" on="1"/>
        <pt x="340" y="801" on="0"/>
        <pt x="373" y="838" on="0"/>
        <pt x="411" y="838" on="1"/>
        <pt x="452" y="838" on="0"/>
        <pt x="482" y="801" on="0"/>
        <pt x="482" y="763" on="1"/>
        <pt x="482" y="725" on="0"/>
        <pt x="449" y="689" on="0"/>
        <pt x="411" y="689" on="1"/>
        <pt x="373" y="689" on="0"/>
        <pt x="340" y="725" on="0"/>
      </contour>
    </TTGlyph>
    <TTGlyph name="Egrave" xMin="25" yMin="0" xMax="567" yMax="853">
      <contour>
        <pt x="552" y="615" on="1"/>
        <pt x="552" y="411" on="1"/>
        <pt x="502" y="411" on="0"/>
        <pt x="437" y="443" on="0"/>
        <pt x="396" y="489" on="0"/>
        <pt x="376" y="539" on="0"/>
        <pt x="372" y="557" on="1"/>
        <pt x="282" y="557" on="1"/>
        <pt x="282" y="335" on="1"/>
        <pt x="457" y="335" on="1"/>
        <pt x="457" y="277" on="1"/>
        <pt x="282" y="277" on="1"/>
        <pt x="282" y="58" on="1"/>
        <pt x="387" y="58" on="1"/>
        <pt x="391" y="76" on="0"/>
        <pt x="411" y="126" on="0"/>
        <pt x="451" y="172" on="0"/>
        <pt x="517" y="205" on="0"/>
        <pt x="567" y="205" on="1"/>
        <pt x="567" y="0" on="1"/>
        <pt x="25" y="0" on="1"/>
        <pt x="25" y="58" on="1"/>
        <pt x="114" y="58" on="1"/>
        <pt x="114" y="557" on="1"/>
        <pt x="25" y="557" on="1"/>
        <pt x="25" y="615" on="1"/>
      </contour>
      <contour>
        <pt x="338" y="682" on="1"/>
        <pt x="316" y="653" on="1"/>
        <pt x="107" y="739" on="1"/>
        <pt x="82" y="759" on="0"/>
        <pt x="82" y="789" on="1"/>
        <pt x="82" y="804" on="0"/>
        <pt x="94" y="828" on="0"/>
        <pt x="112" y="844" on="0"/>
        <pt x="133" y="853" on="0"/>
        <pt x="141" y="853" on="1"/>
        <pt x="155" y="853" on="0"/>
        <pt x="175" y="842" on="1"/>
      </contour>
    </TTGlyph>
    <TTGlyph name="Eth" xMin="25" yMin="-4" xMax="665" yMax="620">
      <contour>
        <pt x="151" y="615" on="1"/>
        <pt x="168" y="615" on="0"/>
        <pt x="223" y="617" on="0"/>
        <pt x="283" y="618" on="0"/>
        <pt x="343" y="620" on="0"/>
        <pt x="365" y="620" on="1"/>
        <pt x="443" y="620" on="0"/>
        <pt x="557" y="588" on="0"/>
        <pt x="630" y="514" on="0"/>
        <pt x="665" y="395" on="0"/>
        <pt x="665" y="308" on="1"/>
        <pt x="665" y="221" on="0"/>
        <pt x="630" y="101" on="0"/>
        <pt x="557" y="28" on="0"/>
        <pt x="443" y="-4" on="0"/>
        <pt x="365" y="-4" on="1"/>
        <pt x="337" y="-4" on="0"/>
        <pt x="276" y="-3" on="0"/>
        <pt x="218" y="-1" on="0"/>
        <pt x="167" y="0" on="0"/>
        <pt x="151" y="0" on="1"/>
        <pt x="25" y="0" on="1"/>
        <pt x="25" y="58" on="1"/>
        <pt x="114" y="58" on="1"/>
        <pt x="114" y="330" on="1"/>
        <pt x="50" y="330" on="1"/>
        <pt x="50" y="388" on="1"/>
        <pt x="114" y="388" on="1"/>
        <pt x="114" y="557" on="1"/>
        <pt x="25" y="557" on="1"/>
        <pt x="25" y="615" on="1"/>
      </contour>
      <contour>
        <pt x="282" y="570" on="1"/>
        <pt x="282" y="388" on="1"/>
        <pt x="342" y="388" on="1"/>
        <pt x="342" y="330" on="1"/>
        <pt x="282" y="330" on="1"/>
        <pt x="282" y="49" on="1"/>
        <pt x="325" y="46" on="0"/>
        <pt x="365" y="46" on="1"/>
        <pt x="401" y="46" on="1"/>
        <pt x="417" y="46" on="0"/>
        <pt x="428" y="47" on="1"/>
        <pt x="440" y="48" on="0"/>
        <pt x="449" y="49" on="1"/>
        <pt x="457" y="84" on="0"/>
        <pt x="463" y="125" on="1"/>
        <pt x="468" y="160" on="0"/>
        <pt x="478" y="254" on="0"/>
        <pt x="478" y="308" on="1"/>
        <pt x="478" y="364" on="0"/>
        <pt x="468" y="457" on="0"/>
        <pt x="463" y="492" on="1"/>
        <pt x="457" y="532" on="0"/>
        <pt x="449" y="566" on="1"/>
        <pt x="439" y="567" on="0"/>
        <pt x="427" y="568" on="1"/>
        <pt x="416" y="569" on="0"/>
        <pt x="385" y="570" on="0"/>
        <pt x="365" y="570" on="1"/>
      </contour>
    </TTGlyph>
    <TTGlyph name="Euro" xMin="40" yMin="-15" xMax="589" yMax="586">
      <contour>
        <pt x="568" y="367" on="1"/>
        <pt x="506" y="367" on="0"/>
        <pt x="434" y="415" on="0"/>
        <pt x="397" y="475" on="0"/>
        <pt x="385" y="529" on="0"/>
        <pt x="385" y="536" on="1"/>
        <pt x="371" y="535" on="0"/>
        <pt x="348" y="533" on="0"/>
        <pt x="340" y="531" on="1"/>
        <pt x="330" y="529" on="0"/>
        <pt x="323" y="527" on="1"/>
        <pt x="317" y="508" on="0"/>
        <pt x="312" y="483" on="1"/>
        <pt x="307" y="462" on="0"/>
        <pt x="299" y="402" on="0"/>
        <pt x="296" y="365" on="1"/>
        <pt x="469" y="365" on="1"/>
        <pt x="461" y="307" on="1"/>
        <pt x="294" y="307" on="1"/>
        <pt x="294" y="265" on="1"/>
        <pt x="454" y="265" on="1"/>
        <pt x="446" y="207" on="1"/>
        <pt x="297" y="207" on="1"/>
        <pt x="299" y="169" on="0"/>
        <pt x="308" y="109" on="0"/>
        <pt x="313" y="88" on="1"/>
        <pt x="318" y="63" on="0"/>
        <pt x="323" y="44" on="1"/>
        <pt x="329" y="42" on="0"/>
        <pt x="338" y="40" on="1"/>
        <pt x="353" y="37" on="0"/>
        <pt x="380" y="37" on="1"/>
        <pt x="413" y="37" on="0"/>
        <pt x="468" y="52" on="0"/>
        <pt x="508" y="85" on="0"/>
        <pt x="531" y="138" on="0"/>
        <pt x="531" y="175" on="1"/>
        <pt x="531" y="206" on="1"/>
        <pt x="589" y="206" on="1"/>
        <pt x="589" y="178" on="1"/>
        <pt x="589" y="127" on="0"/>
        <pt x="555" y="54" on="0"/>
        <pt x="497" y="7" on="0"/>
        <pt x="422" y="-15" on="0"/>
        <pt x="380" y="-15" on="1"/>
        <pt x="321" y="-15" on="0"/>
        <pt x="228" y="9" on="0"/>
        <pt x="161" y="62" on="0"/>
        <pt x="120" y="146" on="0"/>
        <pt x="112" y="207" on="1"/>
        <pt x="40" y="207" on="1"/>
        <pt x="48" y="265" on="1"/>
        <pt x="107" y="265" on="1"/>
        <pt x="107" y="307" on="1"/>
        <pt x="54" y="307" on="1"/>
        <pt x="62" y="365" on="1"/>
        <pt x="111" y="365" on="1"/>
        <pt x="119" y="426" on="0"/>
        <pt x="161" y="510" on="0"/>
        <pt x="232" y="563" on="0"/>
        <pt x="331" y="586" on="0"/>
        <pt x="396" y="586" on="1"/>
        <pt x="430" y="586" on="0"/>
        <pt x="492" y="581" on="0"/>
        <pt x="516" y="578" on="1"/>
        <pt x="544" y="574" on="0"/>
        <pt x="568" y="571" on="1"/>
      </contour>
    </TTGlyph>
    <TTGlyph name="F" xMin="25" yMin="0" xMax="542" yMax="615">
      <contour>
        <pt x="542" y="615" on="1"/>
        <pt x="542" y="396" on="1"/>
        <pt x="492" y="396" on="0"/>
        <pt x="425" y="432" on="0"/>
        <pt x="385" y="483" on="0"/>
        <pt x="365" y="538" on="0"/>
        <pt x="362" y="557" on="1"/>
        <pt x="282" y="557" on="1"/>
        <pt x="282" y="315" on="1"/>
        <pt x="447" y="315" on="1"/>
        <pt x="447" y="257" on="1"/>
        <pt x="282" y="257" on="1"/>
        <pt x="282" y="58" on="1"/>
        <pt x="373" y="58" on="1"/>
        <pt x="373" y="0" on="1"/>
        <pt x="25" y="0" on="1"/>
        <pt x="25" y="58" on="1"/>
        <pt x="114" y="58" on="1"/>
        <pt x="114" y="257" on="1"/>
        <pt x="25" y="257" on="1"/>
        <pt x="25" y="315" on="1"/>
        <pt x="114" y="315" on="1"/>
        <pt x="114" y="557" on="1"/>
        <pt x="25" y="557" on="1"/>
        <pt x="25" y="615" on="1"/>
      </contour>
    </TTGlyph>
    <TTGlyph name="G" xMin="45" yMin="-15" xMax="606" yMax="630">
      <contour>
        <pt x="596" y="411" on="1"/>
        <pt x="536" y="411" on="0"/>
        <pt x="465" y="456" on="0"/>
        <pt x="426" y="514" on="0"/>
        <pt x="414" y="568" on="0"/>
        <pt x="413" y="578" on="1"/>
        <pt x="394" y="580" on="0"/>
        <pt x="376" y="580" on="1"/>
        <pt x="344" y="580" on="1"/>
        <pt x="324" y="580" on="0"/>
        <pt x="294" y="577" on="0"/>
        <pt x="283" y="575" on="1"/>
        <pt x="271" y="573" on="0"/>
        <pt x="261" y="571" on="1"/>
        <pt x="252" y="536" on="0"/>
        <pt x="246" y="494" on="1"/>
        <pt x="241" y="458" on="0"/>
        <pt x="232" y="362" on="0"/>
        <pt x="232" y="308" on="1"/>
        <pt x="232" y="253" on="0"/>
        <pt x="241" y="158" on="0"/>
        <pt x="246" y="122" on="1"/>
        <pt x="252" y="80" on="0"/>
        <pt x="261" y="44" on="1"/>
        <pt x="272" y="41" on="0"/>
        <pt x="285" y="39" on="1"/>
        <pt x="296" y="37" on="0"/>
        <pt x="326" y="35" on="0"/>
        <pt x="344" y="35" on="1"/>
        <pt x="364" y="35" on="0"/>
        <pt x="414" y="43" on="0"/>
        <pt x="438" y="53" on="1"/>
        <pt x="438" y="242" on="1"/>
        <pt x="380" y="242" on="1"/>
        <pt x="380" y="300" on="1"/>
        <pt x="606" y="300" on="1"/>
        <pt x="606" y="4" on="1"/>
        <pt x="487" y="17" on="1"/>
        <pt x="452" y="0" on="0"/>
        <pt x="375" y="-15" on="0"/>
        <pt x="344" y="-15" on="1"/>
        <pt x="266" y="-15" on="0"/>
        <pt x="153" y="20" on="0"/>
        <pt x="80" y="98" on="0"/>
        <pt x="45" y="221" on="0"/>
        <pt x="45" y="308" on="1"/>
        <pt x="45" y="395" on="0"/>
        <pt x="80" y="517" on="0"/>
        <pt x="153" y="595" on="0"/>
        <pt x="266" y="630" on="0"/>
        <pt x="344" y="630" on="1"/>
        <pt x="378" y="630" on="0"/>
        <pt x="465" y="625" on="0"/>
        <pt x="504" y="622" on="1"/>
        <pt x="550" y="618" on="0"/>
        <pt x="596" y="615" on="1"/>
      </contour>
    </TTGlyph>
    <TTGlyph name="H" xMin="25" yMin="0" xMax="711" yMax="615">
      <contour>
        <pt x="711" y="615" on="1"/>
        <pt x="711" y="557" on="1"/>
        <pt x="622" y="557" on="1"/>
        <pt x="622" y="58" on="1"/>
        <pt x="711" y="58" on="1"/>
        <pt x="711" y="0" on="1"/>
        <pt x="454" y="0" on="1"/>
        <pt x="454" y="277" on="1"/>
        <pt x="282" y="277" on="1"/>
        <pt x="282" y="58" on="1"/>
        <pt x="355" y="58" on="1"/>
        <pt x="355" y="0" on="1"/>
        <pt x="25" y="0" on="1"/>
        <pt x="25" y="58" on="1"/>
        <pt x="114" y="58" on="1"/>
        <pt x="114" y="557" on="1"/>
        <pt x="25" y="557" on="1"/>
        <pt x="25" y="615" on="1"/>
        <pt x="332" y="615" on="1"/>
        <pt x="332" y="557" on="1"/>
        <pt x="282" y="557" on="1"/>
        <pt x="282" y="335" on="1"/>
        <pt x="454" y="335" on="1"/>
        <pt x="454" y="557" on="1"/>
        <pt x="404" y="557" on="1"/>
        <pt x="404" y="615" on="1"/>
      </contour>
    </TTGlyph>
    <TTGlyph name="I" xMin="25" yMin="0" xMax="371" yMax="615">
      <contour>
        <pt x="371" y="615" on="1"/>
        <pt x="371" y="557" on="1"/>
        <pt x="282" y="557" on="1"/>
        <pt x="282" y="58" on="1"/>
        <pt x="371" y="58" on="1"/>
        <pt x="371" y="0" on="1"/>
        <pt x="25" y="0" on="1"/>
        <pt x="25" y="58" on="1"/>
        <pt x="114" y="58" on="1"/>
        <pt x="114" y="557" on="1"/>
        <pt x="25" y="557" on="1"/>
        <pt x="25" y="615" on="1"/>
      </contour>
    </TTGlyph>
    <TTGlyph name="Iacute" xMin="25" yMin="0" xMax="433" yMax="853">
      <contour>
        <pt x="371" y="615" on="1"/>
        <pt x="371" y="557" on="1"/>
        <pt x="282" y="557" on="1"/>
        <pt x="282" y="58" on="1"/>
        <pt x="371" y="58" on="1"/>
        <pt x="371" y="0" on="1"/>
        <pt x="25" y="0" on="1"/>
        <pt x="25" y="58" on="1"/>
        <pt x="114" y="58" on="1"/>
        <pt x="114" y="557" on="1"/>
        <pt x="25" y="557" on="1"/>
        <pt x="25" y="615" on="1"/>
      </contour>
      <contour>
        <pt x="340" y="842" on="1"/>
        <pt x="360" y="853" on="0"/>
        <pt x="374" y="853" on="1"/>
        <pt x="382" y="853" on="0"/>
        <pt x="402" y="844" on="0"/>
        <pt x="420" y="828" on="0"/>
        <pt x="433" y="804" on="0"/>
        <pt x="433" y="789" on="1"/>
        <pt x="433" y="759" on="0"/>
        <pt x="408" y="739" on="1"/>
        <pt x="199" y="653" on="1"/>
        <pt x="177" y="682" on="1"/>
      </contour>
    </TTGlyph>
    <TTGlyph name="Icircumflex" xMin="2" yMin="0" xMax="395" yMax="853">
      <contour>
        <pt x="371" y="615" on="1"/>
        <pt x="371" y="557" on="1"/>
        <pt x="282" y="557" on="1"/>
        <pt x="282" y="58" on="1"/>
        <pt x="371" y="58" on="1"/>
        <pt x="371" y="0" on="1"/>
        <pt x="25" y="0" on="1"/>
        <pt x="25" y="58" on="1"/>
        <pt x="114" y="58" on="1"/>
        <pt x="114" y="557" on="1"/>
        <pt x="25" y="557" on="1"/>
        <pt x="25" y="615" on="1"/>
      </contour>
      <contour>
        <pt x="165" y="842" on="1"/>
        <pt x="176" y="848" on="0"/>
        <pt x="185" y="851" on="1"/>
        <pt x="186" y="851" on="0"/>
        <pt x="187" y="851" on="1"/>
        <pt x="192" y="852" on="1"/>
        <pt x="194" y="853" on="0"/>
        <pt x="195" y="853" on="1"/>
        <pt x="199" y="853" on="1"/>
        <pt x="202" y="853" on="0"/>
        <pt x="207" y="852" on="0"/>
        <pt x="209" y="851" on="1"/>
        <pt x="210" y="851" on="0"/>
        <pt x="211" y="851" on="1"/>
        <pt x="220" y="848" on="0"/>
        <pt x="232" y="842" on="1"/>
        <pt x="395" y="682" on="1"/>
        <pt x="373" y="653" on="1"/>
        <pt x="198" y="725" on="1"/>
        <pt x="24" y="653" on="1"/>
        <pt x="2" y="682" on="1"/>
      </contour>
    </TTGlyph>
    <TTGlyph name="Idieresis" xMin="25" yMin="0" xMax="372" yMax="838">
      <contour>
        <pt x="371" y="615" on="1"/>
        <pt x="371" y="557" on="1"/>
        <pt x="282" y="557" on="1"/>
        <pt x="282" y="58" on="1"/>
        <pt x="371" y="58" on="1"/>
        <pt x="371" y="0" on="1"/>
        <pt x="25" y="0" on="1"/>
        <pt x="25" y="58" on="1"/>
        <pt x="114" y="58" on="1"/>
        <pt x="114" y="557" on="1"/>
        <pt x="25" y="557" on="1"/>
        <pt x="25" y="615" on="1"/>
      </contour>
      <contour>
        <pt x="25" y="763" on="1"/>
        <pt x="25" y="801" on="0"/>
        <pt x="58" y="838" on="0"/>
        <pt x="96" y="838" on="1"/>
        <pt x="137" y="838" on="0"/>
        <pt x="167" y="801" on="0"/>
        <pt x="167" y="763" on="1"/>
        <pt x="167" y="725" on="0"/>
        <pt x="134" y="689" on="0"/>
        <pt x="96" y="689" on="1"/>
        <pt x="58" y="689" on="0"/>
        <pt x="25" y="725" on="0"/>
      </contour>
      <contour>
        <pt x="230" y="763" on="1"/>
        <pt x="230" y="801" on="0"/>
        <pt x="263" y="838" on="0"/>
        <pt x="301" y="838" on="1"/>
        <pt x="342" y="838" on="0"/>
        <pt x="372" y="801" on="0"/>
        <pt x="372" y="763" on="1"/>
        <pt x="372" y="725" on="0"/>
        <pt x="339" y="689" on="0"/>
        <pt x="301" y="689" on="1"/>
        <pt x="263" y="689" on="0"/>
        <pt x="230" y="725" on="0"/>
      </contour>
    </TTGlyph>
    <TTGlyph name="Igrave" xMin="-35" yMin="0" xMax="371" yMax="853">
      <contour>
        <pt x="371" y="615" on="1"/>
        <pt x="371" y="557" on="1"/>
        <pt x="282" y="557" on="1"/>
        <pt x="282" y="58" on="1"/>
        <pt x="371" y="58" on="1"/>
        <pt x="371" y="0" on="1"/>
        <pt x="25" y="0" on="1"/>
        <pt x="25" y="58" on="1"/>
        <pt x="114" y="58" on="1"/>
        <pt x="114" y="557" on="1"/>
        <pt x="25" y="557" on="1"/>
        <pt x="25" y="615" on="1"/>
      </contour>
      <contour>
        <pt x="221" y="682" on="1"/>
        <pt x="199" y="653" on="1"/>
        <pt x="-10" y="739" on="1"/>
        <pt x="-35" y="759" on="0"/>
        <pt x="-35" y="789" on="1"/>
        <pt x="-35" y="804" on="0"/>
        <pt x="-23" y="828" on="0"/>
        <pt x="-5" y="844" on="0"/>
        <pt x="16" y="853" on="0"/>
        <pt x="24" y="853" on="1"/>
        <pt x="38" y="853" on="0"/>
        <pt x="58" y="842" on="1"/>
      </contour>
    </TTGlyph>
    <TTGlyph name="J" xMin="-15" yMin="-10" xMax="478" yMax="615">
      <contour>
        <pt x="188" y="236" on="1"/>
        <pt x="188" y="178" on="1"/>
        <pt x="121" y="178" on="1"/>
        <pt x="121" y="122" on="1"/>
        <pt x="121" y="109" on="0"/>
        <pt x="127" y="83" on="0"/>
        <pt x="140" y="62" on="0"/>
        <pt x="162" y="49" on="0"/>
        <pt x="178" y="49" on="1"/>
        <pt x="221" y="49" on="1"/>
        <pt x="221" y="557" on="1"/>
        <pt x="132" y="557" on="1"/>
        <pt x="132" y="615" on="1"/>
        <pt x="478" y="615" on="1"/>
        <pt x="478" y="557" on="1"/>
        <pt x="389" y="557" on="1"/>
        <pt x="389" y="130" on="1"/>
        <pt x="389" y="90" on="0"/>
        <pt x="368" y="37" on="0"/>
        <pt x="324" y="4" on="0"/>
        <pt x="256" y="-10" on="0"/>
        <pt x="209" y="-10" on="1"/>
        <pt x="164" y="-10" on="0"/>
        <pt x="106" y="8" on="0"/>
        <pt x="72" y="41" on="0"/>
        <pt x="58" y="90" on="0"/>
        <pt x="58" y="120" on="1"/>
        <pt x="58" y="178" on="1"/>
        <pt x="-15" y="178" on="1"/>
        <pt x="-15" y="236" on="1"/>
      </contour>
    </TTGlyph>
    <TTGlyph name="K" xMin="25" yMin="0" xMax="658" yMax="615">
      <contour>
        <pt x="658" y="0" on="1"/>
        <pt x="474" y="0" on="1"/>
        <pt x="290" y="286" on="1"/>
        <pt x="282" y="286" on="1"/>
        <pt x="282" y="58" on="1"/>
        <pt x="351" y="58" on="1"/>
        <pt x="351" y="0" on="1"/>
        <pt x="25" y="0" on="1"/>
        <pt x="25" y="58" on="1"/>
        <pt x="114" y="58" on="1"/>
        <pt x="114" y="557" on="1"/>
        <pt x="25" y="557" on="1"/>
        <pt x="25" y="615" on="1"/>
        <pt x="282" y="615" on="1"/>
        <pt x="282" y="347" on="1"/>
        <pt x="471" y="557" on="1"/>
        <pt x="395" y="557" on="1"/>
        <pt x="395" y="615" on="1"/>
        <pt x="652" y="615" on="1"/>
        <pt x="652" y="557" on="1"/>
        <pt x="551" y="557" on="1"/>
        <pt x="409" y="399" on="1"/>
        <pt x="658" y="21" on="1"/>
      </contour>
    </TTGlyph>
    <TTGlyph name="L" xMin="25" yMin="0" xMax="537" yMax="615">
      <contour>
        <pt x="25" y="0" on="1"/>
        <pt x="25" y="58" on="1"/>
        <pt x="114" y="58" on="1"/>
        <pt x="114" y="557" on="1"/>
        <pt x="25" y="557" on="1"/>
        <pt x="25" y="615" on="1"/>
        <pt x="371" y="615" on="1"/>
        <pt x="371" y="557" on="1"/>
        <pt x="282" y="557" on="1"/>
        <pt x="282" y="58" on="1"/>
        <pt x="366" y="58" on="1"/>
        <pt x="368" y="76" on="0"/>
        <pt x="384" y="130" on="0"/>
        <pt x="422" y="180" on="0"/>
        <pt x="486" y="215" on="0"/>
        <pt x="537" y="215" on="1"/>
        <pt x="537" y="0" on="1"/>
      </contour>
    </TTGlyph>
    <TTGlyph name="M" xMin="25" yMin="0" xMax="828" yMax="615">
      <contour>
        <pt x="288" y="615" on="1"/>
        <pt x="437" y="264" on="1"/>
        <pt x="571" y="615" on="1"/>
        <pt x="828" y="615" on="1"/>
        <pt x="828" y="557" on="1"/>
        <pt x="739" y="557" on="1"/>
        <pt x="739" y="58" on="1"/>
        <pt x="828" y="58" on="1"/>
        <pt x="828" y="0" on="1"/>
        <pt x="571" y="0" on="1"/>
        <pt x="571" y="450" on="1"/>
        <pt x="399" y="2" on="1"/>
        <pt x="398" y="3" on="1"/>
        <pt x="397" y="0" on="1"/>
        <pt x="366" y="0" on="1"/>
        <pt x="177" y="456" on="1"/>
        <pt x="177" y="58" on="1"/>
        <pt x="266" y="58" on="1"/>
        <pt x="266" y="0" on="1"/>
        <pt x="25" y="0" on="1"/>
        <pt x="25" y="58" on="1"/>
        <pt x="114" y="58" on="1"/>
        <pt x="114" y="557" on="1"/>
        <pt x="25" y="557" on="1"/>
        <pt x="25" y="615" on="1"/>
      </contour>
    </TTGlyph>
    <TTGlyph name="N" xMin="25" yMin="0" xMax="656" yMax="615">
      <contour>
        <pt x="178" y="615" on="1"/>
        <pt x="504" y="285" on="1"/>
        <pt x="504" y="557" on="1"/>
        <pt x="415" y="557" on="1"/>
        <pt x="415" y="615" on="1"/>
        <pt x="656" y="615" on="1"/>
        <pt x="656" y="557" on="1"/>
        <pt x="567" y="557" on="1"/>
        <pt x="567" y="0" on="1"/>
        <pt x="536" y="0" on="1"/>
        <pt x="177" y="378" on="1"/>
        <pt x="177" y="58" on="1"/>
        <pt x="266" y="58" on="1"/>
        <pt x="266" y="0" on="1"/>
        <pt x="25" y="0" on="1"/>
        <pt x="25" y="58" on="1"/>
        <pt x="114" y="58" on="1"/>
        <pt x="114" y="557" on="1"/>
        <pt x="25" y="557" on="1"/>
        <pt x="25" y="615" on="1"/>
      </contour>
    </TTGlyph>
    <TTGlyph name="Ntilde" xMin="25" yMin="0" xMax="656" yMax="797">
      <contour>
        <pt x="178" y="615" on="1"/>
        <pt x="504" y="285" on="1"/>
        <pt x="504" y="557" on="1"/>
        <pt x="415" y="557" on="1"/>
        <pt x="415" y="615" on="1"/>
        <pt x="656" y="615" on="1"/>
        <pt x="656" y="557" on="1"/>
        <pt x="567" y="557" on="1"/>
        <pt x="567" y="0" on="1"/>
        <pt x="536" y="0" on="1"/>
        <pt x="177" y="378" on="1"/>
        <pt x="177" y="58" on="1"/>
        <pt x="266" y="58" on="1"/>
        <pt x="266" y="0" on="1"/>
        <pt x="25" y="0" on="1"/>
        <pt x="25" y="58" on="1"/>
        <pt x="114" y="58" on="1"/>
        <pt x="114" y="557" on="1"/>
        <pt x="25" y="557" on="1"/>
        <pt x="25" y="615" on="1"/>
      </contour>
      <contour>
        <pt x="184" y="723" on="1"/>
        <pt x="194" y="764" on="0"/>
        <pt x="235" y="796" on="0"/>
        <pt x="266" y="796" on="1"/>
        <pt x="282" y="796" on="0"/>
        <pt x="314" y="785" on="0"/>
        <pt x="345" y="772" on="0"/>
        <pt x="375" y="761" on="0"/>
        <pt x="389" y="761" on="1"/>
        <pt x="406" y="761" on="0"/>
        <pt x="423" y="782" on="0"/>
        <pt x="428" y="797" on="1"/>
        <pt x="477" y="776" on="1"/>
        <pt x="467" y="735" on="0"/>
        <pt x="426" y="703" on="0"/>
        <pt x="396" y="703" on="1"/>
        <pt x="379" y="703" on="0"/>
        <pt x="347" y="714" on="0"/>
        <pt x="316" y="727" on="0"/>
        <pt x="286" y="738" on="0"/>
        <pt x="272" y="738" on="1"/>
        <pt x="255" y="738" on="0"/>
        <pt x="238" y="717" on="0"/>
        <pt x="233" y="702" on="1"/>
      </contour>
    </TTGlyph>
    <TTGlyph name="O" xMin="45" yMin="-15" xMax="645" yMax="701">
      <contour>
        <pt x="45" y="308" on="1"/>
        <pt x="45" y="395" on="0"/>
        <pt x="80" y="517" on="0"/>
        <pt x="153" y="595" on="0"/>
        <pt x="266" y="630" on="0"/>
        <pt x="344" y="630" on="1"/>
        <pt x="354" y="630" on="0"/>
        <pt x="372" y="629" on="0"/>
        <pt x="381" y="629" on="1"/>
        <pt x="441" y="629" on="1"/>
        <pt x="477" y="629" on="0"/>
        <pt x="533" y="633" on="0"/>
        <pt x="571" y="648" on="0"/>
        <pt x="591" y="676" on="0"/>
        <pt x="591" y="701" on="1"/>
        <pt x="645" y="701" on="1"/>
        <pt x="645" y="644" on="0"/>
        <pt x="589" y="595" on="0"/>
        <pt x="534" y="587" on="1"/>
        <pt x="591" y="551" on="0"/>
        <pt x="644" y="415" on="0"/>
        <pt x="644" y="308" on="1"/>
        <pt x="644" y="221" on="0"/>
        <pt x="609" y="98" on="0"/>
        <pt x="536" y="20" on="0"/>
        <pt x="422" y="-15" on="0"/>
        <pt x="344" y="-15" on="1"/>
        <pt x="266" y="-15" on="0"/>
        <pt x="153" y="20" on="0"/>
        <pt x="80" y="98" on="0"/>
        <pt x="45" y="221" on="0"/>
      </contour>
      <contour>
        <pt x="232" y="308" on="1"/>
        <pt x="232" y="251" on="0"/>
        <pt x="241" y="155" on="0"/>
        <pt x="246" y="120" on="1"/>
        <pt x="252" y="79" on="0"/>
        <pt x="261" y="44" on="1"/>
        <pt x="271" y="41" on="0"/>
        <pt x="283" y="39" on="1"/>
        <pt x="294" y="37" on="0"/>
        <pt x="324" y="35" on="0"/>
        <pt x="344" y="35" on="1"/>
        <pt x="364" y="35" on="0"/>
        <pt x="396" y="37" on="0"/>
        <pt x="407" y="39" on="1"/>
        <pt x="419" y="41" on="0"/>
        <pt x="428" y="44" on="1"/>
        <pt x="436" y="81" on="0"/>
        <pt x="442" y="123" on="1"/>
        <pt x="447" y="159" on="0"/>
        <pt x="457" y="254" on="0"/>
        <pt x="457" y="308" on="1"/>
        <pt x="457" y="364" on="0"/>
        <pt x="447" y="460" on="0"/>
        <pt x="442" y="495" on="1"/>
        <pt x="436" y="536" on="0"/>
        <pt x="428" y="571" on="1"/>
        <pt x="418" y="573" on="0"/>
        <pt x="406" y="575" on="1"/>
        <pt x="395" y="577" on="0"/>
        <pt x="364" y="580" on="0"/>
        <pt x="344" y="580" on="1"/>
        <pt x="324" y="580" on="0"/>
        <pt x="294" y="577" on="0"/>
        <pt x="283" y="575" on="1"/>
        <pt x="271" y="573" on="0"/>
        <pt x="261" y="571" on="1"/>
        <pt x="252" y="534" on="0"/>
        <pt x="246" y="492" on="1"/>
        <pt x="241" y="456" on="0"/>
        <pt x="232" y="361" on="0"/>
      </contour>
    </TTGlyph>
    <TTGlyph name="OE" xMin="45" yMin="0" xMax="850" yMax="615">
      <contour>
        <pt x="835" y="615" on="1"/>
        <pt x="835" y="411" on="1"/>
        <pt x="785" y="411" on="0"/>
        <pt x="720" y="443" on="0"/>
        <pt x="679" y="489" on="0"/>
        <pt x="659" y="539" on="0"/>
        <pt x="655" y="557" on="1"/>
        <pt x="565" y="557" on="1"/>
        <pt x="565" y="335" on="1"/>
        <pt x="740" y="335" on="1"/>
        <pt x="740" y="277" on="1"/>
        <pt x="565" y="277" on="1"/>
        <pt x="565" y="58" on="1"/>
        <pt x="670" y="58" on="1"/>
        <pt x="674" y="76" on="0"/>
        <pt x="694" y="126" on="0"/>
        <pt x="734" y="172" on="0"/>
        <pt x="800" y="205" on="0"/>
        <pt x="850" y="205" on="1"/>
        <pt x="850" y="0" on="1"/>
        <pt x="344" y="0" on="1"/>
        <pt x="266" y="0" on="0"/>
        <pt x="153" y="33" on="0"/>
        <pt x="80" y="107" on="0"/>
        <pt x="45" y="224" on="0"/>
        <pt x="45" y="307" on="1"/>
        <pt x="45" y="390" on="0"/>
        <pt x="80" y="507" on="0"/>
        <pt x="153" y="581" on="0"/>
        <pt x="266" y="615" on="0"/>
        <pt x="344" y="615" on="1"/>
      </contour>
      <contour>
        <pt x="344" y="52" on="1"/>
        <pt x="376" y="52" on="0"/>
        <pt x="397" y="55" on="1"/>
        <pt x="397" y="559" on="1"/>
        <pt x="386" y="560" on="0"/>
        <pt x="361" y="562" on="0"/>
        <pt x="344" y="562" on="1"/>
        <pt x="324" y="562" on="0"/>
        <pt x="294" y="559" on="0"/>
        <pt x="283" y="557" on="1"/>
        <pt x="271" y="555" on="0"/>
        <pt x="261" y="553" on="1"/>
        <pt x="252" y="521" on="0"/>
        <pt x="246" y="481" on="1"/>
        <pt x="241" y="447" on="0"/>
        <pt x="232" y="358" on="0"/>
        <pt x="232" y="307" on="1"/>
        <pt x="232" y="253" on="0"/>
        <pt x="241" y="164" on="0"/>
        <pt x="246" y="131" on="1"/>
        <pt x="252" y="92" on="0"/>
        <pt x="261" y="61" on="1"/>
        <pt x="271" y="58" on="0"/>
        <pt x="283" y="56" on="1"/>
        <pt x="294" y="54" on="0"/>
        <pt x="324" y="52" on="0"/>
      </contour>
    </TTGlyph>
    <TTGlyph name="Oacute" xMin="45" yMin="-15" xMax="645" yMax="853">
      <contour>
        <pt x="45" y="308" on="1"/>
        <pt x="45" y="395" on="0"/>
        <pt x="80" y="517" on="0"/>
        <pt x="153" y="595" on="0"/>
        <pt x="266" y="630" on="0"/>
        <pt x="344" y="630" on="1"/>
        <pt x="354" y="630" on="0"/>
        <pt x="372" y="629" on="0"/>
        <pt x="381" y="629" on="1"/>
        <pt x="441" y="629" on="1"/>
        <pt x="477" y="629" on="0"/>
        <pt x="533" y="633" on="0"/>
        <pt x="571" y="648" on="0"/>
        <pt x="591" y="676" on="0"/>
        <pt x="591" y="701" on="1"/>
        <pt x="645" y="701" on="1"/>
        <pt x="645" y="644" on="0"/>
        <pt x="589" y="595" on="0"/>
        <pt x="534" y="587" on="1"/>
        <pt x="591" y="551" on="0"/>
        <pt x="644" y="415" on="0"/>
        <pt x="644" y="308" on="1"/>
        <pt x="644" y="221" on="0"/>
        <pt x="609" y="98" on="0"/>
        <pt x="536" y="20" on="0"/>
        <pt x="422" y="-15" on="0"/>
        <pt x="344" y="-15" on="1"/>
        <pt x="266" y="-15" on="0"/>
        <pt x="153" y="20" on="0"/>
        <pt x="80" y="98" on="0"/>
        <pt x="45" y="221" on="0"/>
      </contour>
      <contour>
        <pt x="232" y="308" on="1"/>
        <pt x="232" y="251" on="0"/>
        <pt x="241" y="155" on="0"/>
        <pt x="246" y="120" on="1"/>
        <pt x="252" y="79" on="0"/>
        <pt x="261" y="44" on="1"/>
        <pt x="271" y="41" on="0"/>
        <pt x="283" y="39" on="1"/>
        <pt x="294" y="37" on="0"/>
        <pt x="324" y="35" on="0"/>
        <pt x="344" y="35" on="1"/>
        <pt x="364" y="35" on="0"/>
        <pt x="396" y="37" on="0"/>
        <pt x="407" y="39" on="1"/>
        <pt x="419" y="41" on="0"/>
        <pt x="428" y="44" on="1"/>
        <pt x="436" y="81" on="0"/>
        <pt x="442" y="123" on="1"/>
        <pt x="447" y="159" on="0"/>
        <pt x="457" y="254" on="0"/>
        <pt x="457" y="308" on="1"/>
        <pt x="457" y="364" on="0"/>
        <pt x="447" y="460" on="0"/>
        <pt x="442" y="495" on="1"/>
        <pt x="436" y="536" on="0"/>
        <pt x="428" y="571" on="1"/>
        <pt x="418" y="573" on="0"/>
        <pt x="406" y="575" on="1"/>
        <pt x="395" y="577" on="0"/>
        <pt x="364" y="580" on="0"/>
        <pt x="344" y="580" on="1"/>
        <pt x="324" y="580" on="0"/>
        <pt x="294" y="577" on="0"/>
        <pt x="283" y="575" on="1"/>
        <pt x="271" y="573" on="0"/>
        <pt x="261" y="571" on="1"/>
        <pt x="252" y="534" on="0"/>
        <pt x="246" y="492" on="1"/>
        <pt x="241" y="456" on="0"/>
        <pt x="232" y="361" on="0"/>
      </contour>
      <contour>
        <pt x="485" y="842" on="1"/>
        <pt x="505" y="853" on="0"/>
        <pt x="519" y="853" on="1"/>
        <pt x="527" y="853" on="0"/>
        <pt x="547" y="844" on="0"/>
        <pt x="565" y="828" on="0"/>
        <pt x="578" y="804" on="0"/>
        <pt x="578" y="789" on="1"/>
        <pt x="578" y="759" on="0"/>
        <pt x="553" y="739" on="1"/>
        <pt x="344" y="653" on="1"/>
        <pt x="322" y="682" on="1"/>
      </contour>
    </TTGlyph>
    <TTGlyph name="Ocircumflex" xMin="45" yMin="-15" xMax="644" yMax="869">
      <contour>
        <pt x="45" y="308" on="1"/>
        <pt x="45" y="395" on="0"/>
        <pt x="80" y="517" on="0"/>
        <pt x="153" y="595" on="0"/>
        <pt x="266" y="630" on="0"/>
        <pt x="344" y="630" on="1"/>
        <pt x="354" y="630" on="0"/>
        <pt x="372" y="629" on="0"/>
        <pt x="381" y="629" on="1"/>
        <pt x="405" y="629" on="0"/>
        <pt x="447" y="630" on="0"/>
        <pt x="478" y="637" on="0"/>
        <pt x="495" y="651" on="0"/>
        <pt x="495" y="663" on="1"/>
        <pt x="346" y="739" on="1"/>
        <pt x="188" y="652" on="1"/>
        <pt x="163" y="680" on="1"/>
        <pt x="301" y="846" on="1"/>
        <pt x="312" y="860" on="0"/>
        <pt x="332" y="869" on="0"/>
        <pt x="345" y="869" on="1"/>
        <pt x="368" y="869" on="0"/>
        <pt x="389" y="848" on="1"/>
        <pt x="532" y="707" on="1"/>
        <pt x="557" y="682" on="0"/>
        <pt x="557" y="653" on="1"/>
        <pt x="557" y="633" on="0"/>
        <pt x="535" y="604" on="0"/>
        <pt x="518" y="596" on="1"/>
        <pt x="583" y="562" on="0"/>
        <pt x="644" y="423" on="0"/>
        <pt x="644" y="308" on="1"/>
        <pt x="644" y="221" on="0"/>
        <pt x="609" y="98" on="0"/>
        <pt x="536" y="20" on="0"/>
        <pt x="422" y="-15" on="0"/>
        <pt x="344" y="-15" on="1"/>
        <pt x="266" y="-15" on="0"/>
        <pt x="153" y="20" on="0"/>
        <pt x="80" y="98" on="0"/>
        <pt x="45" y="221" on="0"/>
      </contour>
      <contour>
        <pt x="232" y="308" on="1"/>
        <pt x="232" y="251" on="0"/>
        <pt x="241" y="155" on="0"/>
        <pt x="246" y="120" on="1"/>
        <pt x="252" y="79" on="0"/>
        <pt x="261" y="44" on="1"/>
        <pt x="271" y="41" on="0"/>
        <pt x="283" y="39" on="1"/>
        <pt x="294" y="37" on="0"/>
        <pt x="324" y="35" on="0"/>
        <pt x="344" y="35" on="1"/>
        <pt x="364" y="35" on="0"/>
        <pt x="396" y="37" on="0"/>
        <pt x="407" y="39" on="1"/>
        <pt x="419" y="41" on="0"/>
        <pt x="428" y="44" on="1"/>
        <pt x="436" y="81" on="0"/>
        <pt x="442" y="123" on="1"/>
        <pt x="447" y="159" on="0"/>
        <pt x="457" y="254" on="0"/>
        <pt x="457" y="308" on="1"/>
        <pt x="457" y="364" on="0"/>
        <pt x="447" y="460" on="0"/>
        <pt x="442" y="495" on="1"/>
        <pt x="436" y="536" on="0"/>
        <pt x="428" y="571" on="1"/>
        <pt x="418" y="573" on="0"/>
        <pt x="406" y="575" on="1"/>
        <pt x="395" y="577" on="0"/>
        <pt x="364" y="580" on="0"/>
        <pt x="344" y="580" on="1"/>
        <pt x="324" y="580" on="0"/>
        <pt x="294" y="577" on="0"/>
        <pt x="283" y="575" on="1"/>
        <pt x="271" y="573" on="0"/>
        <pt x="261" y="571" on="1"/>
        <pt x="252" y="534" on="0"/>
        <pt x="246" y="492" on="1"/>
        <pt x="241" y="456" on="0"/>
        <pt x="232" y="361" on="0"/>
      </contour>
    </TTGlyph>
    <TTGlyph name="Odieresis" xMin="45" yMin="-15" xMax="645" yMax="838">
      <contour>
        <pt x="45" y="308" on="1"/>
        <pt x="45" y="395" on="0"/>
        <pt x="80" y="517" on="0"/>
        <pt x="153" y="595" on="0"/>
        <pt x="266" y="630" on="0"/>
        <pt x="344" y="630" on="1"/>
        <pt x="354" y="630" on="0"/>
        <pt x="372" y="629" on="0"/>
        <pt x="381" y="629" on="1"/>
        <pt x="441" y="629" on="1"/>
        <pt x="477" y="629" on="0"/>
        <pt x="533" y="633" on="0"/>
        <pt x="571" y="648" on="0"/>
        <pt x="591" y="676" on="0"/>
        <pt x="591" y="701" on="1"/>
        <pt x="645" y="701" on="1"/>
        <pt x="645" y="644" on="0"/>
        <pt x="589" y="595" on="0"/>
        <pt x="534" y="587" on="1"/>
        <pt x="591" y="551" on="0"/>
        <pt x="644" y="415" on="0"/>
        <pt x="644" y="308" on="1"/>
        <pt x="644" y="221" on="0"/>
        <pt x="609" y="98" on="0"/>
        <pt x="536" y="20" on="0"/>
        <pt x="422" y="-15" on="0"/>
        <pt x="344" y="-15" on="1"/>
        <pt x="266" y="-15" on="0"/>
        <pt x="153" y="20" on="0"/>
        <pt x="80" y="98" on="0"/>
        <pt x="45" y="221" on="0"/>
      </contour>
      <contour>
        <pt x="232" y="308" on="1"/>
        <pt x="232" y="251" on="0"/>
        <pt x="241" y="155" on="0"/>
        <pt x="246" y="120" on="1"/>
        <pt x="252" y="79" on="0"/>
        <pt x="261" y="44" on="1"/>
        <pt x="271" y="41" on="0"/>
        <pt x="283" y="39" on="1"/>
        <pt x="294" y="37" on="0"/>
        <pt x="324" y="35" on="0"/>
        <pt x="344" y="35" on="1"/>
        <pt x="364" y="35" on="0"/>
        <pt x="396" y="37" on="0"/>
        <pt x="407" y="39" on="1"/>
        <pt x="419" y="41" on="0"/>
        <pt x="428" y="44" on="1"/>
        <pt x="436" y="81" on="0"/>
        <pt x="442" y="123" on="1"/>
        <pt x="447" y="159" on="0"/>
        <pt x="457" y="254" on="0"/>
        <pt x="457" y="308" on="1"/>
        <pt x="457" y="364" on="0"/>
        <pt x="447" y="460" on="0"/>
        <pt x="442" y="495" on="1"/>
        <pt x="436" y="536" on="0"/>
        <pt x="428" y="571" on="1"/>
        <pt x="418" y="573" on="0"/>
        <pt x="406" y="575" on="1"/>
        <pt x="395" y="577" on="0"/>
        <pt x="364" y="580" on="0"/>
        <pt x="344" y="580" on="1"/>
        <pt x="324" y="580" on="0"/>
        <pt x="294" y="577" on="0"/>
        <pt x="283" y="575" on="1"/>
        <pt x="271" y="573" on="0"/>
        <pt x="261" y="571" on="1"/>
        <pt x="252" y="534" on="0"/>
        <pt x="246" y="492" on="1"/>
        <pt x="241" y="456" on="0"/>
        <pt x="232" y="361" on="0"/>
      </contour>
      <contour>
        <pt x="171" y="763" on="1"/>
        <pt x="171" y="801" on="0"/>
        <pt x="204" y="838" on="0"/>
        <pt x="242" y="838" on="1"/>
        <pt x="283" y="838" on="0"/>
        <pt x="313" y="801" on="0"/>
        <pt x="313" y="763" on="1"/>
        <pt x="313" y="725" on="0"/>
        <pt x="280" y="689" on="0"/>
        <pt x="242" y="689" on="1"/>
        <pt x="204" y="689" on="0"/>
        <pt x="171" y="725" on="0"/>
      </contour>
      <contour>
        <pt x="376" y="763" on="1"/>
        <pt x="376" y="801" on="0"/>
        <pt x="409" y="838" on="0"/>
        <pt x="447" y="838" on="1"/>
        <pt x="488" y="838" on="0"/>
        <pt x="518" y="801" on="0"/>
        <pt x="518" y="763" on="1"/>
        <pt x="518" y="725" on="0"/>
        <pt x="485" y="689" on="0"/>
        <pt x="447" y="689" on="1"/>
        <pt x="409" y="689" on="0"/>
        <pt x="376" y="725" on="0"/>
      </contour>
    </TTGlyph>
    <TTGlyph name="Ograve" xMin="45" yMin="-15" xMax="645" yMax="853">
      <contour>
        <pt x="45" y="308" on="1"/>
        <pt x="45" y="395" on="0"/>
        <pt x="80" y="517" on="0"/>
        <pt x="153" y="595" on="0"/>
        <pt x="266" y="630" on="0"/>
        <pt x="344" y="630" on="1"/>
        <pt x="354" y="630" on="0"/>
        <pt x="372" y="629" on="0"/>
        <pt x="381" y="629" on="1"/>
        <pt x="441" y="629" on="1"/>
        <pt x="477" y="629" on="0"/>
        <pt x="533" y="633" on="0"/>
        <pt x="571" y="648" on="0"/>
        <pt x="591" y="676" on="0"/>
        <pt x="591" y="701" on="1"/>
        <pt x="645" y="701" on="1"/>
        <pt x="645" y="644" on="0"/>
        <pt x="589" y="595" on="0"/>
        <pt x="534" y="587" on="1"/>
        <pt x="591" y="551" on="0"/>
        <pt x="644" y="415" on="0"/>
        <pt x="644" y="308" on="1"/>
        <pt x="644" y="221" on="0"/>
        <pt x="609" y="98" on="0"/>
        <pt x="536" y="20" on="0"/>
        <pt x="422" y="-15" on="0"/>
        <pt x="344" y="-15" on="1"/>
        <pt x="266" y="-15" on="0"/>
        <pt x="153" y="20" on="0"/>
        <pt x="80" y="98" on="0"/>
        <pt x="45" y="221" on="0"/>
      </contour>
      <contour>
        <pt x="232" y="308" on="1"/>
        <pt x="232" y="251" on="0"/>
        <pt x="241" y="155" on="0"/>
        <pt x="246" y="120" on="1"/>
        <pt x="252" y="79" on="0"/>
        <pt x="261" y="44" on="1"/>
        <pt x="271" y="41" on="0"/>
        <pt x="283" y="39" on="1"/>
        <pt x="294" y="37" on="0"/>
        <pt x="324" y="35" on="0"/>
        <pt x="344" y="35" on="1"/>
        <pt x="364" y="35" on="0"/>
        <pt x="396" y="37" on="0"/>
        <pt x="407" y="39" on="1"/>
        <pt x="419" y="41" on="0"/>
        <pt x="428" y="44" on="1"/>
        <pt x="436" y="81" on="0"/>
        <pt x="442" y="123" on="1"/>
        <pt x="447" y="159" on="0"/>
        <pt x="457" y="254" on="0"/>
        <pt x="457" y="308" on="1"/>
        <pt x="457" y="364" on="0"/>
        <pt x="447" y="460" on="0"/>
        <pt x="442" y="495" on="1"/>
        <pt x="436" y="536" on="0"/>
        <pt x="428" y="571" on="1"/>
        <pt x="418" y="573" on="0"/>
        <pt x="406" y="575" on="1"/>
        <pt x="395" y="577" on="0"/>
        <pt x="364" y="580" on="0"/>
        <pt x="344" y="580" on="1"/>
        <pt x="324" y="580" on="0"/>
        <pt x="294" y="577" on="0"/>
        <pt x="283" y="575" on="1"/>
        <pt x="271" y="573" on="0"/>
        <pt x="261" y="571" on="1"/>
        <pt x="252" y="534" on="0"/>
        <pt x="246" y="492" on="1"/>
        <pt x="241" y="456" on="0"/>
        <pt x="232" y="361" on="0"/>
      </contour>
      <contour>
        <pt x="366" y="682" on="1"/>
        <pt x="344" y="653" on="1"/>
        <pt x="135" y="739" on="1"/>
        <pt x="110" y="759" on="0"/>
        <pt x="110" y="789" on="1"/>
        <pt x="110" y="804" on="0"/>
        <pt x="122" y="828" on="0"/>
        <pt x="140" y="844" on="0"/>
        <pt x="161" y="853" on="0"/>
        <pt x="169" y="853" on="1"/>
        <pt x="183" y="853" on="0"/>
        <pt x="203" y="842" on="1"/>
      </contour>
    </TTGlyph>
    <TTGlyph name="Oslash" xMin="45" yMin="-35" xMax="644" yMax="651">
      <contour>
        <pt x="508" y="601" on="1"/>
        <pt x="579" y="569" on="0"/>
        <pt x="644" y="427" on="0"/>
        <pt x="644" y="308" on="1"/>
        <pt x="644" y="221" on="0"/>
        <pt x="609" y="98" on="0"/>
        <pt x="536" y="20" on="0"/>
        <pt x="422" y="-15" on="0"/>
        <pt x="344" y="-15" on="1"/>
        <pt x="282" y="-15" on="0"/>
        <pt x="238" y="-5" on="1"/>
        <pt x="225" y="-35" on="1"/>
        <pt x="157" y="-35" on="1"/>
        <pt x="179" y="14" on="1"/>
        <pt x="110" y="46" on="0"/>
        <pt x="45" y="189" on="0"/>
        <pt x="45" y="308" on="1"/>
        <pt x="45" y="395" on="0"/>
        <pt x="80" y="517" on="0"/>
        <pt x="153" y="595" on="0"/>
        <pt x="266" y="630" on="0"/>
        <pt x="344" y="630" on="1"/>
        <pt x="373" y="630" on="0"/>
        <pt x="426" y="625" on="0"/>
        <pt x="449" y="620" on="1"/>
        <pt x="463" y="651" on="1"/>
        <pt x="531" y="651" on="1"/>
      </contour>
      <contour>
        <pt x="428" y="44" on="1"/>
        <pt x="436" y="81" on="0"/>
        <pt x="442" y="123" on="1"/>
        <pt x="447" y="159" on="0"/>
        <pt x="457" y="254" on="0"/>
        <pt x="457" y="308" on="1"/>
        <pt x="457" y="485" on="1"/>
        <pt x="260" y="44" on="1"/>
        <pt x="277" y="41" on="0"/>
        <pt x="321" y="35" on="0"/>
        <pt x="344" y="35" on="1"/>
        <pt x="364" y="35" on="0"/>
        <pt x="396" y="37" on="0"/>
        <pt x="407" y="39" on="1"/>
        <pt x="419" y="41" on="0"/>
      </contour>
      <contour>
        <pt x="232" y="133" on="1"/>
        <pt x="427" y="571" on="1"/>
        <pt x="410" y="574" on="0"/>
        <pt x="367" y="580" on="0"/>
        <pt x="344" y="580" on="1"/>
        <pt x="324" y="580" on="0"/>
        <pt x="294" y="577" on="0"/>
        <pt x="283" y="575" on="1"/>
        <pt x="271" y="573" on="0"/>
        <pt x="261" y="571" on="1"/>
        <pt x="252" y="534" on="0"/>
        <pt x="246" y="492" on="1"/>
        <pt x="241" y="456" on="0"/>
        <pt x="232" y="361" on="0"/>
        <pt x="232" y="308" on="1"/>
      </contour>
    </TTGlyph>
    <TTGlyph name="Otilde" xMin="45" yMin="-15" xMax="645" yMax="797">
      <contour>
        <pt x="45" y="308" on="1"/>
        <pt x="45" y="395" on="0"/>
        <pt x="80" y="517" on="0"/>
        <pt x="153" y="595" on="0"/>
        <pt x="266" y="630" on="0"/>
        <pt x="344" y="630" on="1"/>
        <pt x="354" y="630" on="0"/>
        <pt x="372" y="629" on="0"/>
        <pt x="381" y="629" on="1"/>
        <pt x="441" y="629" on="1"/>
        <pt x="477" y="629" on="0"/>
        <pt x="533" y="633" on="0"/>
        <pt x="571" y="648" on="0"/>
        <pt x="591" y="676" on="0"/>
        <pt x="591" y="701" on="1"/>
        <pt x="645" y="701" on="1"/>
        <pt x="645" y="644" on="0"/>
        <pt x="589" y="595" on="0"/>
        <pt x="534" y="587" on="1"/>
        <pt x="591" y="551" on="0"/>
        <pt x="644" y="415" on="0"/>
        <pt x="644" y="308" on="1"/>
        <pt x="644" y="221" on="0"/>
        <pt x="609" y="98" on="0"/>
        <pt x="536" y="20" on="0"/>
        <pt x="422" y="-15" on="0"/>
        <pt x="344" y="-15" on="1"/>
        <pt x="266" y="-15" on="0"/>
        <pt x="153" y="20" on="0"/>
        <pt x="80" y="98" on="0"/>
        <pt x="45" y="221" on="0"/>
      </contour>
      <contour>
        <pt x="232" y="308" on="1"/>
        <pt x="232" y="251" on="0"/>
        <pt x="241" y="155" on="0"/>
        <pt x="246" y="120" on="1"/>
        <pt x="252" y="79" on="0"/>
        <pt x="261" y="44" on="1"/>
        <pt x="271" y="41" on="0"/>
        <pt x="283" y="39" on="1"/>
        <pt x="294" y="37" on="0"/>
        <pt x="324" y="35" on="0"/>
        <pt x="344" y="35" on="1"/>
        <pt x="364" y="35" on="0"/>
        <pt x="396" y="37" on="0"/>
        <pt x="407" y="39" on="1"/>
        <pt x="419" y="41" on="0"/>
        <pt x="428" y="44" on="1"/>
        <pt x="436" y="81" on="0"/>
        <pt x="442" y="123" on="1"/>
        <pt x="447" y="159" on="0"/>
        <pt x="457" y="254" on="0"/>
        <pt x="457" y="308" on="1"/>
        <pt x="457" y="364" on="0"/>
        <pt x="447" y="460" on="0"/>
        <pt x="442" y="495" on="1"/>
        <pt x="436" y="536" on="0"/>
        <pt x="428" y="571" on="1"/>
        <pt x="418" y="573" on="0"/>
        <pt x="406" y="575" on="1"/>
        <pt x="395" y="577" on="0"/>
        <pt x="364" y="580" on="0"/>
        <pt x="344" y="580" on="1"/>
        <pt x="324" y="580" on="0"/>
        <pt x="294" y="577" on="0"/>
        <pt x="283" y="575" on="1"/>
        <pt x="271" y="573" on="0"/>
        <pt x="261" y="571" on="1"/>
        <pt x="252" y="534" on="0"/>
        <pt x="246" y="492" on="1"/>
        <pt x="241" y="456" on="0"/>
        <pt x="232" y="361" on="0"/>
      </contour>
      <contour>
        <pt x="198" y="723" on="1"/>
        <pt x="208" y="764" on="0"/>
        <pt x="249" y="796" on="0"/>
        <pt x="280" y="796" on="1"/>
        <pt x="296" y="796" on="0"/>
        <pt x="328" y="785" on="0"/>
        <pt x="359" y="772" on="0"/>
        <pt x="389" y="761" on="0"/>
        <pt x="403" y="761" on="1"/>
        <pt x="420" y="761" on="0"/>
        <pt x="437" y="782" on="0"/>
        <pt x="442" y="797" on="1"/>
        <pt x="491" y="776" on="1"/>
        <pt x="481" y="735" on="0"/>
        <pt x="440" y="703" on="0"/>
        <pt x="410" y="703" on="1"/>
        <pt x="393" y="703" on="0"/>
        <pt x="361" y="714" on="0"/>
        <pt x="330" y="727" on="0"/>
        <pt x="300" y="738" on="0"/>
        <pt x="286" y="738" on="1"/>
        <pt x="269" y="738" on="0"/>
        <pt x="252" y="717" on="0"/>
        <pt x="247" y="702" on="1"/>
      </contour>
    </TTGlyph>
    <TTGlyph name="P" xMin="25" yMin="0" xMax="594" yMax="617">
      <contour>
        <pt x="261" y="615" on="1"/>
        <pt x="272" y="615" on="0"/>
        <pt x="298" y="616" on="0"/>
        <pt x="321" y="616" on="0"/>
        <pt x="338" y="617" on="0"/>
        <pt x="341" y="617" on="1"/>
        <pt x="470" y="617" on="0"/>
        <pt x="594" y="533" on="0"/>
        <pt x="594" y="431" on="1"/>
        <pt x="594" y="330" on="0"/>
        <pt x="471" y="246" on="0"/>
        <pt x="341" y="246" on="1"/>
        <pt x="313" y="246" on="1"/>
        <pt x="298" y="246" on="0"/>
        <pt x="282" y="247" on="1"/>
        <pt x="282" y="58" on="1"/>
        <pt x="371" y="58" on="1"/>
        <pt x="371" y="0" on="1"/>
        <pt x="25" y="0" on="1"/>
        <pt x="25" y="58" on="1"/>
        <pt x="114" y="58" on="1"/>
        <pt x="114" y="557" on="1"/>
        <pt x="25" y="557" on="1"/>
        <pt x="25" y="615" on="1"/>
      </contour>
      <contour>
        <pt x="341" y="566" on="1"/>
        <pt x="324" y="566" on="0"/>
        <pt x="294" y="564" on="0"/>
        <pt x="282" y="562" on="1"/>
        <pt x="282" y="302" on="1"/>
        <pt x="307" y="299" on="0"/>
        <pt x="341" y="299" on="1"/>
        <pt x="364" y="299" on="0"/>
        <pt x="378" y="302" on="1"/>
        <pt x="386" y="303" on="0"/>
        <pt x="392" y="305" on="1"/>
        <pt x="396" y="319" on="0"/>
        <pt x="400" y="337" on="1"/>
        <pt x="403" y="353" on="0"/>
        <pt x="408" y="400" on="0"/>
        <pt x="408" y="430" on="1"/>
        <pt x="408" y="461" on="0"/>
        <pt x="403" y="509" on="0"/>
        <pt x="400" y="526" on="1"/>
        <pt x="396" y="545" on="0"/>
        <pt x="392" y="560" on="1"/>
        <pt x="386" y="561" on="0"/>
        <pt x="378" y="563" on="1"/>
        <pt x="371" y="564" on="0"/>
        <pt x="352" y="566" on="0"/>
      </contour>
    </TTGlyph>
    <TTGlyph name="Q" xMin="45" yMin="-166" xMax="644" yMax="630">
      <contour>
        <pt x="45" y="308" on="1"/>
        <pt x="45" y="395" on="0"/>
        <pt x="80" y="517" on="0"/>
        <pt x="153" y="595" on="0"/>
        <pt x="266" y="630" on="0"/>
        <pt x="344" y="630" on="1"/>
        <pt x="422" y="630" on="0"/>
        <pt x="536" y="595" on="0"/>
        <pt x="609" y="517" on="0"/>
        <pt x="644" y="395" on="0"/>
        <pt x="644" y="308" on="1"/>
        <pt x="644" y="225" on="0"/>
        <pt x="612" y="106" on="0"/>
        <pt x="546" y="28" on="0"/>
        <pt x="444" y="-11" on="0"/>
        <pt x="374" y="-14" on="1"/>
        <pt x="374" y="-78" on="1"/>
        <pt x="374" y="-99" on="0"/>
        <pt x="393" y="-115" on="0"/>
        <pt x="407" y="-115" on="1"/>
        <pt x="425" y="-115" on="0"/>
        <pt x="438" y="-93" on="0"/>
        <pt x="438" y="-81" on="1"/>
        <pt x="438" y="-50" on="1"/>
        <pt x="496" y="-50" on="1"/>
        <pt x="496" y="-80" on="1"/>
        <pt x="496" y="-91" on="0"/>
        <pt x="489" y="-120" on="0"/>
        <pt x="470" y="-147" on="0"/>
        <pt x="435" y="-166" on="0"/>
        <pt x="407" y="-166" on="1"/>
        <pt x="359" y="-166" on="0"/>
        <pt x="316" y="-119" on="0"/>
        <pt x="316" y="-78" on="1"/>
        <pt x="316" y="-14" on="1"/>
        <pt x="245" y="-11" on="0"/>
        <pt x="143" y="28" on="0"/>
        <pt x="77" y="105" on="0"/>
        <pt x="45" y="224" on="0"/>
      </contour>
      <contour>
        <pt x="374" y="138" on="1"/>
        <pt x="374" y="36" on="1"/>
        <pt x="398" y="37" on="0"/>
        <pt x="414" y="41" on="1"/>
        <pt x="422" y="43" on="0"/>
        <pt x="428" y="44" on="1"/>
        <pt x="436" y="81" on="0"/>
        <pt x="442" y="123" on="1"/>
        <pt x="447" y="159" on="0"/>
        <pt x="457" y="254" on="0"/>
        <pt x="457" y="308" on="1"/>
        <pt x="457" y="364" on="0"/>
        <pt x="447" y="460" on="0"/>
        <pt x="442" y="495" on="1"/>
        <pt x="436" y="536" on="0"/>
        <pt x="428" y="571" on="1"/>
        <pt x="418" y="573" on="0"/>
        <pt x="406" y="575" on="1"/>
        <pt x="395" y="577" on="0"/>
        <pt x="364" y="580" on="0"/>
        <pt x="344" y="580" on="1"/>
        <pt x="324" y="580" on="0"/>
        <pt x="294" y="577" on="0"/>
        <pt x="283" y="575" on="1"/>
        <pt x="271" y="573" on="0"/>
        <pt x="261" y="571" on="1"/>
        <pt x="252" y="534" on="0"/>
        <pt x="246" y="492" on="1"/>
        <pt x="241" y="456" on="0"/>
        <pt x="232" y="361" on="0"/>
        <pt x="232" y="308" on="1"/>
        <pt x="232" y="251" on="0"/>
        <pt x="241" y="155" on="0"/>
        <pt x="246" y="120" on="1"/>
        <pt x="252" y="79" on="0"/>
        <pt x="261" y="44" on="1"/>
        <pt x="267" y="43" on="0"/>
        <pt x="275" y="41" on="1"/>
        <pt x="282" y="39" on="0"/>
        <pt x="302" y="36" on="0"/>
        <pt x="316" y="35" on="1"/>
        <pt x="316" y="138" on="1"/>
      </contour>
    </TTGlyph>
    <TTGlyph name="R" xMin="25" yMin="0" xMax="648" yMax="617">
      <contour>
        <pt x="114" y="58" on="1"/>
        <pt x="114" y="557" on="1"/>
        <pt x="25" y="557" on="1"/>
        <pt x="25" y="615" on="1"/>
        <pt x="255" y="615" on="1"/>
        <pt x="273" y="615" on="0"/>
        <pt x="316" y="617" on="0"/>
        <pt x="321" y="617" on="1"/>
        <pt x="451" y="617" on="0"/>
        <pt x="573" y="533" on="0"/>
        <pt x="573" y="448" on="1"/>
        <pt x="573" y="389" on="0"/>
        <pt x="516" y="320" on="0"/>
        <pt x="473" y="303" on="1"/>
        <pt x="648" y="21" on="1"/>
        <pt x="648" y="0" on="1"/>
        <pt x="464" y="0" on="1"/>
        <pt x="299" y="280" on="1"/>
        <pt x="282" y="280" on="1"/>
        <pt x="282" y="58" on="1"/>
        <pt x="351" y="58" on="1"/>
        <pt x="351" y="0" on="1"/>
        <pt x="25" y="0" on="1"/>
        <pt x="25" y="58" on="1"/>
      </contour>
      <contour>
        <pt x="321" y="566" on="1"/>
        <pt x="300" y="566" on="0"/>
        <pt x="282" y="563" on="1"/>
        <pt x="282" y="325" on="1"/>
        <pt x="385" y="325" on="1"/>
        <pt x="387" y="343" on="0"/>
        <pt x="389" y="363" on="1"/>
        <pt x="391" y="380" on="0"/>
        <pt x="394" y="423" on="0"/>
        <pt x="394" y="446" on="1"/>
        <pt x="394" y="469" on="0"/>
        <pt x="389" y="511" on="0"/>
        <pt x="386" y="527" on="1"/>
        <pt x="382" y="545" on="0"/>
        <pt x="379" y="562" on="1"/>
        <pt x="372" y="563" on="0"/>
        <pt x="362" y="564" on="1"/>
        <pt x="354" y="565" on="0"/>
        <pt x="332" y="566" on="0"/>
      </contour>
    </TTGlyph>
    <TTGlyph name="S" xMin="50" yMin="-15" xMax="508" yMax="629">
      <contour>
        <pt x="287" y="626" on="1"/>
        <pt x="319" y="626" on="0"/>
        <pt x="372" y="617" on="0"/>
        <pt x="392" y="610" on="1"/>
        <pt x="486" y="629" on="1"/>
        <pt x="486" y="425" on="1"/>
        <pt x="414" y="427" on="0"/>
        <pt x="326" y="505" on="0"/>
        <pt x="319" y="573" on="1"/>
        <pt x="299" y="577" on="0"/>
        <pt x="272" y="577" on="1"/>
        <pt x="262" y="577" on="0"/>
        <pt x="249" y="575" on="0"/>
        <pt x="244" y="574" on="1"/>
        <pt x="234" y="572" on="1"/>
        <pt x="230" y="564" on="0"/>
        <pt x="227" y="553" on="1"/>
        <pt x="225" y="544" on="0"/>
        <pt x="221" y="519" on="0"/>
        <pt x="221" y="504" on="1"/>
        <pt x="221" y="451" on="0"/>
        <pt x="268" y="401" on="0"/>
        <pt x="321" y="384" on="1"/>
        <pt x="352" y="373" on="0"/>
        <pt x="418" y="340" on="0"/>
        <pt x="473" y="292" on="0"/>
        <pt x="508" y="227" on="0"/>
        <pt x="508" y="186" on="1"/>
        <pt x="508" y="82" on="0"/>
        <pt x="380" y="-15" on="0"/>
        <pt x="265" y="-15" on="1"/>
        <pt x="216" y="-15" on="0"/>
        <pt x="158" y="-4" on="0"/>
        <pt x="142" y="1" on="1"/>
        <pt x="58" y="-15" on="1"/>
        <pt x="58" y="209" on="1"/>
        <pt x="97" y="208" on="0"/>
        <pt x="157" y="181" on="0"/>
        <pt x="199" y="135" on="0"/>
        <pt x="223" y="73" on="0"/>
        <pt x="225" y="36" on="1"/>
        <pt x="233" y="35" on="0"/>
        <pt x="240" y="35" on="1"/>
        <pt x="257" y="35" on="1"/>
        <pt x="267" y="35" on="0"/>
        <pt x="290" y="36" on="0"/>
        <pt x="300" y="37" on="1"/>
        <pt x="311" y="38" on="0"/>
        <pt x="323" y="39" on="1"/>
        <pt x="326" y="46" on="0"/>
        <pt x="329" y="57" on="1"/>
        <pt x="331" y="66" on="0"/>
        <pt x="335" y="94" on="0"/>
        <pt x="335" y="114" on="1"/>
        <pt x="335" y="158" on="0"/>
        <pt x="293" y="211" on="0"/>
        <pt x="229" y="249" on="0"/>
        <pt x="156" y="281" on="0"/>
        <pt x="92" y="325" on="0"/>
        <pt x="50" y="391" on="0"/>
        <pt x="50" y="444" on="1"/>
        <pt x="50" y="483" on="0"/>
        <pt x="74" y="549" on="0"/>
        <pt x="129" y="598" on="0"/>
        <pt x="220" y="626" on="0"/>
      </contour>
    </TTGlyph>
    <TTGlyph name="T" xMin="35" yMin="0" xMax="623" yMax="615">
      <contour>
        <pt x="623" y="615" on="1"/>
        <pt x="623" y="426" on="1"/>
        <pt x="574" y="426" on="0"/>
        <pt x="515" y="455" on="0"/>
        <pt x="482" y="495" on="0"/>
        <pt x="470" y="540" on="0"/>
        <pt x="469" y="557" on="1"/>
        <pt x="413" y="557" on="1"/>
        <pt x="413" y="58" on="1"/>
        <pt x="502" y="58" on="1"/>
        <pt x="502" y="0" on="1"/>
        <pt x="156" y="0" on="1"/>
        <pt x="156" y="58" on="1"/>
        <pt x="245" y="58" on="1"/>
        <pt x="245" y="557" on="1"/>
        <pt x="188" y="557" on="1"/>
        <pt x="187" y="540" on="0"/>
        <pt x="176" y="495" on="0"/>
        <pt x="143" y="455" on="0"/>
        <pt x="83" y="426" on="0"/>
        <pt x="35" y="426" on="1"/>
        <pt x="35" y="615" on="1"/>
      </contour>
    </TTGlyph>
    <TTGlyph name="Thorn" xMin="25" yMin="0" xMax="593" yMax="615">
      <contour>
        <pt x="114" y="58" on="1"/>
        <pt x="114" y="557" on="1"/>
        <pt x="25" y="557" on="1"/>
        <pt x="25" y="615" on="1"/>
        <pt x="371" y="615" on="1"/>
        <pt x="371" y="557" on="1"/>
        <pt x="282" y="557" on="1"/>
        <pt x="282" y="510" on="1"/>
        <pt x="293" y="511" on="0"/>
        <pt x="327" y="512" on="0"/>
        <pt x="340" y="512" on="1"/>
        <pt x="469" y="512" on="0"/>
        <pt x="593" y="428" on="0"/>
        <pt x="593" y="326" on="1"/>
        <pt x="593" y="225" on="0"/>
        <pt x="470" y="141" on="0"/>
        <pt x="340" y="141" on="1"/>
        <pt x="313" y="141" on="1"/>
        <pt x="297" y="141" on="0"/>
        <pt x="282" y="142" on="1"/>
        <pt x="282" y="58" on="1"/>
        <pt x="371" y="58" on="1"/>
        <pt x="371" y="0" on="1"/>
        <pt x="25" y="0" on="1"/>
        <pt x="25" y="58" on="1"/>
      </contour>
      <contour>
        <pt x="340" y="454" on="1"/>
        <pt x="323" y="454" on="0"/>
        <pt x="294" y="452" on="0"/>
        <pt x="282" y="450" on="1"/>
        <pt x="282" y="202" on="1"/>
        <pt x="306" y="199" on="0"/>
        <pt x="340" y="199" on="1"/>
        <pt x="363" y="199" on="0"/>
        <pt x="377" y="202" on="1"/>
        <pt x="385" y="203" on="0"/>
        <pt x="391" y="205" on="1"/>
        <pt x="395" y="217" on="0"/>
        <pt x="399" y="235" on="1"/>
        <pt x="402" y="250" on="0"/>
        <pt x="407" y="295" on="0"/>
        <pt x="407" y="325" on="1"/>
        <pt x="407" y="356" on="0"/>
        <pt x="402" y="401" on="0"/>
        <pt x="399" y="417" on="1"/>
        <pt x="395" y="435" on="0"/>
        <pt x="391" y="448" on="1"/>
        <pt x="385" y="449" on="0"/>
        <pt x="377" y="451" on="1"/>
        <pt x="370" y="452" on="0"/>
        <pt x="351" y="454" on="0"/>
      </contour>
    </TTGlyph>
    <TTGlyph name="U" xMin="20" yMin="-15" xMax="661" yMax="615">
      <contour>
        <pt x="109" y="557" on="1"/>
        <pt x="20" y="557" on="1"/>
        <pt x="20" y="615" on="1"/>
        <pt x="277" y="615" on="1"/>
        <pt x="277" y="140" on="1"/>
        <pt x="277" y="123" on="0"/>
        <pt x="281" y="88" on="0"/>
        <pt x="284" y="74" on="1"/>
        <pt x="287" y="57" on="0"/>
        <pt x="291" y="42" on="1"/>
        <pt x="294" y="40" on="0"/>
        <pt x="305" y="39" on="1"/>
        <pt x="313" y="38" on="0"/>
        <pt x="345" y="37" on="0"/>
        <pt x="371" y="37" on="1"/>
        <pt x="430" y="37" on="0"/>
        <pt x="499" y="79" on="0"/>
        <pt x="499" y="130" on="1"/>
        <pt x="499" y="557" on="1"/>
        <pt x="395" y="557" on="1"/>
        <pt x="395" y="615" on="1"/>
        <pt x="661" y="615" on="1"/>
        <pt x="661" y="557" on="1"/>
        <pt x="562" y="557" on="1"/>
        <pt x="562" y="130" on="1"/>
        <pt x="562" y="86" on="0"/>
        <pt x="526" y="30" on="0"/>
        <pt x="466" y="-2" on="0"/>
        <pt x="387" y="-15" on="0"/>
        <pt x="344" y="-15" on="1"/>
        <pt x="291" y="-15" on="0"/>
        <pt x="204" y="-3" on="0"/>
        <pt x="142" y="30" on="0"/>
        <pt x="109" y="86" on="0"/>
        <pt x="109" y="130" on="1"/>
      </contour>
    </TTGlyph>
    <TTGlyph name="Uacute" xMin="20" yMin="-15" xMax="661" yMax="853">
      <contour>
        <pt x="109" y="557" on="1"/>
        <pt x="20" y="557" on="1"/>
        <pt x="20" y="615" on="1"/>
        <pt x="277" y="615" on="1"/>
        <pt x="277" y="140" on="1"/>
        <pt x="277" y="123" on="0"/>
        <pt x="281" y="88" on="0"/>
        <pt x="284" y="74" on="1"/>
        <pt x="287" y="57" on="0"/>
        <pt x="291" y="42" on="1"/>
        <pt x="294" y="40" on="0"/>
        <pt x="305" y="39" on="1"/>
        <pt x="313" y="38" on="0"/>
        <pt x="345" y="37" on="0"/>
        <pt x="371" y="37" on="1"/>
        <pt x="430" y="37" on="0"/>
        <pt x="499" y="79" on="0"/>
        <pt x="499" y="130" on="1"/>
        <pt x="499" y="557" on="1"/>
        <pt x="395" y="557" on="1"/>
        <pt x="395" y="615" on="1"/>
        <pt x="661" y="615" on="1"/>
        <pt x="661" y="557" on="1"/>
        <pt x="562" y="557" on="1"/>
        <pt x="562" y="130" on="1"/>
        <pt x="562" y="86" on="0"/>
        <pt x="526" y="30" on="0"/>
        <pt x="466" y="-2" on="0"/>
        <pt x="387" y="-15" on="0"/>
        <pt x="344" y="-15" on="1"/>
        <pt x="291" y="-15" on="0"/>
        <pt x="204" y="-3" on="0"/>
        <pt x="142" y="30" on="0"/>
        <pt x="109" y="86" on="0"/>
        <pt x="109" y="130" on="1"/>
      </contour>
      <contour>
        <pt x="510" y="842" on="1"/>
        <pt x="530" y="853" on="0"/>
        <pt x="544" y="853" on="1"/>
        <pt x="552" y="853" on="0"/>
        <pt x="572" y="844" on="0"/>
        <pt x="590" y="828" on="0"/>
        <pt x="603" y="804" on="0"/>
        <pt x="603" y="789" on="1"/>
        <pt x="603" y="759" on="0"/>
        <pt x="578" y="739" on="1"/>
        <pt x="369" y="653" on="1"/>
        <pt x="347" y="682" on="1"/>
      </contour>
    </TTGlyph>
    <TTGlyph name="Ucircumflex" xMin="20" yMin="-15" xMax="661" yMax="853">
      <contour>
        <pt x="109" y="557" on="1"/>
        <pt x="20" y="557" on="1"/>
        <pt x="20" y="615" on="1"/>
        <pt x="277" y="615" on="1"/>
        <pt x="277" y="140" on="1"/>
        <pt x="277" y="123" on="0"/>
        <pt x="281" y="88" on="0"/>
        <pt x="284" y="74" on="1"/>
        <pt x="287" y="57" on="0"/>
        <pt x="291" y="42" on="1"/>
        <pt x="294" y="40" on="0"/>
        <pt x="305" y="39" on="1"/>
        <pt x="313" y="38" on="0"/>
        <pt x="345" y="37" on="0"/>
        <pt x="371" y="37" on="1"/>
        <pt x="430" y="37" on="0"/>
        <pt x="499" y="79" on="0"/>
        <pt x="499" y="130" on="1"/>
        <pt x="499" y="557" on="1"/>
        <pt x="395" y="557" on="1"/>
        <pt x="395" y="615" on="1"/>
        <pt x="661" y="615" on="1"/>
        <pt x="661" y="557" on="1"/>
        <pt x="562" y="557" on="1"/>
        <pt x="562" y="130" on="1"/>
        <pt x="562" y="86" on="0"/>
        <pt x="526" y="30" on="0"/>
        <pt x="466" y="-2" on="0"/>
        <pt x="387" y="-15" on="0"/>
        <pt x="344" y="-15" on="1"/>
        <pt x="291" y="-15" on="0"/>
        <pt x="204" y="-3" on="0"/>
        <pt x="142" y="30" on="0"/>
        <pt x="109" y="86" on="0"/>
        <pt x="109" y="130" on="1"/>
      </contour>
      <contour>
        <pt x="335" y="842" on="1"/>
        <pt x="350" y="850" on="0"/>
        <pt x="362" y="852" on="1"/>
        <pt x="364" y="853" on="0"/>
        <pt x="365" y="853" on="1"/>
        <pt x="369" y="853" on="1"/>
        <pt x="371" y="853" on="0"/>
        <pt x="374" y="852" on="1"/>
        <pt x="386" y="850" on="0"/>
        <pt x="402" y="842" on="1"/>
        <pt x="565" y="682" on="1"/>
        <pt x="543" y="653" on="1"/>
        <pt x="368" y="725" on="1"/>
        <pt x="194" y="653" on="1"/>
        <pt x="172" y="682" on="1"/>
      </contour>
    </TTGlyph>
    <TTGlyph name="Udieresis" xMin="20" yMin="-15" xMax="661" yMax="838">
      <contour>
        <pt x="109" y="557" on="1"/>
        <pt x="20" y="557" on="1"/>
        <pt x="20" y="615" on="1"/>
        <pt x="277" y="615" on="1"/>
        <pt x="277" y="140" on="1"/>
        <pt x="277" y="123" on="0"/>
        <pt x="281" y="88" on="0"/>
        <pt x="284" y="74" on="1"/>
        <pt x="287" y="57" on="0"/>
        <pt x="291" y="42" on="1"/>
        <pt x="294" y="40" on="0"/>
        <pt x="305" y="39" on="1"/>
        <pt x="313" y="38" on="0"/>
        <pt x="345" y="37" on="0"/>
        <pt x="371" y="37" on="1"/>
        <pt x="430" y="37" on="0"/>
        <pt x="499" y="79" on="0"/>
        <pt x="499" y="130" on="1"/>
        <pt x="499" y="557" on="1"/>
        <pt x="395" y="557" on="1"/>
        <pt x="395" y="615" on="1"/>
        <pt x="661" y="615" on="1"/>
        <pt x="661" y="557" on="1"/>
        <pt x="562" y="557" on="1"/>
        <pt x="562" y="130" on="1"/>
        <pt x="562" y="86" on="0"/>
        <pt x="526" y="30" on="0"/>
        <pt x="466" y="-2" on="0"/>
        <pt x="387" y="-15" on="0"/>
        <pt x="344" y="-15" on="1"/>
        <pt x="291" y="-15" on="0"/>
        <pt x="204" y="-3" on="0"/>
        <pt x="142" y="30" on="0"/>
        <pt x="109" y="86" on="0"/>
        <pt x="109" y="130" on="1"/>
      </contour>
      <contour>
        <pt x="159" y="763" on="1"/>
        <pt x="159" y="801" on="0"/>
        <pt x="192" y="838" on="0"/>
        <pt x="230" y="838" on="1"/>
        <pt x="271" y="838" on="0"/>
        <pt x="301" y="801" on="0"/>
        <pt x="301" y="763" on="1"/>
        <pt x="301" y="725" on="0"/>
        <pt x="268" y="689" on="0"/>
        <pt x="230" y="689" on="1"/>
        <pt x="192" y="689" on="0"/>
        <pt x="159" y="725" on="0"/>
      </contour>
      <contour>
        <pt x="364" y="763" on="1"/>
        <pt x="364" y="801" on="0"/>
        <pt x="397" y="838" on="0"/>
        <pt x="435" y="838" on="1"/>
        <pt x="476" y="838" on="0"/>
        <pt x="506" y="801" on="0"/>
        <pt x="506" y="763" on="1"/>
        <pt x="506" y="725" on="0"/>
        <pt x="473" y="689" on="0"/>
        <pt x="435" y="689" on="1"/>
        <pt x="397" y="689" on="0"/>
        <pt x="364" y="725" on="0"/>
      </contour>
    </TTGlyph>
    <TTGlyph name="Ugrave" xMin="20" yMin="-15" xMax="661" yMax="853">
      <contour>
        <pt x="109" y="557" on="1"/>
        <pt x="20" y="557" on="1"/>
        <pt x="20" y="615" on="1"/>
        <pt x="277" y="615" on="1"/>
        <pt x="277" y="140" on="1"/>
        <pt x="277" y="123" on="0"/>
        <pt x="281" y="88" on="0"/>
        <pt x="284" y="74" on="1"/>
        <pt x="287" y="57" on="0"/>
        <pt x="291" y="42" on="1"/>
        <pt x="294" y="40" on="0"/>
        <pt x="305" y="39" on="1"/>
        <pt x="313" y="38" on="0"/>
        <pt x="345" y="37" on="0"/>
        <pt x="371" y="37" on="1"/>
        <pt x="430" y="37" on="0"/>
        <pt x="499" y="79" on="0"/>
        <pt x="499" y="130" on="1"/>
        <pt x="499" y="557" on="1"/>
        <pt x="395" y="557" on="1"/>
        <pt x="395" y="615" on="1"/>
        <pt x="661" y="615" on="1"/>
        <pt x="661" y="557" on="1"/>
        <pt x="562" y="557" on="1"/>
        <pt x="562" y="130" on="1"/>
        <pt x="562" y="86" on="0"/>
        <pt x="526" y="30" on="0"/>
        <pt x="466" y="-2" on="0"/>
        <pt x="387" y="-15" on="0"/>
        <pt x="344" y="-15" on="1"/>
        <pt x="291" y="-15" on="0"/>
        <pt x="204" y="-3" on="0"/>
        <pt x="142" y="30" on="0"/>
        <pt x="109" y="86" on="0"/>
        <pt x="109" y="130" on="1"/>
      </contour>
      <contour>
        <pt x="391" y="682" on="1"/>
        <pt x="369" y="653" on="1"/>
        <pt x="160" y="739" on="1"/>
        <pt x="135" y="759" on="0"/>
        <pt x="135" y="789" on="1"/>
        <pt x="135" y="804" on="0"/>
        <pt x="147" y="828" on="0"/>
        <pt x="165" y="844" on="0"/>
        <pt x="186" y="853" on="0"/>
        <pt x="194" y="853" on="1"/>
        <pt x="208" y="853" on="0"/>
        <pt x="228" y="842" on="1"/>
      </contour>
    </TTGlyph>
    <TTGlyph name="V" xMin="10" yMin="-14" xMax="618" yMax="615">
      <contour>
        <pt x="550" y="557" on="1"/>
        <pt x="345" y="-14" on="1"/>
        <pt x="320" y="-14" on="1"/>
        <pt x="10" y="594" on="1"/>
        <pt x="10" y="615" on="1"/>
        <pt x="192" y="615" on="1"/>
        <pt x="377" y="249" on="1"/>
        <pt x="488" y="557" on="1"/>
        <pt x="381" y="557" on="1"/>
        <pt x="381" y="615" on="1"/>
        <pt x="618" y="615" on="1"/>
        <pt x="618" y="557" on="1"/>
      </contour>
    </TTGlyph>
    <TTGlyph name="W" xMin="5" yMin="-14" xMax="923" yMax="615">
      <contour>
        <pt x="857" y="557" on="1"/>
        <pt x="670" y="-14" on="1"/>
        <pt x="645" y="-14" on="1"/>
        <pt x="452" y="390" on="1"/>
        <pt x="320" y="-14" on="1"/>
        <pt x="295" y="-14" on="1"/>
        <pt x="5" y="594" on="1"/>
        <pt x="5" y="615" on="1"/>
        <pt x="187" y="615" on="1"/>
        <pt x="348" y="261" on="1"/>
        <pt x="415" y="467" on="1"/>
        <pt x="355" y="594" on="1"/>
        <pt x="355" y="615" on="1"/>
        <pt x="537" y="615" on="1"/>
        <pt x="698" y="261" on="1"/>
        <pt x="795" y="557" on="1"/>
        <pt x="686" y="557" on="1"/>
        <pt x="686" y="615" on="1"/>
        <pt x="923" y="615" on="1"/>
        <pt x="923" y="557" on="1"/>
      </contour>
    </TTGlyph>
    <TTGlyph name="X" xMin="15" yMin="0" xMax="621" yMax="615">
      <contour>
        <pt x="518" y="557" on="1"/>
        <pt x="386" y="370" on="1"/>
        <pt x="621" y="22" on="1"/>
        <pt x="621" y="0" on="1"/>
        <pt x="409" y="0" on="1"/>
        <pt x="260" y="226" on="1"/>
        <pt x="155" y="58" on="1"/>
        <pt x="252" y="58" on="1"/>
        <pt x="252" y="0" on="1"/>
        <pt x="15" y="0" on="1"/>
        <pt x="15" y="58" on="1"/>
        <pt x="83" y="58" on="1"/>
        <pt x="223" y="281" on="1"/>
        <pt x="18" y="593" on="1"/>
        <pt x="18" y="615" on="1"/>
        <pt x="221" y="615" on="1"/>
        <pt x="350" y="423" on="1"/>
        <pt x="445" y="557" on="1"/>
        <pt x="353" y="557" on="1"/>
        <pt x="353" y="615" on="1"/>
        <pt x="590" y="615" on="1"/>
        <pt x="590" y="557" on="1"/>
      </contour>
    </TTGlyph>
    <TTGlyph name="Y" xMin="15" yMin="0" xMax="588" yMax="615">
      <contour>
        <pt x="15" y="615" on="1"/>
        <pt x="197" y="615" on="1"/>
        <pt x="353" y="332" on="1"/>
        <pt x="453" y="557" on="1"/>
        <pt x="351" y="557" on="1"/>
        <pt x="351" y="615" on="1"/>
        <pt x="588" y="615" on="1"/>
        <pt x="588" y="557" on="1"/>
        <pt x="514" y="557" on="1"/>
        <pt x="379" y="257" on="1"/>
        <pt x="379" y="58" on="1"/>
        <pt x="468" y="58" on="1"/>
        <pt x="468" y="0" on="1"/>
        <pt x="122" y="0" on="1"/>
        <pt x="122" y="58" on="1"/>
        <pt x="211" y="58" on="1"/>
        <pt x="211" y="253" on="1"/>
        <pt x="15" y="594" on="1"/>
      </contour>
    </TTGlyph>
    <TTGlyph name="Yacute" xMin="15" yMin="0" xMax="588" yMax="853">
      <contour>
        <pt x="15" y="615" on="1"/>
        <pt x="197" y="615" on="1"/>
        <pt x="353" y="332" on="1"/>
        <pt x="453" y="557" on="1"/>
        <pt x="351" y="557" on="1"/>
        <pt x="351" y="615" on="1"/>
        <pt x="588" y="615" on="1"/>
        <pt x="588" y="557" on="1"/>
        <pt x="514" y="557" on="1"/>
        <pt x="379" y="257" on="1"/>
        <pt x="379" y="58" on="1"/>
        <pt x="468" y="58" on="1"/>
        <pt x="468" y="0" on="1"/>
        <pt x="122" y="0" on="1"/>
        <pt x="122" y="58" on="1"/>
        <pt x="211" y="58" on="1"/>
        <pt x="211" y="253" on="1"/>
        <pt x="15" y="594" on="1"/>
      </contour>
      <contour>
        <pt x="449" y="842" on="1"/>
        <pt x="469" y="853" on="0"/>
        <pt x="483" y="853" on="1"/>
        <pt x="491" y="853" on="0"/>
        <pt x="511" y="844" on="0"/>
        <pt x="529" y="828" on="0"/>
        <pt x="542" y="804" on="0"/>
        <pt x="542" y="789" on="1"/>
        <pt x="542" y="759" on="0"/>
        <pt x="517" y="739" on="1"/>
        <pt x="308" y="653" on="1"/>
        <pt x="286" y="682" on="1"/>
      </contour>
    </TTGlyph>
    <TTGlyph name="Ydieresis" xMin="15" yMin="0" xMax="588" yMax="838">
      <contour>
        <pt x="15" y="615" on="1"/>
        <pt x="197" y="615" on="1"/>
        <pt x="353" y="332" on="1"/>
        <pt x="453" y="557" on="1"/>
        <pt x="351" y="557" on="1"/>
        <pt x="351" y="615" on="1"/>
        <pt x="588" y="615" on="1"/>
        <pt x="588" y="557" on="1"/>
        <pt x="514" y="557" on="1"/>
        <pt x="379" y="257" on="1"/>
        <pt x="379" y="58" on="1"/>
        <pt x="468" y="58" on="1"/>
        <pt x="468" y="0" on="1"/>
        <pt x="122" y="0" on="1"/>
        <pt x="122" y="58" on="1"/>
        <pt x="211" y="58" on="1"/>
        <pt x="211" y="253" on="1"/>
        <pt x="15" y="594" on="1"/>
      </contour>
      <contour>
        <pt x="125" y="763" on="1"/>
        <pt x="125" y="801" on="0"/>
        <pt x="158" y="838" on="0"/>
        <pt x="196" y="838" on="1"/>
        <pt x="237" y="838" on="0"/>
        <pt x="267" y="801" on="0"/>
        <pt x="267" y="763" on="1"/>
        <pt x="267" y="725" on="0"/>
        <pt x="234" y="689" on="0"/>
        <pt x="196" y="689" on="1"/>
        <pt x="158" y="689" on="0"/>
        <pt x="125" y="725" on="0"/>
      </contour>
      <contour>
        <pt x="330" y="763" on="1"/>
        <pt x="330" y="801" on="0"/>
        <pt x="363" y="838" on="0"/>
        <pt x="401" y="838" on="1"/>
        <pt x="442" y="838" on="0"/>
        <pt x="472" y="801" on="0"/>
        <pt x="472" y="763" on="1"/>
        <pt x="472" y="725" on="0"/>
        <pt x="439" y="689" on="0"/>
        <pt x="401" y="689" on="1"/>
        <pt x="363" y="689" on="0"/>
        <pt x="330" y="725" on="0"/>
      </contour>
    </TTGlyph>
    <TTGlyph name="Z" xMin="55" yMin="0" xMax="548" yMax="615">
      <contour>
        <pt x="55" y="18" on="1"/>
        <pt x="332" y="567" on="1"/>
        <pt x="210" y="567" on="1"/>
        <pt x="210" y="552" on="0"/>
        <pt x="200" y="504" on="0"/>
        <pt x="168" y="459" on="0"/>
        <pt x="107" y="426" on="0"/>
        <pt x="56" y="426" on="1"/>
        <pt x="56" y="615" on="1"/>
        <pt x="536" y="615" on="1"/>
        <pt x="536" y="596" on="1"/>
        <pt x="266" y="48" on="1"/>
        <pt x="385" y="48" on="1"/>
        <pt x="386" y="65" on="0"/>
        <pt x="398" y="119" on="0"/>
        <pt x="432" y="171" on="0"/>
        <pt x="496" y="209" on="0"/>
        <pt x="548" y="209" on="1"/>
        <pt x="548" y="0" on="1"/>
        <pt x="55" y="0" on="1"/>
      </contour>
    </TTGlyph>
    <TTGlyph name="a" xMin="50" yMin="-8" xMax="501" yMax="456">
      <contour>
        <pt x="448" y="50" on="1"/>
        <pt x="461" y="50" on="1"/>
        <pt x="470" y="50" on="0"/>
        <pt x="479" y="51" on="1"/>
        <pt x="501" y="53" on="1"/>
        <pt x="501" y="5" on="1"/>
        <pt x="483" y="2" on="0"/>
        <pt x="466" y="0" on="1"/>
        <pt x="452" y="-2" on="0"/>
        <pt x="420" y="-4" on="0"/>
        <pt x="410" y="-4" on="1"/>
        <pt x="361" y="-4" on="0"/>
        <pt x="311" y="32" on="0"/>
        <pt x="300" y="53" on="1"/>
        <pt x="278" y="25" on="0"/>
        <pt x="221" y="-8" on="0"/>
        <pt x="184" y="-8" on="1"/>
        <pt x="116" y="-8" on="0"/>
        <pt x="50" y="43" on="0"/>
        <pt x="50" y="106" on="1"/>
        <pt x="50" y="128" on="0"/>
        <pt x="51" y="168" on="0"/>
        <pt x="53" y="183" on="1"/>
        <pt x="55" y="201" on="0"/>
        <pt x="57" y="215" on="1"/>
        <pt x="289" y="272" on="1"/>
        <pt x="288" y="301" on="0"/>
        <pt x="286" y="350" on="0"/>
        <pt x="285" y="367" on="1"/>
        <pt x="283" y="387" on="0"/>
        <pt x="282" y="403" on="1"/>
        <pt x="279" y="404" on="0"/>
        <pt x="273" y="405" on="1"/>
        <pt x="268" y="406" on="0"/>
        <pt x="248" y="408" on="0"/>
        <pt x="234" y="408" on="1"/>
        <pt x="225" y="408" on="0"/>
        <pt x="209" y="407" on="0"/>
        <pt x="201" y="406" on="1"/>
        <pt x="198" y="392" on="0"/>
        <pt x="184" y="353" on="0"/>
        <pt x="154" y="318" on="0"/>
        <pt x="105" y="293" on="0"/>
        <pt x="67" y="293" on="1"/>
        <pt x="67" y="444" on="1"/>
        <pt x="99" y="447" on="0"/>
        <pt x="132" y="450" on="1"/>
        <pt x="161" y="452" on="0"/>
        <pt x="227" y="456" on="0"/>
        <pt x="258" y="456" on="1"/>
        <pt x="323" y="456" on="0"/>
        <pt x="398" y="434" on="0"/>
        <pt x="437" y="380" on="0"/>
        <pt x="448" y="290" on="0"/>
        <pt x="448" y="223" on="1"/>
      </contour>
      <contour>
        <pt x="216" y="46" on="1"/>
        <pt x="236" y="51" on="0"/>
        <pt x="273" y="92" on="0"/>
        <pt x="290" y="121" on="1"/>
        <pt x="290" y="227" on="1"/>
        <pt x="214" y="206" on="1"/>
        <pt x="212" y="190" on="0"/>
        <pt x="210" y="157" on="0"/>
        <pt x="210" y="141" on="1"/>
        <pt x="210" y="121" on="0"/>
        <pt x="211" y="87" on="0"/>
        <pt x="213" y="74" on="1"/>
        <pt x="214" y="59" on="0"/>
      </contour>
    </TTGlyph>
    <TTGlyph name="aacute" xMin="55" yMin="-8" xMax="506" yMax="703">
      <contour>
        <pt x="453" y="50" on="1"/>
        <pt x="466" y="50" on="1"/>
        <pt x="475" y="50" on="0"/>
        <pt x="484" y="51" on="1"/>
        <pt x="506" y="53" on="1"/>
        <pt x="506" y="5" on="1"/>
        <pt x="488" y="2" on="0"/>
        <pt x="471" y="0" on="1"/>
        <pt x="457" y="-2" on="0"/>
        <pt x="425" y="-4" on="0"/>
        <pt x="415" y="-4" on="1"/>
        <pt x="366" y="-4" on="0"/>
        <pt x="316" y="32" on="0"/>
        <pt x="305" y="53" on="1"/>
        <pt x="283" y="25" on="0"/>
        <pt x="226" y="-8" on="0"/>
        <pt x="189" y="-8" on="1"/>
        <pt x="121" y="-8" on="0"/>
        <pt x="55" y="43" on="0"/>
        <pt x="55" y="106" on="1"/>
        <pt x="55" y="128" on="0"/>
        <pt x="56" y="168" on="0"/>
        <pt x="58" y="183" on="1"/>
        <pt x="60" y="201" on="0"/>
        <pt x="62" y="215" on="1"/>
        <pt x="294" y="272" on="1"/>
        <pt x="293" y="301" on="0"/>
        <pt x="291" y="350" on="0"/>
        <pt x="290" y="367" on="1"/>
        <pt x="288" y="387" on="0"/>
        <pt x="287" y="403" on="1"/>
        <pt x="284" y="404" on="0"/>
        <pt x="278" y="405" on="1"/>
        <pt x="273" y="406" on="0"/>
        <pt x="253" y="408" on="0"/>
        <pt x="239" y="408" on="1"/>
        <pt x="230" y="408" on="0"/>
        <pt x="214" y="407" on="0"/>
        <pt x="206" y="406" on="1"/>
        <pt x="203" y="392" on="0"/>
        <pt x="189" y="353" on="0"/>
        <pt x="159" y="318" on="0"/>
        <pt x="110" y="293" on="0"/>
        <pt x="72" y="293" on="1"/>
        <pt x="72" y="444" on="1"/>
        <pt x="104" y="447" on="0"/>
        <pt x="137" y="450" on="1"/>
        <pt x="166" y="452" on="0"/>
        <pt x="232" y="456" on="0"/>
        <pt x="263" y="456" on="1"/>
        <pt x="328" y="456" on="0"/>
        <pt x="403" y="434" on="0"/>
        <pt x="442" y="380" on="0"/>
        <pt x="453" y="290" on="0"/>
        <pt x="453" y="223" on="1"/>
      </contour>
      <contour>
        <pt x="370" y="689" on="1"/>
        <pt x="387" y="703" on="0"/>
        <pt x="407" y="703" on="1"/>
        <pt x="418" y="703" on="0"/>
        <pt x="440" y="692" on="0"/>
        <pt x="457" y="673" on="0"/>
        <pt x="468" y="650" on="0"/>
        <pt x="468" y="638" on="1"/>
        <pt x="468" y="613" on="0"/>
        <pt x="447" y="595" on="1"/>
        <pt x="250" y="486" on="1"/>
        <pt x="225" y="514" on="1"/>
      </contour>
      <contour>
        <pt x="221" y="46" on="1"/>
        <pt x="241" y="51" on="0"/>
        <pt x="278" y="92" on="0"/>
        <pt x="295" y="121" on="1"/>
        <pt x="295" y="227" on="1"/>
        <pt x="219" y="206" on="1"/>
        <pt x="217" y="190" on="0"/>
        <pt x="215" y="157" on="0"/>
        <pt x="215" y="141" on="1"/>
        <pt x="215" y="121" on="0"/>
        <pt x="216" y="87" on="0"/>
        <pt x="218" y="74" on="1"/>
        <pt x="219" y="59" on="0"/>
      </contour>
    </TTGlyph>
    <TTGlyph name="acircumflex" xMin="55" yMin="-8" xMax="506" yMax="703">
      <contour>
        <pt x="453" y="50" on="1"/>
        <pt x="466" y="50" on="1"/>
        <pt x="475" y="50" on="0"/>
        <pt x="484" y="51" on="1"/>
        <pt x="506" y="53" on="1"/>
        <pt x="506" y="5" on="1"/>
        <pt x="488" y="2" on="0"/>
        <pt x="471" y="0" on="1"/>
        <pt x="457" y="-2" on="0"/>
        <pt x="425" y="-4" on="0"/>
        <pt x="415" y="-4" on="1"/>
        <pt x="366" y="-4" on="0"/>
        <pt x="316" y="32" on="0"/>
        <pt x="305" y="53" on="1"/>
        <pt x="283" y="25" on="0"/>
        <pt x="226" y="-8" on="0"/>
        <pt x="189" y="-8" on="1"/>
        <pt x="121" y="-8" on="0"/>
        <pt x="55" y="43" on="0"/>
        <pt x="55" y="106" on="1"/>
        <pt x="55" y="128" on="0"/>
        <pt x="56" y="168" on="0"/>
        <pt x="58" y="183" on="1"/>
        <pt x="60" y="201" on="0"/>
        <pt x="62" y="215" on="1"/>
        <pt x="294" y="272" on="1"/>
        <pt x="293" y="301" on="0"/>
        <pt x="291" y="350" on="0"/>
        <pt x="290" y="367" on="1"/>
        <pt x="288" y="387" on="0"/>
        <pt x="287" y="403" on="1"/>
        <pt x="284" y="404" on="0"/>
        <pt x="278" y="405" on="1"/>
        <pt x="273" y="406" on="0"/>
        <pt x="253" y="408" on="0"/>
        <pt x="239" y="408" on="1"/>
        <pt x="230" y="408" on="0"/>
        <pt x="214" y="407" on="0"/>
        <pt x="206" y="406" on="1"/>
        <pt x="203" y="392" on="0"/>
        <pt x="189" y="353" on="0"/>
        <pt x="159" y="318" on="0"/>
        <pt x="110" y="293" on="0"/>
        <pt x="72" y="293" on="1"/>
        <pt x="72" y="444" on="1"/>
        <pt x="104" y="447" on="0"/>
        <pt x="137" y="450" on="1"/>
        <pt x="166" y="452" on="0"/>
        <pt x="232" y="456" on="0"/>
        <pt x="263" y="456" on="1"/>
        <pt x="328" y="456" on="0"/>
        <pt x="403" y="434" on="0"/>
        <pt x="442" y="380" on="0"/>
        <pt x="453" y="290" on="0"/>
        <pt x="453" y="223" on="1"/>
      </contour>
      <contour>
        <pt x="205" y="680" on="1"/>
        <pt x="212" y="688" on="0"/>
        <pt x="233" y="703" on="0"/>
        <pt x="246" y="703" on="1"/>
        <pt x="254" y="703" on="1"/>
        <pt x="277" y="703" on="0"/>
        <pt x="295" y="680" on="1"/>
        <pt x="432" y="514" on="1"/>
        <pt x="407" y="486" on="1"/>
        <pt x="250" y="573" on="1"/>
        <pt x="93" y="486" on="1"/>
        <pt x="68" y="514" on="1"/>
      </contour>
      <contour>
        <pt x="221" y="46" on="1"/>
        <pt x="241" y="51" on="0"/>
        <pt x="278" y="92" on="0"/>
        <pt x="295" y="121" on="1"/>
        <pt x="295" y="227" on="1"/>
        <pt x="219" y="206" on="1"/>
        <pt x="217" y="190" on="0"/>
        <pt x="215" y="157" on="0"/>
        <pt x="215" y="141" on="1"/>
        <pt x="215" y="121" on="0"/>
        <pt x="216" y="87" on="0"/>
        <pt x="218" y="74" on="1"/>
        <pt x="219" y="59" on="0"/>
      </contour>
    </TTGlyph>
    <TTGlyph name="acute" xMin="139" yMin="486" xMax="382" yMax="703">
      <contour>
        <pt x="284" y="689" on="1"/>
        <pt x="301" y="703" on="0"/>
        <pt x="321" y="703" on="1"/>
        <pt x="332" y="703" on="0"/>
        <pt x="354" y="692" on="0"/>
        <pt x="371" y="673" on="0"/>
        <pt x="382" y="650" on="0"/>
        <pt x="382" y="638" on="1"/>
        <pt x="382" y="613" on="0"/>
        <pt x="361" y="595" on="1"/>
        <pt x="164" y="486" on="1"/>
        <pt x="139" y="514" on="1"/>
      </contour>
    </TTGlyph>
    <TTGlyph name="adieresis" xMin="55" yMin="-8" xMax="506" yMax="672">
      <contour>
        <pt x="453" y="50" on="1"/>
        <pt x="466" y="50" on="1"/>
        <pt x="475" y="50" on="0"/>
        <pt x="484" y="51" on="1"/>
        <pt x="506" y="53" on="1"/>
        <pt x="506" y="5" on="1"/>
        <pt x="488" y="2" on="0"/>
        <pt x="471" y="0" on="1"/>
        <pt x="457" y="-2" on="0"/>
        <pt x="425" y="-4" on="0"/>
        <pt x="415" y="-4" on="1"/>
        <pt x="366" y="-4" on="0"/>
        <pt x="316" y="32" on="0"/>
        <pt x="305" y="53" on="1"/>
        <pt x="283" y="25" on="0"/>
        <pt x="226" y="-8" on="0"/>
        <pt x="189" y="-8" on="1"/>
        <pt x="121" y="-8" on="0"/>
        <pt x="55" y="43" on="0"/>
        <pt x="55" y="106" on="1"/>
        <pt x="55" y="128" on="0"/>
        <pt x="56" y="168" on="0"/>
        <pt x="58" y="183" on="1"/>
        <pt x="60" y="201" on="0"/>
        <pt x="62" y="215" on="1"/>
        <pt x="294" y="272" on="1"/>
        <pt x="293" y="301" on="0"/>
        <pt x="291" y="350" on="0"/>
        <pt x="290" y="367" on="1"/>
        <pt x="288" y="387" on="0"/>
        <pt x="287" y="403" on="1"/>
        <pt x="284" y="404" on="0"/>
        <pt x="278" y="405" on="1"/>
        <pt x="273" y="406" on="0"/>
        <pt x="253" y="408" on="0"/>
        <pt x="239" y="408" on="1"/>
        <pt x="230" y="408" on="0"/>
        <pt x="214" y="407" on="0"/>
        <pt x="206" y="406" on="1"/>
        <pt x="203" y="392" on="0"/>
        <pt x="189" y="353" on="0"/>
        <pt x="159" y="318" on="0"/>
        <pt x="110" y="293" on="0"/>
        <pt x="72" y="293" on="1"/>
        <pt x="72" y="444" on="1"/>
        <pt x="104" y="447" on="0"/>
        <pt x="137" y="450" on="1"/>
        <pt x="166" y="452" on="0"/>
        <pt x="232" y="456" on="0"/>
        <pt x="263" y="456" on="1"/>
        <pt x="328" y="456" on="0"/>
        <pt x="403" y="434" on="0"/>
        <pt x="442" y="380" on="0"/>
        <pt x="453" y="290" on="0"/>
        <pt x="453" y="223" on="1"/>
      </contour>
      <contour>
        <pt x="280" y="597" on="1"/>
        <pt x="280" y="635" on="0"/>
        <pt x="313" y="672" on="0"/>
        <pt x="351" y="672" on="1"/>
        <pt x="392" y="672" on="0"/>
        <pt x="422" y="635" on="0"/>
        <pt x="422" y="597" on="1"/>
        <pt x="422" y="559" on="0"/>
        <pt x="389" y="523" on="0"/>
        <pt x="351" y="523" on="1"/>
        <pt x="313" y="523" on="0"/>
        <pt x="280" y="559" on="0"/>
      </contour>
      <contour>
        <pt x="75" y="597" on="1"/>
        <pt x="75" y="635" on="0"/>
        <pt x="108" y="672" on="0"/>
        <pt x="146" y="672" on="1"/>
        <pt x="187" y="672" on="0"/>
        <pt x="217" y="635" on="0"/>
        <pt x="217" y="597" on="1"/>
        <pt x="217" y="559" on="0"/>
        <pt x="184" y="523" on="0"/>
        <pt x="146" y="523" on="1"/>
        <pt x="108" y="523" on="0"/>
        <pt x="75" y="559" on="0"/>
      </contour>
      <contour>
        <pt x="221" y="46" on="1"/>
        <pt x="241" y="51" on="0"/>
        <pt x="278" y="92" on="0"/>
        <pt x="295" y="121" on="1"/>
        <pt x="295" y="227" on="1"/>
        <pt x="219" y="206" on="1"/>
        <pt x="217" y="190" on="0"/>
        <pt x="215" y="157" on="0"/>
        <pt x="215" y="141" on="1"/>
        <pt x="215" y="121" on="0"/>
        <pt x="216" y="87" on="0"/>
        <pt x="218" y="74" on="1"/>
        <pt x="219" y="59" on="0"/>
      </contour>
    </TTGlyph>
    <TTGlyph name="ae" xMin="55" yMin="-10" xMax="711" yMax="456">
      <contour>
        <pt x="72" y="444" on="1"/>
        <pt x="104" y="447" on="0"/>
        <pt x="137" y="450" on="1"/>
        <pt x="166" y="452" on="0"/>
        <pt x="232" y="456" on="0"/>
        <pt x="263" y="456" on="1"/>
        <pt x="347" y="456" on="0"/>
        <pt x="390" y="425" on="1"/>
        <pt x="443" y="456" on="0"/>
        <pt x="522" y="456" on="1"/>
        <pt x="577" y="456" on="0"/>
        <pt x="649" y="435" on="0"/>
        <pt x="693" y="389" on="0"/>
        <pt x="711" y="314" on="0"/>
        <pt x="711" y="259" on="1"/>
        <pt x="711" y="242" on="0"/>
        <pt x="709" y="217" on="0"/>
        <pt x="708" y="209" on="1"/>
        <pt x="707" y="199" on="0"/>
        <pt x="706" y="194" on="1"/>
        <pt x="459" y="194" on="1"/>
        <pt x="460" y="160" on="0"/>
        <pt x="466" y="105" on="0"/>
        <pt x="469" y="85" on="1"/>
        <pt x="473" y="61" on="0"/>
        <pt x="477" y="43" on="1"/>
        <pt x="480" y="41" on="0"/>
        <pt x="486" y="40" on="1"/>
        <pt x="491" y="39" on="0"/>
        <pt x="510" y="38" on="0"/>
        <pt x="525" y="38" on="1"/>
        <pt x="550" y="38" on="0"/>
        <pt x="595" y="45" on="0"/>
        <pt x="629" y="61" on="0"/>
        <pt x="648" y="90" on="0"/>
        <pt x="648" y="111" on="1"/>
        <pt x="702" y="111" on="1"/>
        <pt x="702" y="69" on="0"/>
        <pt x="665" y="21" on="0"/>
        <pt x="610" y="-4" on="0"/>
        <pt x="546" y="-10" on="0"/>
        <pt x="518" y="-10" on="1"/>
        <pt x="440" y="-10" on="0"/>
        <pt x="345" y="30" on="0"/>
        <pt x="321" y="76" on="1"/>
        <pt x="298" y="39" on="0"/>
        <pt x="234" y="-8" on="0"/>
        <pt x="189" y="-8" on="1"/>
        <pt x="121" y="-8" on="0"/>
        <pt x="55" y="43" on="0"/>
        <pt x="55" y="106" on="1"/>
        <pt x="55" y="128" on="0"/>
        <pt x="56" y="168" on="0"/>
        <pt x="58" y="183" on="1"/>
        <pt x="60" y="201" on="0"/>
        <pt x="62" y="215" on="1"/>
        <pt x="294" y="272" on="1"/>
        <pt x="293" y="301" on="0"/>
        <pt x="291" y="350" on="0"/>
        <pt x="290" y="367" on="1"/>
        <pt x="288" y="387" on="0"/>
        <pt x="287" y="403" on="1"/>
        <pt x="284" y="404" on="0"/>
        <pt x="278" y="405" on="1"/>
        <pt x="273" y="406" on="0"/>
        <pt x="253" y="408" on="0"/>
        <pt x="239" y="408" on="1"/>
        <pt x="230" y="408" on="0"/>
        <pt x="214" y="407" on="0"/>
        <pt x="206" y="406" on="1"/>
        <pt x="203" y="392" on="0"/>
        <pt x="189" y="353" on="0"/>
        <pt x="159" y="318" on="0"/>
        <pt x="110" y="293" on="0"/>
        <pt x="72" y="293" on="1"/>
      </contour>
      <contour>
        <pt x="477" y="405" on="1"/>
        <pt x="472" y="383" on="0"/>
        <pt x="468" y="357" on="1"/>
        <pt x="465" y="334" on="0"/>
        <pt x="459" y="273" on="0"/>
        <pt x="459" y="237" on="1"/>
        <pt x="556" y="237" on="1"/>
        <pt x="554" y="279" on="0"/>
        <pt x="548" y="342" on="0"/>
        <pt x="544" y="363" on="1"/>
        <pt x="540" y="388" on="0"/>
        <pt x="535" y="405" on="1"/>
        <pt x="532" y="406" on="0"/>
        <pt x="528" y="408" on="1"/>
        <pt x="524" y="409" on="0"/>
        <pt x="513" y="411" on="0"/>
        <pt x="506" y="411" on="1"/>
        <pt x="499" y="411" on="0"/>
        <pt x="489" y="409" on="0"/>
        <pt x="485" y="408" on="1"/>
        <pt x="481" y="406" on="0"/>
      </contour>
      <contour>
        <pt x="221" y="46" on="1"/>
        <pt x="243" y="52" on="0"/>
        <pt x="285" y="102" on="0"/>
        <pt x="302" y="135" on="1"/>
        <pt x="295" y="170" on="0"/>
        <pt x="295" y="223" on="1"/>
        <pt x="295" y="227" on="1"/>
        <pt x="219" y="206" on="1"/>
        <pt x="217" y="190" on="0"/>
        <pt x="215" y="157" on="0"/>
        <pt x="215" y="141" on="1"/>
        <pt x="215" y="121" on="0"/>
        <pt x="216" y="87" on="0"/>
        <pt x="218" y="74" on="1"/>
        <pt x="219" y="59" on="0"/>
      </contour>
    </TTGlyph>
    <TTGlyph name="agrave" xMin="32" yMin="-8" xMax="506" yMax="703">
      <contour>
        <pt x="453" y="50" on="1"/>
        <pt x="466" y="50" on="1"/>
        <pt x="475" y="50" on="0"/>
        <pt x="484" y="51" on="1"/>
        <pt x="506" y="53" on="1"/>
        <pt x="506" y="5" on="1"/>
        <pt x="488" y="2" on="0"/>
        <pt x="471" y="0" on="1"/>
        <pt x="457" y="-2" on="0"/>
        <pt x="425" y="-4" on="0"/>
        <pt x="415" y="-4" on="1"/>
        <pt x="366" y="-4" on="0"/>
        <pt x="316" y="32" on="0"/>
        <pt x="305" y="53" on="1"/>
        <pt x="283" y="25" on="0"/>
        <pt x="226" y="-8" on="0"/>
        <pt x="189" y="-8" on="1"/>
        <pt x="121" y="-8" on="0"/>
        <pt x="55" y="43" on="0"/>
        <pt x="55" y="106" on="1"/>
        <pt x="55" y="128" on="0"/>
        <pt x="56" y="168" on="0"/>
        <pt x="58" y="183" on="1"/>
        <pt x="60" y="201" on="0"/>
        <pt x="62" y="215" on="1"/>
        <pt x="294" y="272" on="1"/>
        <pt x="293" y="301" on="0"/>
        <pt x="291" y="350" on="0"/>
        <pt x="290" y="367" on="1"/>
        <pt x="288" y="387" on="0"/>
        <pt x="287" y="403" on="1"/>
        <pt x="284" y="404" on="0"/>
        <pt x="278" y="405" on="1"/>
        <pt x="273" y="406" on="0"/>
        <pt x="253" y="408" on="0"/>
        <pt x="239" y="408" on="1"/>
        <pt x="230" y="408" on="0"/>
        <pt x="214" y="407" on="0"/>
        <pt x="206" y="406" on="1"/>
        <pt x="203" y="392" on="0"/>
        <pt x="189" y="353" on="0"/>
        <pt x="159" y="318" on="0"/>
        <pt x="110" y="293" on="0"/>
        <pt x="72" y="293" on="1"/>
        <pt x="72" y="444" on="1"/>
        <pt x="104" y="447" on="0"/>
        <pt x="137" y="450" on="1"/>
        <pt x="166" y="452" on="0"/>
        <pt x="232" y="456" on="0"/>
        <pt x="263" y="456" on="1"/>
        <pt x="328" y="456" on="0"/>
        <pt x="403" y="434" on="0"/>
        <pt x="442" y="380" on="0"/>
        <pt x="453" y="290" on="0"/>
        <pt x="453" y="223" on="1"/>
      </contour>
      <contour>
        <pt x="275" y="514" on="1"/>
        <pt x="250" y="486" on="1"/>
        <pt x="53" y="595" on="1"/>
        <pt x="32" y="613" on="0"/>
        <pt x="32" y="638" on="1"/>
        <pt x="32" y="650" on="0"/>
        <pt x="43" y="673" on="0"/>
        <pt x="60" y="692" on="0"/>
        <pt x="82" y="703" on="0"/>
        <pt x="93" y="703" on="1"/>
        <pt x="113" y="703" on="0"/>
        <pt x="130" y="689" on="1"/>
      </contour>
      <contour>
        <pt x="221" y="46" on="1"/>
        <pt x="241" y="51" on="0"/>
        <pt x="278" y="92" on="0"/>
        <pt x="295" y="121" on="1"/>
        <pt x="295" y="227" on="1"/>
        <pt x="219" y="206" on="1"/>
        <pt x="217" y="190" on="0"/>
        <pt x="215" y="157" on="0"/>
        <pt x="215" y="141" on="1"/>
        <pt x="215" y="121" on="0"/>
        <pt x="216" y="87" on="0"/>
        <pt x="218" y="74" on="1"/>
        <pt x="219" y="59" on="0"/>
      </contour>
    </TTGlyph>
    <TTGlyph name="ampersand" xMin="45" yMin="-2" xMax="600" yMax="617">
      <contour>
        <pt x="318" y="559" on="1"/>
        <pt x="306" y="559" on="0"/>
        <pt x="285" y="558" on="0"/>
        <pt x="277" y="557" on="1"/>
        <pt x="267" y="556" on="0"/>
        <pt x="260" y="555" on="1"/>
        <pt x="256" y="546" on="0"/>
        <pt x="252" y="534" on="1"/>
        <pt x="249" y="523" on="0"/>
        <pt x="245" y="492" on="0"/>
        <pt x="245" y="472" on="1"/>
        <pt x="245" y="451" on="0"/>
        <pt x="247" y="417" on="0"/>
        <pt x="249" y="404" on="1"/>
        <pt x="251" y="389" on="0"/>
        <pt x="254" y="377" on="1"/>
        <pt x="600" y="377" on="1"/>
        <pt x="600" y="319" on="1"/>
        <pt x="496" y="319" on="1"/>
        <pt x="496" y="181" on="1"/>
        <pt x="496" y="128" on="0"/>
        <pt x="465" y="58" on="0"/>
        <pt x="408" y="16" on="0"/>
        <pt x="325" y="-2" on="0"/>
        <pt x="274" y="-2" on="1"/>
        <pt x="220" y="-2" on="0"/>
        <pt x="134" y="15" on="0"/>
        <pt x="76" y="57" on="0"/>
        <pt x="45" y="127" on="0"/>
        <pt x="45" y="180" on="1"/>
        <pt x="45" y="246" on="0"/>
        <pt x="105" y="333" on="0"/>
        <pt x="168" y="348" on="1"/>
        <pt x="116" y="363" on="0"/>
        <pt x="66" y="423" on="0"/>
        <pt x="66" y="474" on="1"/>
        <pt x="66" y="553" on="0"/>
        <pt x="188" y="617" on="0"/>
        <pt x="318" y="617" on="1"/>
        <pt x="345" y="617" on="0"/>
        <pt x="407" y="608" on="0"/>
        <pt x="460" y="583" on="0"/>
        <pt x="495" y="538" on="0"/>
        <pt x="495" y="502" on="1"/>
        <pt x="495" y="495" on="1"/>
        <pt x="435" y="495" on="1"/>
        <pt x="435" y="501" on="1"/>
        <pt x="435" y="519" on="0"/>
        <pt x="415" y="541" on="0"/>
        <pt x="382" y="554" on="0"/>
        <pt x="340" y="559" on="0"/>
      </contour>
      <contour>
        <pt x="247" y="61" on="1"/>
        <pt x="251" y="59" on="0"/>
        <pt x="255" y="58" on="1"/>
        <pt x="265" y="56" on="0"/>
        <pt x="279" y="56" on="1"/>
        <pt x="360" y="56" on="0"/>
        <pt x="438" y="115" on="0"/>
        <pt x="438" y="188" on="1"/>
        <pt x="438" y="319" on="1"/>
        <pt x="252" y="319" on="1"/>
        <pt x="245" y="300" on="0"/>
        <pt x="241" y="278" on="1"/>
        <pt x="237" y="259" on="0"/>
        <pt x="231" y="209" on="0"/>
        <pt x="231" y="183" on="1"/>
        <pt x="231" y="155" on="0"/>
        <pt x="236" y="111" on="0"/>
        <pt x="239" y="95" on="1"/>
        <pt x="243" y="77" on="0"/>
      </contour>
    </TTGlyph>
    <TTGlyph name="apostrophe" xMin="50" yMin="356" xMax="216" yMax="630">
      <contour>
        <pt x="50" y="543" on="1"/>
        <pt x="50" y="588" on="0"/>
        <pt x="88" y="630" on="0"/>
        <pt x="133" y="630" on="1"/>
        <pt x="181" y="630" on="0"/>
        <pt x="216" y="588" on="0"/>
        <pt x="216" y="543" on="1"/>
        <pt x="216" y="489" on="0"/>
        <pt x="210" y="418" on="0"/>
        <pt x="183" y="374" on="0"/>
        <pt x="126" y="356" on="0"/>
        <pt x="74" y="356" on="1"/>
        <pt x="74" y="404" on="1"/>
        <pt x="82" y="404" on="1"/>
        <pt x="124" y="404" on="0"/>
        <pt x="160" y="426" on="0"/>
        <pt x="162" y="460" on="1"/>
        <pt x="148" y="457" on="0"/>
        <pt x="133" y="457" on="1"/>
        <pt x="88" y="457" on="0"/>
        <pt x="50" y="498" on="0"/>
      </contour>
    </TTGlyph>
    <TTGlyph name="aring" xMin="55" yMin="-8" xMax="506" yMax="710">
      <contour>
        <pt x="453" y="50" on="1"/>
        <pt x="466" y="50" on="1"/>
        <pt x="475" y="50" on="0"/>
        <pt x="484" y="51" on="1"/>
        <pt x="506" y="53" on="1"/>
        <pt x="506" y="5" on="1"/>
        <pt x="488" y="2" on="0"/>
        <pt x="471" y="0" on="1"/>
        <pt x="457" y="-2" on="0"/>
        <pt x="425" y="-4" on="0"/>
        <pt x="415" y="-4" on="1"/>
        <pt x="366" y="-4" on="0"/>
        <pt x="316" y="32" on="0"/>
        <pt x="305" y="53" on="1"/>
        <pt x="283" y="25" on="0"/>
        <pt x="226" y="-8" on="0"/>
        <pt x="189" y="-8" on="1"/>
        <pt x="121" y="-8" on="0"/>
        <pt x="55" y="43" on="0"/>
        <pt x="55" y="106" on="1"/>
        <pt x="55" y="128" on="0"/>
        <pt x="56" y="168" on="0"/>
        <pt x="58" y="183" on="1"/>
        <pt x="60" y="201" on="0"/>
        <pt x="62" y="215" on="1"/>
        <pt x="294" y="272" on="1"/>
        <pt x="293" y="301" on="0"/>
        <pt x="291" y="350" on="0"/>
        <pt x="290" y="367" on="1"/>
        <pt x="288" y="387" on="0"/>
        <pt x="287" y="403" on="1"/>
        <pt x="284" y="404" on="0"/>
        <pt x="278" y="405" on="1"/>
        <pt x="273" y="406" on="0"/>
        <pt x="253" y="408" on="0"/>
        <pt x="239" y="408" on="1"/>
        <pt x="230" y="408" on="0"/>
        <pt x="214" y="407" on="0"/>
        <pt x="206" y="406" on="1"/>
        <pt x="203" y="392" on="0"/>
        <pt x="189" y="353" on="0"/>
        <pt x="159" y="318" on="0"/>
        <pt x="110" y="293" on="0"/>
        <pt x="72" y="293" on="1"/>
        <pt x="72" y="444" on="1"/>
        <pt x="104" y="447" on="0"/>
        <pt x="137" y="450" on="1"/>
        <pt x="166" y="452" on="0"/>
        <pt x="232" y="456" on="0"/>
        <pt x="263" y="456" on="1"/>
        <pt x="328" y="456" on="0"/>
        <pt x="403" y="434" on="0"/>
        <pt x="442" y="380" on="0"/>
        <pt x="453" y="290" on="0"/>
        <pt x="453" y="223" on="1"/>
      </contour>
      <contour>
        <pt x="144" y="600" on="1"/>
        <pt x="144" y="649" on="0"/>
        <pt x="205" y="710" on="0"/>
        <pt x="255" y="710" on="1"/>
        <pt x="307" y="710" on="0"/>
        <pt x="366" y="652" on="0"/>
        <pt x="366" y="600" on="1"/>
        <pt x="366" y="551" on="0"/>
        <pt x="305" y="490" on="0"/>
        <pt x="255" y="490" on="1"/>
        <pt x="203" y="490" on="0"/>
        <pt x="144" y="549" on="0"/>
      </contour>
      <contour>
        <pt x="221" y="46" on="1"/>
        <pt x="241" y="51" on="0"/>
        <pt x="278" y="92" on="0"/>
        <pt x="295" y="121" on="1"/>
        <pt x="295" y="227" on="1"/>
        <pt x="219" y="206" on="1"/>
        <pt x="217" y="190" on="0"/>
        <pt x="215" y="157" on="0"/>
        <pt x="215" y="141" on="1"/>
        <pt x="215" y="121" on="0"/>
        <pt x="216" y="87" on="0"/>
        <pt x="218" y="74" on="1"/>
        <pt x="219" y="59" on="0"/>
      </contour>
      <contour>
        <pt x="204" y="601" on="1"/>
        <pt x="204" y="572" on="0"/>
        <pt x="231" y="542" on="0"/>
        <pt x="255" y="542" on="1"/>
        <pt x="278" y="542" on="0"/>
        <pt x="306" y="573" on="0"/>
        <pt x="306" y="601" on="1"/>
        <pt x="306" y="658" on="0"/>
        <pt x="255" y="658" on="1"/>
        <pt x="232" y="658" on="0"/>
        <pt x="204" y="628" on="0"/>
      </contour>
    </TTGlyph>
    <TTGlyph name="asciicircum" xMin="75" yMin="328" xMax="445" yMax="615">
      <contour>
        <pt x="270" y="615" on="1"/>
        <pt x="445" y="363" on="1"/>
        <pt x="395" y="328" on="1"/>
        <pt x="258" y="524" on="1"/>
        <pt x="123" y="330" on="1"/>
        <pt x="75" y="363" on="1"/>
        <pt x="250" y="615" on="1"/>
      </contour>
    </TTGlyph>
    <TTGlyph name="asciitilde" xMin="50" yMin="249" xMax="460" yMax="344">
      <contour>
        <pt x="50" y="270" on="1"/>
        <pt x="64" y="311" on="0"/>
        <pt x="125" y="343" on="0"/>
        <pt x="170" y="343" on="1"/>
        <pt x="192" y="343" on="0"/>
        <pt x="236" y="332" on="0"/>
        <pt x="278" y="319" on="0"/>
        <pt x="319" y="308" on="0"/>
        <pt x="339" y="308" on="1"/>
        <pt x="364" y="308" on="0"/>
        <pt x="400" y="322" on="0"/>
        <pt x="411" y="344" on="1"/>
        <pt x="460" y="323" on="1"/>
        <pt x="446" y="282" on="0"/>
        <pt x="385" y="250" on="0"/>
        <pt x="340" y="250" on="1"/>
        <pt x="319" y="250" on="0"/>
        <pt x="275" y="261" on="0"/>
        <pt x="231" y="274" on="0"/>
        <pt x="190" y="285" on="0"/>
        <pt x="171" y="285" on="1"/>
        <pt x="146" y="285" on="0"/>
        <pt x="110" y="271" on="0"/>
        <pt x="99" y="249" on="1"/>
      </contour>
    </TTGlyph>
    <TTGlyph name="asterisk" xMin="50" yMin="331" xMax="386" yMax="631">
      <contour>
        <pt x="188" y="496" on="1"/>
        <pt x="165" y="592" on="1"/>
        <pt x="165" y="609" on="0"/>
        <pt x="186" y="631" on="0"/>
        <pt x="208" y="631" on="1"/>
        <pt x="228" y="631" on="0"/>
        <pt x="248" y="609" on="0"/>
        <pt x="248" y="592" on="1"/>
        <pt x="227" y="498" on="1"/>
        <pt x="309" y="550" on="1"/>
        <pt x="317" y="552" on="0"/>
        <pt x="323" y="552" on="1"/>
        <pt x="340" y="552" on="0"/>
        <pt x="362" y="524" on="0"/>
        <pt x="362" y="506" on="1"/>
        <pt x="362" y="494" on="0"/>
        <pt x="346" y="476" on="0"/>
        <pt x="334" y="471" on="1"/>
        <pt x="250" y="464" on="1"/>
        <pt x="252" y="461" on="0"/>
        <pt x="256" y="457" on="1"/>
        <pt x="259" y="453" on="0"/>
        <pt x="266" y="443" on="0"/>
        <pt x="271" y="438" on="1"/>
        <pt x="283" y="424" on="0"/>
        <pt x="309" y="401" on="0"/>
        <pt x="327" y="401" on="1"/>
        <pt x="341" y="401" on="0"/>
        <pt x="370" y="406" on="0"/>
        <pt x="386" y="411" on="1"/>
        <pt x="386" y="358" on="1"/>
        <pt x="372" y="353" on="0"/>
        <pt x="344" y="348" on="0"/>
        <pt x="330" y="348" on="1"/>
        <pt x="281" y="348" on="0"/>
        <pt x="230" y="395" on="0"/>
        <pt x="210" y="440" on="1"/>
        <pt x="171" y="347" on="1"/>
        <pt x="162" y="331" on="0"/>
        <pt x="141" y="331" on="1"/>
        <pt x="125" y="331" on="0"/>
        <pt x="97" y="355" on="0"/>
        <pt x="97" y="372" on="1"/>
        <pt x="97" y="384" on="0"/>
        <pt x="103" y="395" on="1"/>
        <pt x="179" y="460" on="1"/>
        <pt x="78" y="468" on="1"/>
        <pt x="66" y="472" on="0"/>
        <pt x="50" y="489" on="0"/>
        <pt x="50" y="502" on="1"/>
        <pt x="50" y="519" on="0"/>
        <pt x="70" y="550" on="0"/>
        <pt x="90" y="550" on="1"/>
        <pt x="97" y="550" on="0"/>
        <pt x="103" y="547" on="1"/>
      </contour>
    </TTGlyph>
    <TTGlyph name="at" xMin="70" yMin="-119" xMax="771" yMax="562">
      <contour>
        <pt x="594" y="94" on="1"/>
        <pt x="604" y="94" on="1"/>
        <pt x="666" y="94" on="0"/>
        <pt x="707" y="180" on="0"/>
        <pt x="707" y="260" on="1"/>
        <pt x="707" y="381" on="0"/>
        <pt x="569" y="505" on="0"/>
        <pt x="429" y="505" on="1"/>
        <pt x="360" y="505" on="0"/>
        <pt x="251" y="467" on="0"/>
        <pt x="175" y="395" on="0"/>
        <pt x="134" y="289" on="0"/>
        <pt x="134" y="220" on="1"/>
        <pt x="134" y="83" on="0"/>
        <pt x="258" y="-62" on="0"/>
        <pt x="389" y="-62" on="1"/>
        <pt x="414" y="-62" on="0"/>
        <pt x="465" y="-57" on="0"/>
        <pt x="506" y="-45" on="0"/>
        <pt x="532" y="-26" on="0"/>
        <pt x="532" y="-12" on="1"/>
        <pt x="532" y="0" on="1"/>
        <pt x="594" y="0" on="1"/>
        <pt x="594" y="-11" on="1"/>
        <pt x="594" y="-37" on="0"/>
        <pt x="564" y="-77" on="0"/>
        <pt x="509" y="-104" on="0"/>
        <pt x="433" y="-119" on="0"/>
        <pt x="388" y="-119" on="1"/>
        <pt x="229" y="-119" on="0"/>
        <pt x="70" y="56" on="0"/>
        <pt x="70" y="221" on="1"/>
        <pt x="70" y="303" on="0"/>
        <pt x="119" y="430" on="0"/>
        <pt x="212" y="517" on="0"/>
        <pt x="345" y="562" on="0"/>
        <pt x="428" y="562" on="1"/>
        <pt x="596" y="562" on="0"/>
        <pt x="771" y="414" on="0"/>
        <pt x="771" y="261" on="1"/>
        <pt x="771" y="214" on="0"/>
        <pt x="754" y="134" on="0"/>
        <pt x="714" y="76" on="0"/>
        <pt x="647" y="42" on="0"/>
        <pt x="597" y="42" on="1"/>
        <pt x="551" y="42" on="0"/>
        <pt x="473" y="62" on="0"/>
        <pt x="453" y="82" on="1"/>
        <pt x="430" y="63" on="0"/>
        <pt x="377" y="42" on="0"/>
        <pt x="347" y="42" on="1"/>
        <pt x="280" y="42" on="0"/>
        <pt x="209" y="125" on="0"/>
        <pt x="209" y="225" on="1"/>
        <pt x="209" y="276" on="0"/>
        <pt x="229" y="345" on="0"/>
        <pt x="274" y="389" on="0"/>
        <pt x="346" y="408" on="0"/>
        <pt x="399" y="408" on="1"/>
        <pt x="429" y="408" on="0"/>
        <pt x="483" y="398" on="0"/>
        <pt x="499" y="394" on="1"/>
        <pt x="594" y="398" on="1"/>
      </contour>
      <contour>
        <pt x="436" y="361" on="1"/>
        <pt x="431" y="362" on="0"/>
        <pt x="423" y="363" on="0"/>
        <pt x="419" y="363" on="1"/>
        <pt x="411" y="363" on="0"/>
        <pt x="399" y="361" on="0"/>
        <pt x="394" y="360" on="1"/>
        <pt x="389" y="359" on="0"/>
        <pt x="385" y="358" on="1"/>
        <pt x="382" y="342" on="0"/>
        <pt x="379" y="322" on="1"/>
        <pt x="377" y="305" on="0"/>
        <pt x="373" y="256" on="0"/>
        <pt x="373" y="225" on="1"/>
        <pt x="373" y="187" on="0"/>
        <pt x="377" y="138" on="0"/>
        <pt x="379" y="123" on="1"/>
        <pt x="382" y="105" on="0"/>
        <pt x="385" y="96" on="1"/>
        <pt x="410" y="96" on="0"/>
        <pt x="436" y="120" on="1"/>
      </contour>
    </TTGlyph>
    <TTGlyph name="atilde" xMin="55" yMin="-8" xMax="506" yMax="631">
      <contour>
        <pt x="453" y="50" on="1"/>
        <pt x="466" y="50" on="1"/>
        <pt x="475" y="50" on="0"/>
        <pt x="484" y="51" on="1"/>
        <pt x="506" y="53" on="1"/>
        <pt x="506" y="5" on="1"/>
        <pt x="488" y="2" on="0"/>
        <pt x="471" y="0" on="1"/>
        <pt x="457" y="-2" on="0"/>
        <pt x="425" y="-4" on="0"/>
        <pt x="415" y="-4" on="1"/>
        <pt x="366" y="-4" on="0"/>
        <pt x="316" y="32" on="0"/>
        <pt x="305" y="53" on="1"/>
        <pt x="283" y="25" on="0"/>
        <pt x="226" y="-8" on="0"/>
        <pt x="189" y="-8" on="1"/>
        <pt x="121" y="-8" on="0"/>
        <pt x="55" y="43" on="0"/>
        <pt x="55" y="106" on="1"/>
        <pt x="55" y="128" on="0"/>
        <pt x="56" y="168" on="0"/>
        <pt x="58" y="183" on="1"/>
        <pt x="60" y="201" on="0"/>
        <pt x="62" y="215" on="1"/>
        <pt x="294" y="272" on="1"/>
        <pt x="293" y="301" on="0"/>
        <pt x="291" y="350" on="0"/>
        <pt x="290" y="367" on="1"/>
        <pt x="288" y="387" on="0"/>
        <pt x="287" y="403" on="1"/>
        <pt x="284" y="404" on="0"/>
        <pt x="278" y="405" on="1"/>
        <pt x="273" y="406" on="0"/>
        <pt x="253" y="408" on="0"/>
        <pt x="239" y="408" on="1"/>
        <pt x="230" y="408" on="0"/>
        <pt x="214" y="407" on="0"/>
        <pt x="206" y="406" on="1"/>
        <pt x="203" y="392" on="0"/>
        <pt x="189" y="353" on="0"/>
        <pt x="159" y="318" on="0"/>
        <pt x="110" y="293" on="0"/>
        <pt x="72" y="293" on="1"/>
        <pt x="72" y="444" on="1"/>
        <pt x="104" y="447" on="0"/>
        <pt x="137" y="450" on="1"/>
        <pt x="166" y="452" on="0"/>
        <pt x="232" y="456" on="0"/>
        <pt x="263" y="456" on="1"/>
        <pt x="328" y="456" on="0"/>
        <pt x="403" y="434" on="0"/>
        <pt x="442" y="380" on="0"/>
        <pt x="453" y="290" on="0"/>
        <pt x="453" y="223" on="1"/>
      </contour>
      <contour>
        <pt x="102" y="557" on="1"/>
        <pt x="112" y="598" on="0"/>
        <pt x="153" y="630" on="0"/>
        <pt x="184" y="630" on="1"/>
        <pt x="200" y="630" on="0"/>
        <pt x="232" y="619" on="0"/>
        <pt x="263" y="606" on="0"/>
        <pt x="293" y="595" on="0"/>
        <pt x="307" y="595" on="1"/>
        <pt x="324" y="595" on="0"/>
        <pt x="341" y="616" on="0"/>
        <pt x="346" y="631" on="1"/>
        <pt x="395" y="610" on="1"/>
        <pt x="385" y="569" on="0"/>
        <pt x="344" y="537" on="0"/>
        <pt x="314" y="537" on="1"/>
        <pt x="297" y="537" on="0"/>
        <pt x="265" y="548" on="0"/>
        <pt x="234" y="561" on="0"/>
        <pt x="204" y="572" on="0"/>
        <pt x="190" y="572" on="1"/>
        <pt x="173" y="572" on="0"/>
        <pt x="156" y="551" on="0"/>
        <pt x="151" y="536" on="1"/>
      </contour>
      <contour>
        <pt x="221" y="46" on="1"/>
        <pt x="241" y="51" on="0"/>
        <pt x="278" y="92" on="0"/>
        <pt x="295" y="121" on="1"/>
        <pt x="295" y="227" on="1"/>
        <pt x="219" y="206" on="1"/>
        <pt x="217" y="190" on="0"/>
        <pt x="215" y="157" on="0"/>
        <pt x="215" y="141" on="1"/>
        <pt x="215" y="121" on="0"/>
        <pt x="216" y="87" on="0"/>
        <pt x="218" y="74" on="1"/>
        <pt x="219" y="59" on="0"/>
      </contour>
    </TTGlyph>
    <TTGlyph name="b" xMin="5" yMin="-9" xMax="524" yMax="644">
      <contour>
        <pt x="5" y="615" on="1"/>
        <pt x="64" y="615" on="1"/>
        <pt x="222" y="644" on="1"/>
        <pt x="222" y="403" on="1"/>
        <pt x="250" y="427" on="0"/>
        <pt x="317" y="455" on="0"/>
        <pt x="354" y="455" on="1"/>
        <pt x="395" y="455" on="0"/>
        <pt x="459" y="430" on="0"/>
        <pt x="502" y="375" on="0"/>
        <pt x="524" y="286" on="0"/>
        <pt x="524" y="223" on="1"/>
        <pt x="524" y="159" on="0"/>
        <pt x="500" y="70" on="0"/>
        <pt x="444" y="15" on="0"/>
        <pt x="355" y="-9" on="0"/>
        <pt x="291" y="-9" on="1"/>
        <pt x="253" y="-9" on="0"/>
        <pt x="184" y="4" on="0"/>
        <pt x="164" y="9" on="1"/>
        <pt x="64" y="4" on="1"/>
        <pt x="64" y="565" on="1"/>
        <pt x="5" y="565" on="1"/>
      </contour>
      <contour>
        <pt x="342" y="401" on="1"/>
        <pt x="309" y="401" on="0"/>
        <pt x="246" y="358" on="0"/>
        <pt x="222" y="326" on="1"/>
        <pt x="222" y="45" on="1"/>
        <pt x="239" y="40" on="0"/>
        <pt x="275" y="36" on="0"/>
        <pt x="291" y="36" on="1"/>
        <pt x="315" y="36" on="0"/>
        <pt x="329" y="39" on="1"/>
        <pt x="337" y="40" on="0"/>
        <pt x="342" y="42" on="1"/>
        <pt x="347" y="65" on="0"/>
        <pt x="351" y="93" on="1"/>
        <pt x="354" y="117" on="0"/>
        <pt x="360" y="184" on="0"/>
        <pt x="360" y="223" on="1"/>
        <pt x="360" y="271" on="0"/>
        <pt x="354" y="338" on="0"/>
        <pt x="351" y="360" on="1"/>
        <pt x="347" y="386" on="0"/>
      </contour>
    </TTGlyph>
    <TTGlyph name="backslash" xMin="40" yMin="-46" xMax="368" yMax="644">
      <contour>
        <pt x="40" y="644" on="1"/>
        <pt x="108" y="644" on="1"/>
        <pt x="368" y="-46" on="1"/>
        <pt x="300" y="-46" on="1"/>
      </contour>
    </TTGlyph>
    <TTGlyph name="bar" xMin="200" yMin="-46" xMax="262" yMax="644">
      <contour>
        <pt x="200" y="644" on="1"/>
        <pt x="262" y="644" on="1"/>
        <pt x="262" y="-46" on="1"/>
        <pt x="200" y="-46" on="1"/>
      </contour>
    </TTGlyph>
    <TTGlyph name="braceleft" xMin="30" yMin="-135" xMax="380" yMax="680">
      <contour>
        <pt x="30" y="281" on="1"/>
        <pt x="117" y="341" on="1"/>
        <pt x="114" y="381" on="0"/>
        <pt x="114" y="415" on="1"/>
        <pt x="114" y="468" on="0"/>
        <pt x="143" y="555" on="0"/>
        <pt x="207" y="622" on="0"/>
        <pt x="308" y="668" on="0"/>
        <pt x="380" y="680" on="1"/>
        <pt x="380" y="619" on="1"/>
        <pt x="355" y="615" on="0"/>
        <pt x="319" y="602" on="0"/>
        <pt x="307" y="595" on="1"/>
        <pt x="293" y="587" on="0"/>
        <pt x="282" y="577" on="1"/>
        <pt x="279" y="559" on="0"/>
        <pt x="276" y="536" on="1"/>
        <pt x="274" y="516" on="0"/>
        <pt x="270" y="462" on="0"/>
        <pt x="270" y="429" on="1"/>
        <pt x="270" y="409" on="0"/>
        <pt x="255" y="377" on="0"/>
        <pt x="232" y="352" on="0"/>
        <pt x="204" y="330" on="0"/>
        <pt x="190" y="321" on="1"/>
        <pt x="122" y="275" on="1"/>
        <pt x="194" y="222" on="1"/>
        <pt x="207" y="213" on="0"/>
        <pt x="234" y="191" on="0"/>
        <pt x="256" y="166" on="0"/>
        <pt x="270" y="135" on="0"/>
        <pt x="270" y="116" on="1"/>
        <pt x="270" y="82" on="0"/>
        <pt x="274" y="29" on="0"/>
        <pt x="276" y="9" on="1"/>
        <pt x="279" y="-14" on="0"/>
        <pt x="282" y="-32" on="1"/>
        <pt x="293" y="-42" on="0"/>
        <pt x="307" y="-50" on="1"/>
        <pt x="319" y="-57" on="0"/>
        <pt x="355" y="-71" on="0"/>
        <pt x="380" y="-74" on="1"/>
        <pt x="380" y="-135" on="1"/>
        <pt x="308" y="-123" on="0"/>
        <pt x="207" y="-77" on="0"/>
        <pt x="143" y="-10" on="0"/>
        <pt x="114" y="77" on="0"/>
        <pt x="114" y="130" on="1"/>
        <pt x="114" y="143" on="0"/>
        <pt x="115" y="184" on="0"/>
        <pt x="117" y="204" on="1"/>
        <pt x="30" y="265" on="1"/>
      </contour>
    </TTGlyph>
    <TTGlyph name="braceright" xMin="45" yMin="-135" xMax="395" yMax="680">
      <contour>
        <pt x="395" y="265" on="1"/>
        <pt x="308" y="204" on="1"/>
        <pt x="310" y="184" on="0"/>
        <pt x="311" y="143" on="0"/>
        <pt x="311" y="130" on="1"/>
        <pt x="311" y="77" on="0"/>
        <pt x="282" y="-10" on="0"/>
        <pt x="218" y="-77" on="0"/>
        <pt x="117" y="-123" on="0"/>
        <pt x="45" y="-135" on="1"/>
        <pt x="45" y="-74" on="1"/>
        <pt x="69" y="-71" on="0"/>
        <pt x="106" y="-57" on="0"/>
        <pt x="118" y="-50" on="1"/>
        <pt x="132" y="-42" on="0"/>
        <pt x="143" y="-32" on="1"/>
        <pt x="146" y="-14" on="0"/>
        <pt x="149" y="9" on="1"/>
        <pt x="151" y="29" on="0"/>
        <pt x="155" y="82" on="0"/>
        <pt x="155" y="116" on="1"/>
        <pt x="155" y="135" on="0"/>
        <pt x="169" y="166" on="0"/>
        <pt x="191" y="191" on="0"/>
        <pt x="218" y="213" on="0"/>
        <pt x="231" y="222" on="1"/>
        <pt x="303" y="275" on="1"/>
        <pt x="235" y="321" on="1"/>
        <pt x="221" y="330" on="0"/>
        <pt x="193" y="352" on="0"/>
        <pt x="170" y="377" on="0"/>
        <pt x="155" y="409" on="0"/>
        <pt x="155" y="429" on="1"/>
        <pt x="155" y="462" on="0"/>
        <pt x="151" y="516" on="0"/>
        <pt x="149" y="536" on="1"/>
        <pt x="146" y="559" on="0"/>
        <pt x="143" y="577" on="1"/>
        <pt x="132" y="587" on="0"/>
        <pt x="118" y="595" on="1"/>
        <pt x="106" y="602" on="0"/>
        <pt x="69" y="615" on="0"/>
        <pt x="45" y="619" on="1"/>
        <pt x="45" y="680" on="1"/>
        <pt x="117" y="668" on="0"/>
        <pt x="218" y="622" on="0"/>
        <pt x="282" y="555" on="0"/>
        <pt x="311" y="468" on="0"/>
        <pt x="311" y="415" on="1"/>
        <pt x="311" y="381" on="0"/>
        <pt x="308" y="341" on="1"/>
        <pt x="395" y="281" on="1"/>
      </contour>
    </TTGlyph>
    <TTGlyph name="bracketleft" xMin="50" yMin="-105" xMax="307" yMax="644">
      <contour>
        <pt x="307" y="644" on="1"/>
        <pt x="307" y="586" on="1"/>
        <pt x="218" y="586" on="1"/>
        <pt x="218" y="-47" on="1"/>
        <pt x="307" y="-47" on="1"/>
        <pt x="307" y="-105" on="1"/>
        <pt x="50" y="-105" on="1"/>
        <pt x="50" y="644" on="1"/>
      </contour>
    </TTGlyph>
    <TTGlyph name="bracketright" xMin="75" yMin="-105" xMax="332" yMax="644">
      <contour>
        <pt x="75" y="-105" on="1"/>
        <pt x="75" y="-47" on="1"/>
        <pt x="164" y="-47" on="1"/>
        <pt x="164" y="586" on="1"/>
        <pt x="75" y="586" on="1"/>
        <pt x="75" y="644" on="1"/>
        <pt x="332" y="644" on="1"/>
        <pt x="332" y="-105" on="1"/>
      </contour>
    </TTGlyph>
    <TTGlyph name="brokenbar" xMin="200" yMin="-46" xMax="262" yMax="644">
      <contour>
        <pt x="200" y="644" on="1"/>
        <pt x="262" y="644" on="1"/>
        <pt x="262" y="334" on="1"/>
        <pt x="200" y="334" on="1"/>
      </contour>
      <contour>
        <pt x="200" y="269" on="1"/>
        <pt x="262" y="269" on="1"/>
        <pt x="262" y="-46" on="1"/>
        <pt x="200" y="-46" on="1"/>
      </contour>
    </TTGlyph>
    <TTGlyph name="bullet" xMin="80" yMin="187" xMax="296" yMax="412">
      <contour>
        <pt x="80" y="299" on="1"/>
        <pt x="80" y="357" on="0"/>
        <pt x="129" y="412" on="0"/>
        <pt x="188" y="412" on="1"/>
        <pt x="250" y="412" on="0"/>
        <pt x="296" y="357" on="0"/>
        <pt x="296" y="299" on="1"/>
        <pt x="296" y="240" on="0"/>
        <pt x="246" y="187" on="0"/>
        <pt x="188" y="187" on="1"/>
        <pt x="129" y="187" on="0"/>
        <pt x="80" y="240" on="0"/>
      </contour>
    </TTGlyph>
    <TTGlyph name="c" xMin="35" yMin="-10" xMax="420" yMax="456">
      <contour>
        <pt x="406" y="295" on="1"/>
        <pt x="364" y="295" on="0"/>
        <pt x="313" y="324" on="0"/>
        <pt x="283" y="362" on="0"/>
        <pt x="271" y="401" on="0"/>
        <pt x="270" y="411" on="1"/>
        <pt x="246" y="411" on="1"/>
        <pt x="239" y="411" on="0"/>
        <pt x="229" y="409" on="0"/>
        <pt x="225" y="408" on="1"/>
        <pt x="221" y="406" on="0"/>
        <pt x="217" y="405" on="1"/>
        <pt x="212" y="381" on="0"/>
        <pt x="208" y="353" on="1"/>
        <pt x="204" y="329" on="0"/>
        <pt x="199" y="262" on="0"/>
        <pt x="199" y="223" on="1"/>
        <pt x="199" y="184" on="0"/>
        <pt x="204" y="118" on="0"/>
        <pt x="208" y="94" on="1"/>
        <pt x="212" y="66" on="0"/>
        <pt x="217" y="43" on="1"/>
        <pt x="221" y="41" on="0"/>
        <pt x="228" y="40" on="1"/>
        <pt x="233" y="39" on="0"/>
        <pt x="251" y="38" on="0"/>
        <pt x="264" y="38" on="1"/>
        <pt x="286" y="38" on="0"/>
        <pt x="326" y="46" on="0"/>
        <pt x="355" y="67" on="0"/>
        <pt x="372" y="103" on="0"/>
        <pt x="372" y="131" on="1"/>
        <pt x="420" y="131" on="1"/>
        <pt x="420" y="83" on="0"/>
        <pt x="388" y="27" on="0"/>
        <pt x="339" y="-2" on="0"/>
        <pt x="282" y="-10" on="0"/>
        <pt x="258" y="-10" on="1"/>
        <pt x="197" y="-10" on="0"/>
        <pt x="112" y="15" on="0"/>
        <pt x="59" y="70" on="0"/>
        <pt x="35" y="159" on="0"/>
        <pt x="35" y="223" on="1"/>
        <pt x="35" y="287" on="0"/>
        <pt x="56" y="376" on="0"/>
        <pt x="108" y="431" on="0"/>
        <pt x="195" y="456" on="0"/>
        <pt x="262" y="456" on="1"/>
        <pt x="286" y="456" on="0"/>
        <pt x="337" y="454" on="0"/>
        <pt x="358" y="452" on="1"/>
        <pt x="383" y="450" on="0"/>
        <pt x="406" y="449" on="1"/>
      </contour>
    </TTGlyph>
    <TTGlyph name="ccedilla" xMin="35" yMin="-166" xMax="420" yMax="456">
      <contour>
        <pt x="406" y="295" on="1"/>
        <pt x="364" y="295" on="0"/>
        <pt x="313" y="324" on="0"/>
        <pt x="283" y="362" on="0"/>
        <pt x="271" y="401" on="0"/>
        <pt x="270" y="411" on="1"/>
        <pt x="246" y="411" on="1"/>
        <pt x="239" y="411" on="0"/>
        <pt x="229" y="409" on="0"/>
        <pt x="225" y="408" on="1"/>
        <pt x="221" y="406" on="0"/>
        <pt x="217" y="405" on="1"/>
        <pt x="212" y="381" on="0"/>
        <pt x="208" y="353" on="1"/>
        <pt x="204" y="329" on="0"/>
        <pt x="199" y="262" on="0"/>
        <pt x="199" y="223" on="1"/>
        <pt x="199" y="184" on="0"/>
        <pt x="204" y="118" on="0"/>
        <pt x="208" y="94" on="1"/>
        <pt x="212" y="66" on="0"/>
        <pt x="217" y="43" on="1"/>
        <pt x="221" y="41" on="0"/>
        <pt x="228" y="40" on="1"/>
        <pt x="233" y="39" on="0"/>
        <pt x="251" y="38" on="0"/>
        <pt x="264" y="38" on="1"/>
        <pt x="286" y="38" on="0"/>
        <pt x="326" y="46" on="0"/>
        <pt x="355" y="67" on="0"/>
        <pt x="372" y="103" on="0"/>
        <pt x="372" y="131" on="1"/>
        <pt x="420" y="131" on="1"/>
        <pt x="420" y="83" on="0"/>
        <pt x="388" y="27" on="0"/>
        <pt x="339" y="-2" on="0"/>
        <pt x="310" y="-6" on="1"/>
        <pt x="295" y="-8" on="0"/>
        <pt x="281" y="-9" on="1"/>
        <pt x="281" y="-34" on="1"/>
        <pt x="288" y="-34" on="1"/>
        <pt x="317" y="-34" on="0"/>
        <pt x="353" y="-67" on="0"/>
        <pt x="353" y="-94" on="1"/>
        <pt x="353" y="-126" on="0"/>
        <pt x="311" y="-166" on="0"/>
        <pt x="271" y="-166" on="1"/>
        <pt x="212" y="-166" on="1"/>
        <pt x="212" y="-116" on="1"/>
        <pt x="271" y="-116" on="1"/>
        <pt x="282" y="-116" on="0"/>
        <pt x="297" y="-108" on="0"/>
        <pt x="297" y="-95" on="1"/>
        <pt x="297" y="-84" on="0"/>
        <pt x="281" y="-74" on="0"/>
        <pt x="269" y="-74" on="1"/>
        <pt x="219" y="-74" on="1"/>
        <pt x="219" y="-8" on="1"/>
        <pt x="182" y="-6" on="0"/>
        <pt x="154" y="2" on="1"/>
        <pt x="112" y="15" on="0"/>
        <pt x="59" y="70" on="0"/>
        <pt x="35" y="159" on="0"/>
        <pt x="35" y="223" on="1"/>
        <pt x="35" y="287" on="0"/>
        <pt x="56" y="376" on="0"/>
        <pt x="108" y="431" on="0"/>
        <pt x="195" y="456" on="0"/>
        <pt x="262" y="456" on="1"/>
        <pt x="286" y="456" on="0"/>
        <pt x="337" y="454" on="0"/>
        <pt x="358" y="452" on="1"/>
        <pt x="383" y="450" on="0"/>
        <pt x="406" y="449" on="1"/>
      </contour>
    </TTGlyph>
    <TTGlyph name="cedilla" xMin="209" yMin="-166" xMax="350" yMax="10">
      <contour>
        <pt x="278" y="10" on="1"/>
        <pt x="278" y="-34" on="1"/>
        <pt x="285" y="-34" on="1"/>
        <pt x="314" y="-34" on="0"/>
        <pt x="350" y="-67" on="0"/>
        <pt x="350" y="-94" on="1"/>
        <pt x="350" y="-126" on="0"/>
        <pt x="308" y="-166" on="0"/>
        <pt x="268" y="-166" on="1"/>
        <pt x="209" y="-166" on="1"/>
        <pt x="209" y="-116" on="1"/>
        <pt x="268" y="-116" on="1"/>
        <pt x="279" y="-116" on="0"/>
        <pt x="294" y="-108" on="0"/>
        <pt x="294" y="-95" on="1"/>
        <pt x="294" y="-84" on="0"/>
        <pt x="278" y="-74" on="0"/>
        <pt x="266" y="-74" on="1"/>
        <pt x="216" y="-74" on="1"/>
        <pt x="216" y="10" on="1"/>
      </contour>
    </TTGlyph>
    <TTGlyph name="cent" xMin="50" yMin="-66" xMax="471" yMax="624">
      <contour>
        <pt x="267" y="31" on="1"/>
        <pt x="209" y="33" on="0"/>
        <pt x="127" y="61" on="0"/>
        <pt x="74" y="117" on="0"/>
        <pt x="50" y="203" on="0"/>
        <pt x="50" y="264" on="1"/>
        <pt x="50" y="325" on="0"/>
        <pt x="72" y="412" on="0"/>
        <pt x="123" y="468" on="0"/>
        <pt x="206" y="494" on="0"/>
        <pt x="267" y="496" on="1"/>
        <pt x="267" y="624" on="1"/>
        <pt x="329" y="624" on="1"/>
        <pt x="329" y="495" on="1"/>
        <pt x="363" y="493" on="0"/>
        <pt x="426" y="485" on="0"/>
        <pt x="442" y="483" on="1"/>
        <pt x="471" y="490" on="1"/>
        <pt x="471" y="337" on="1"/>
        <pt x="438" y="337" on="0"/>
        <pt x="395" y="362" on="0"/>
        <pt x="369" y="396" on="0"/>
        <pt x="357" y="434" on="0"/>
        <pt x="355" y="447" on="1"/>
        <pt x="329" y="449" on="1"/>
        <pt x="329" y="81" on="1"/>
        <pt x="365" y="86" on="0"/>
        <pt x="417" y="125" on="0"/>
        <pt x="417" y="172" on="1"/>
        <pt x="465" y="172" on="1"/>
        <pt x="465" y="132" on="0"/>
        <pt x="440" y="80" on="0"/>
        <pt x="401" y="49" on="0"/>
        <pt x="352" y="34" on="0"/>
        <pt x="329" y="32" on="1"/>
        <pt x="329" y="-66" on="1"/>
        <pt x="267" y="-66" on="1"/>
      </contour>
      <contour>
        <pt x="267" y="80" on="1"/>
        <pt x="267" y="452" on="1"/>
        <pt x="232" y="446" on="1"/>
        <pt x="227" y="422" on="0"/>
        <pt x="223" y="394" on="1"/>
        <pt x="219" y="370" on="0"/>
        <pt x="214" y="303" on="0"/>
        <pt x="214" y="264" on="1"/>
        <pt x="214" y="225" on="0"/>
        <pt x="219" y="159" on="0"/>
        <pt x="223" y="135" on="1"/>
        <pt x="227" y="107" on="0"/>
        <pt x="232" y="84" on="1"/>
      </contour>
    </TTGlyph>
    <TTGlyph name="circumflex" xMin="78" yMin="486" xMax="442" yMax="703">
      <contour>
        <pt x="215" y="680" on="1"/>
        <pt x="222" y="688" on="0"/>
        <pt x="243" y="703" on="0"/>
        <pt x="256" y="703" on="1"/>
        <pt x="264" y="703" on="1"/>
        <pt x="287" y="703" on="0"/>
        <pt x="305" y="680" on="1"/>
        <pt x="442" y="514" on="1"/>
        <pt x="417" y="486" on="1"/>
        <pt x="260" y="573" on="1"/>
        <pt x="103" y="486" on="1"/>
        <pt x="78" y="514" on="1"/>
      </contour>
    </TTGlyph>
    <TTGlyph name="colon" xMin="80" yMin="-24" xMax="246" yMax="456">
      <contour>
        <pt x="80" y="62" on="1"/>
        <pt x="80" y="107" on="0"/>
        <pt x="118" y="149" on="0"/>
        <pt x="163" y="149" on="1"/>
        <pt x="211" y="149" on="0"/>
        <pt x="246" y="107" on="0"/>
        <pt x="246" y="62" on="1"/>
        <pt x="246" y="17" on="0"/>
        <pt x="208" y="-24" on="0"/>
        <pt x="163" y="-24" on="1"/>
        <pt x="118" y="-24" on="0"/>
        <pt x="80" y="17" on="0"/>
      </contour>
      <contour>
        <pt x="80" y="369" on="1"/>
        <pt x="80" y="414" on="0"/>
        <pt x="118" y="456" on="0"/>
        <pt x="163" y="456" on="1"/>
        <pt x="211" y="456" on="0"/>
        <pt x="246" y="414" on="0"/>
        <pt x="246" y="369" on="1"/>
        <pt x="246" y="324" on="0"/>
        <pt x="208" y="283" on="0"/>
        <pt x="163" y="283" on="1"/>
        <pt x="118" y="283" on="0"/>
        <pt x="80" y="324" on="0"/>
      </contour>
    </TTGlyph>
    <TTGlyph name="comma" xMin="50" yMin="-125" xMax="216" yMax="149">
      <contour>
        <pt x="50" y="62" on="1"/>
        <pt x="50" y="107" on="0"/>
        <pt x="88" y="149" on="0"/>
        <pt x="133" y="149" on="1"/>
        <pt x="181" y="149" on="0"/>
        <pt x="216" y="107" on="0"/>
        <pt x="216" y="62" on="1"/>
        <pt x="216" y="8" on="0"/>
        <pt x="210" y="-63" on="0"/>
        <pt x="183" y="-107" on="0"/>
        <pt x="126" y="-125" on="0"/>
        <pt x="74" y="-125" on="1"/>
        <pt x="74" y="-77" on="1"/>
        <pt x="82" y="-77" on="1"/>
        <pt x="124" y="-77" on="0"/>
        <pt x="160" y="-55" on="0"/>
        <pt x="162" y="-21" on="1"/>
        <pt x="148" y="-24" on="0"/>
        <pt x="133" y="-24" on="1"/>
        <pt x="88" y="-24" on="0"/>
        <pt x="50" y="17" on="0"/>
      </contour>
    </TTGlyph>
    <TTGlyph name="copyright" xMin="50" yMin="-7" xMax="520" yMax="459">
      <contour>
        <pt x="50" y="226" on="1"/>
        <pt x="50" y="278" on="0"/>
        <pt x="84" y="363" on="0"/>
        <pt x="146" y="425" on="0"/>
        <pt x="233" y="459" on="0"/>
        <pt x="285" y="459" on="1"/>
        <pt x="339" y="459" on="0"/>
        <pt x="426" y="427" on="0"/>
        <pt x="487" y="366" on="0"/>
        <pt x="520" y="280" on="0"/>
        <pt x="520" y="226" on="1"/>
        <pt x="520" y="174" on="0"/>
        <pt x="486" y="88" on="0"/>
        <pt x="424" y="27" on="0"/>
        <pt x="337" y="-7" on="0"/>
        <pt x="285" y="-7" on="1"/>
        <pt x="231" y="-7" on="0"/>
        <pt x="144" y="25" on="0"/>
        <pt x="83" y="86" on="0"/>
        <pt x="50" y="172" on="0"/>
      </contour>
      <contour>
        <pt x="118" y="227" on="1"/>
        <pt x="118" y="137" on="0"/>
        <pt x="205" y="51" on="0"/>
        <pt x="285" y="51" on="1"/>
        <pt x="360" y="51" on="0"/>
        <pt x="452" y="142" on="0"/>
        <pt x="452" y="227" on="1"/>
        <pt x="452" y="315" on="0"/>
        <pt x="365" y="401" on="0"/>
        <pt x="285" y="401" on="1"/>
        <pt x="210" y="401" on="0"/>
        <pt x="118" y="312" on="0"/>
      </contour>
      <contour>
        <pt x="288" y="318" on="1"/>
        <pt x="285" y="307" on="0"/>
        <pt x="283" y="293" on="1"/>
        <pt x="281" y="281" on="0"/>
        <pt x="279" y="247" on="0"/>
        <pt x="279" y="227" on="1"/>
        <pt x="279" y="208" on="0"/>
        <pt x="281" y="175" on="0"/>
        <pt x="283" y="162" on="1"/>
        <pt x="285" y="147" on="0"/>
        <pt x="288" y="135" on="1"/>
        <pt x="310" y="135" on="1"/>
        <pt x="328" y="135" on="0"/>
        <pt x="346" y="157" on="0"/>
        <pt x="346" y="185" on="1"/>
        <pt x="382" y="185" on="1"/>
        <pt x="382" y="144" on="0"/>
        <pt x="341" y="101" on="0"/>
        <pt x="290" y="101" on="1"/>
        <pt x="227" y="101" on="0"/>
        <pt x="174" y="157" on="0"/>
        <pt x="174" y="227" on="1"/>
        <pt x="174" y="262" on="0"/>
        <pt x="185" y="310" on="0"/>
        <pt x="213" y="340" on="0"/>
        <pt x="261" y="353" on="0"/>
        <pt x="297" y="353" on="1"/>
        <pt x="310" y="353" on="0"/>
        <pt x="338" y="351" on="0"/>
        <pt x="349" y="349" on="1"/>
        <pt x="362" y="347" on="0"/>
        <pt x="374" y="345" on="1"/>
        <pt x="374" y="256" on="1"/>
        <pt x="353" y="256" on="0"/>
        <pt x="326" y="271" on="0"/>
        <pt x="310" y="292" on="0"/>
        <pt x="303" y="314" on="0"/>
        <pt x="302" y="322" on="1"/>
      </contour>
    </TTGlyph>
    <TTGlyph name="currency" xMin="30" yMin="-10" xMax="598" yMax="586">
      <contour>
        <pt x="30" y="34" on="1"/>
        <pt x="129" y="133" on="1"/>
        <pt x="81" y="193" on="0"/>
        <pt x="81" y="288" on="1"/>
        <pt x="81" y="382" on="0"/>
        <pt x="129" y="442" on="1"/>
        <pt x="30" y="542" on="1"/>
        <pt x="73" y="586" on="1"/>
        <pt x="175" y="484" on="1"/>
        <pt x="232" y="521" on="0"/>
        <pt x="314" y="521" on="1"/>
        <pt x="396" y="521" on="0"/>
        <pt x="453" y="484" on="1"/>
        <pt x="555" y="586" on="1"/>
        <pt x="598" y="542" on="1"/>
        <pt x="499" y="442" on="1"/>
        <pt x="547" y="382" on="0"/>
        <pt x="547" y="288" on="1"/>
        <pt x="547" y="193" on="0"/>
        <pt x="499" y="133" on="1"/>
        <pt x="598" y="34" on="1"/>
        <pt x="555" y="-10" on="1"/>
        <pt x="453" y="92" on="1"/>
        <pt x="396" y="55" on="0"/>
        <pt x="314" y="55" on="1"/>
        <pt x="232" y="55" on="0"/>
        <pt x="175" y="92" on="1"/>
        <pt x="73" y="-10" on="1"/>
      </contour>
      <contour>
        <pt x="149" y="289" on="1"/>
        <pt x="149" y="199" on="0"/>
        <pt x="234" y="113" on="0"/>
        <pt x="314" y="113" on="1"/>
        <pt x="394" y="113" on="0"/>
        <pt x="479" y="199" on="0"/>
        <pt x="479" y="289" on="1"/>
        <pt x="479" y="377" on="0"/>
        <pt x="394" y="463" on="0"/>
        <pt x="314" y="463" on="1"/>
        <pt x="234" y="463" on="0"/>
        <pt x="149" y="378" on="0"/>
      </contour>
    </TTGlyph>
    <TTGlyph name="d" xMin="35" yMin="-8" xMax="548" yMax="644">
      <contour>
        <pt x="278" y="615" on="1"/>
        <pt x="337" y="615" on="1"/>
        <pt x="495" y="644" on="1"/>
        <pt x="495" y="50" on="1"/>
        <pt x="508" y="50" on="1"/>
        <pt x="517" y="50" on="0"/>
        <pt x="526" y="51" on="1"/>
        <pt x="548" y="53" on="1"/>
        <pt x="548" y="5" on="1"/>
        <pt x="530" y="2" on="0"/>
        <pt x="513" y="0" on="1"/>
        <pt x="499" y="-2" on="0"/>
        <pt x="467" y="-4" on="0"/>
        <pt x="457" y="-4" on="1"/>
        <pt x="408" y="-4" on="0"/>
        <pt x="358" y="32" on="0"/>
        <pt x="347" y="53" on="1"/>
        <pt x="318" y="24" on="0"/>
        <pt x="245" y="-8" on="0"/>
        <pt x="205" y="-8" on="1"/>
        <pt x="164" y="-8" on="0"/>
        <pt x="100" y="17" on="0"/>
        <pt x="57" y="72" on="0"/>
        <pt x="35" y="161" on="0"/>
        <pt x="35" y="224" on="1"/>
        <pt x="35" y="288" on="0"/>
        <pt x="59" y="377" on="0"/>
        <pt x="115" y="432" on="0"/>
        <pt x="203" y="456" on="0"/>
        <pt x="268" y="456" on="1"/>
        <pt x="286" y="456" on="0"/>
        <pt x="303" y="454" on="1"/>
        <pt x="337" y="450" on="1"/>
        <pt x="337" y="565" on="1"/>
        <pt x="278" y="565" on="1"/>
      </contour>
      <contour>
        <pt x="217" y="46" on="1"/>
        <pt x="250" y="46" on="0"/>
        <pt x="313" y="88" on="0"/>
        <pt x="337" y="120" on="1"/>
        <pt x="337" y="401" on="1"/>
        <pt x="320" y="406" on="0"/>
        <pt x="283" y="411" on="0"/>
        <pt x="268" y="411" on="1"/>
        <pt x="255" y="411" on="0"/>
        <pt x="237" y="409" on="0"/>
        <pt x="230" y="408" on="1"/>
        <pt x="222" y="406" on="0"/>
        <pt x="217" y="405" on="1"/>
        <pt x="212" y="381" on="0"/>
        <pt x="208" y="353" on="1"/>
        <pt x="204" y="329" on="0"/>
        <pt x="199" y="263" on="0"/>
        <pt x="199" y="224" on="1"/>
        <pt x="199" y="176" on="0"/>
        <pt x="204" y="109" on="0"/>
        <pt x="208" y="87" on="1"/>
        <pt x="212" y="61" on="0"/>
      </contour>
    </TTGlyph>
    <TTGlyph name="degree" xMin="50" yMin="310" xMax="328" yMax="586">
      <contour>
        <pt x="50" y="448" on="1"/>
        <pt x="50" y="509" on="0"/>
        <pt x="127" y="586" on="0"/>
        <pt x="189" y="586" on="1"/>
        <pt x="254" y="586" on="0"/>
        <pt x="328" y="513" on="0"/>
        <pt x="328" y="448" on="1"/>
        <pt x="328" y="387" on="0"/>
        <pt x="251" y="310" on="0"/>
        <pt x="189" y="310" on="1"/>
        <pt x="124" y="310" on="0"/>
        <pt x="50" y="384" on="0"/>
      </contour>
      <contour>
        <pt x="118" y="449" on="1"/>
        <pt x="118" y="408" on="0"/>
        <pt x="155" y="368" on="0"/>
        <pt x="189" y="368" on="1"/>
        <pt x="221" y="368" on="0"/>
        <pt x="260" y="411" on="0"/>
        <pt x="260" y="449" on="1"/>
        <pt x="260" y="528" on="0"/>
        <pt x="189" y="528" on="1"/>
        <pt x="157" y="528" on="0"/>
        <pt x="118" y="487" on="0"/>
      </contour>
    </TTGlyph>
    <TTGlyph name="dieresis" xMin="86" yMin="523" xMax="433" yMax="672">
      <contour>
        <pt x="86" y="597" on="1"/>
        <pt x="86" y="635" on="0"/>
        <pt x="119" y="672" on="0"/>
        <pt x="157" y="672" on="1"/>
        <pt x="198" y="672" on="0"/>
        <pt x="228" y="635" on="0"/>
        <pt x="228" y="597" on="1"/>
        <pt x="228" y="559" on="0"/>
        <pt x="195" y="523" on="0"/>
        <pt x="157" y="523" on="1"/>
        <pt x="119" y="523" on="0"/>
        <pt x="86" y="559" on="0"/>
      </contour>
      <contour>
        <pt x="291" y="597" on="1"/>
        <pt x="291" y="635" on="0"/>
        <pt x="324" y="672" on="0"/>
        <pt x="362" y="672" on="1"/>
        <pt x="403" y="672" on="0"/>
        <pt x="433" y="635" on="0"/>
        <pt x="433" y="597" on="1"/>
        <pt x="433" y="559" on="0"/>
        <pt x="400" y="523" on="0"/>
        <pt x="362" y="523" on="1"/>
        <pt x="324" y="523" on="0"/>
        <pt x="291" y="559" on="0"/>
      </contour>
    </TTGlyph>
    <TTGlyph name="divide" xMin="50" yMin="69" xMax="422" yMax="456">
      <contour>
        <pt x="422" y="292" on="1"/>
        <pt x="422" y="234" on="1"/>
        <pt x="50" y="234" on="1"/>
        <pt x="50" y="292" on="1"/>
      </contour>
      <contour>
        <pt x="194" y="112" on="1"/>
        <pt x="194" y="135" on="0"/>
        <pt x="213" y="156" on="0"/>
        <pt x="236" y="156" on="1"/>
        <pt x="259" y="156" on="0"/>
        <pt x="277" y="135" on="0"/>
        <pt x="277" y="112" on="1"/>
        <pt x="277" y="69" on="0"/>
        <pt x="236" y="69" on="1"/>
        <pt x="213" y="69" on="0"/>
        <pt x="194" y="89" on="0"/>
      </contour>
      <contour>
        <pt x="194" y="412" on="1"/>
        <pt x="194" y="435" on="0"/>
        <pt x="213" y="456" on="0"/>
        <pt x="236" y="456" on="1"/>
        <pt x="259" y="456" on="0"/>
        <pt x="277" y="435" on="0"/>
        <pt x="277" y="412" on="1"/>
        <pt x="277" y="369" on="0"/>
        <pt x="236" y="369" on="1"/>
        <pt x="213" y="369" on="0"/>
        <pt x="194" y="389" on="0"/>
      </contour>
    </TTGlyph>
    <TTGlyph name="dollar" xMin="50" yMin="-66" xMax="518" yMax="624">
      <contour>
        <pt x="50" y="404" on="1"/>
        <pt x="50" y="436" on="0"/>
        <pt x="72" y="492" on="0"/>
        <pt x="121" y="534" on="0"/>
        <pt x="200" y="562" on="0"/>
        <pt x="257" y="565" on="1"/>
        <pt x="257" y="624" on="1"/>
        <pt x="319" y="624" on="1"/>
        <pt x="319" y="565" on="1"/>
        <pt x="342" y="563" on="0"/>
        <pt x="381" y="555" on="0"/>
        <pt x="397" y="550" on="1"/>
        <pt x="491" y="569" on="1"/>
        <pt x="491" y="389" on="1"/>
        <pt x="429" y="391" on="0"/>
        <pt x="352" y="456" on="0"/>
        <pt x="344" y="514" on="1"/>
        <pt x="319" y="519" on="1"/>
        <pt x="319" y="344" on="1"/>
        <pt x="326" y="342" on="1"/>
        <pt x="357" y="332" on="0"/>
        <pt x="425" y="302" on="0"/>
        <pt x="481" y="259" on="0"/>
        <pt x="518" y="202" on="0"/>
        <pt x="518" y="165" on="1"/>
        <pt x="518" y="80" on="0"/>
        <pt x="406" y="-6" on="0"/>
        <pt x="309" y="-13" on="1"/>
        <pt x="309" y="-66" on="1"/>
        <pt x="247" y="-66" on="1"/>
        <pt x="247" y="-14" on="1"/>
        <pt x="209" y="-13" on="0"/>
        <pt x="161" y="-4" on="0"/>
        <pt x="147" y="1" on="1"/>
        <pt x="63" y="-15" on="1"/>
        <pt x="63" y="194" on="1"/>
        <pt x="100" y="193" on="0"/>
        <pt x="156" y="168" on="0"/>
        <pt x="195" y="125" on="0"/>
        <pt x="217" y="66" on="0"/>
        <pt x="219" y="32" on="1"/>
        <pt x="247" y="30" on="1"/>
        <pt x="247" y="220" on="1"/>
        <pt x="214" y="234" on="0"/>
        <pt x="145" y="263" on="0"/>
        <pt x="87" y="303" on="0"/>
        <pt x="50" y="360" on="0"/>
      </contour>
      <contour>
        <pt x="345" y="106" on="1"/>
        <pt x="345" y="129" on="0"/>
        <pt x="326" y="167" on="0"/>
        <pt x="309" y="182" on="1"/>
        <pt x="309" y="32" on="1"/>
        <pt x="333" y="34" on="1"/>
        <pt x="336" y="41" on="0"/>
        <pt x="339" y="52" on="1"/>
        <pt x="341" y="61" on="0"/>
        <pt x="345" y="88" on="0"/>
      </contour>
      <contour>
        <pt x="221" y="452" on="1"/>
        <pt x="221" y="423" on="0"/>
        <pt x="239" y="386" on="0"/>
        <pt x="257" y="373" on="1"/>
        <pt x="257" y="521" on="1"/>
        <pt x="234" y="518" on="1"/>
        <pt x="230" y="509" on="0"/>
        <pt x="227" y="498" on="1"/>
        <pt x="225" y="489" on="0"/>
        <pt x="221" y="465" on="0"/>
      </contour>
    </TTGlyph>
    <TTGlyph name="dotlessi" xMin="30" yMin="0" xMax="306" yMax="465">
      <contour>
        <pt x="30" y="441" on="1"/>
        <pt x="89" y="441" on="1"/>
        <pt x="247" y="465" on="1"/>
        <pt x="247" y="51" on="1"/>
        <pt x="306" y="51" on="1"/>
        <pt x="306" y="0" on="1"/>
        <pt x="30" y="0" on="1"/>
        <pt x="30" y="51" on="1"/>
        <pt x="89" y="51" on="1"/>
        <pt x="89" y="391" on="1"/>
        <pt x="30" y="391" on="1"/>
      </contour>
    </TTGlyph>
    <TTGlyph name="e" xMin="35" yMin="-10" xMax="451" yMax="456">
      <contour>
        <pt x="262" y="456" on="1"/>
        <pt x="317" y="456" on="0"/>
        <pt x="389" y="435" on="0"/>
        <pt x="433" y="389" on="0"/>
        <pt x="451" y="314" on="0"/>
        <pt x="451" y="259" on="1"/>
        <pt x="451" y="242" on="0"/>
        <pt x="449" y="217" on="0"/>
        <pt x="448" y="209" on="1"/>
        <pt x="447" y="199" on="0"/>
        <pt x="446" y="194" on="1"/>
        <pt x="199" y="194" on="1"/>
        <pt x="200" y="160" on="0"/>
        <pt x="206" y="105" on="0"/>
        <pt x="209" y="85" on="1"/>
        <pt x="213" y="61" on="0"/>
        <pt x="217" y="43" on="1"/>
        <pt x="220" y="41" on="0"/>
        <pt x="226" y="40" on="1"/>
        <pt x="231" y="39" on="0"/>
        <pt x="250" y="38" on="0"/>
        <pt x="265" y="38" on="1"/>
        <pt x="290" y="38" on="0"/>
        <pt x="335" y="45" on="0"/>
        <pt x="369" y="61" on="0"/>
        <pt x="388" y="90" on="0"/>
        <pt x="388" y="111" on="1"/>
        <pt x="442" y="111" on="1"/>
        <pt x="442" y="69" on="0"/>
        <pt x="405" y="21" on="0"/>
        <pt x="350" y="-4" on="0"/>
        <pt x="286" y="-10" on="0"/>
        <pt x="258" y="-10" on="1"/>
        <pt x="197" y="-10" on="0"/>
        <pt x="112" y="15" on="0"/>
        <pt x="59" y="70" on="0"/>
        <pt x="35" y="159" on="0"/>
        <pt x="35" y="223" on="1"/>
        <pt x="35" y="287" on="0"/>
        <pt x="56" y="376" on="0"/>
        <pt x="108" y="431" on="0"/>
        <pt x="195" y="456" on="0"/>
      </contour>
      <contour>
        <pt x="217" y="405" on="1"/>
        <pt x="212" y="383" on="0"/>
        <pt x="208" y="357" on="1"/>
        <pt x="205" y="334" on="0"/>
        <pt x="199" y="273" on="0"/>
        <pt x="199" y="237" on="1"/>
        <pt x="296" y="237" on="1"/>
        <pt x="294" y="279" on="0"/>
        <pt x="288" y="342" on="0"/>
        <pt x="284" y="363" on="1"/>
        <pt x="280" y="388" on="0"/>
        <pt x="275" y="405" on="1"/>
        <pt x="272" y="406" on="0"/>
        <pt x="268" y="408" on="1"/>
        <pt x="264" y="409" on="0"/>
        <pt x="253" y="411" on="0"/>
        <pt x="246" y="411" on="1"/>
        <pt x="239" y="411" on="0"/>
        <pt x="229" y="409" on="0"/>
        <pt x="225" y="408" on="1"/>
        <pt x="221" y="406" on="0"/>
      </contour>
    </TTGlyph>
    <TTGlyph name="eacute" xMin="35" yMin="-10" xMax="464" yMax="703">
      <contour>
        <pt x="262" y="456" on="1"/>
        <pt x="317" y="456" on="0"/>
        <pt x="389" y="435" on="0"/>
        <pt x="433" y="389" on="0"/>
        <pt x="451" y="314" on="0"/>
        <pt x="451" y="259" on="1"/>
        <pt x="451" y="242" on="0"/>
        <pt x="449" y="217" on="0"/>
        <pt x="448" y="209" on="1"/>
        <pt x="447" y="199" on="0"/>
        <pt x="446" y="194" on="1"/>
        <pt x="199" y="194" on="1"/>
        <pt x="200" y="160" on="0"/>
        <pt x="206" y="105" on="0"/>
        <pt x="209" y="85" on="1"/>
        <pt x="213" y="61" on="0"/>
        <pt x="217" y="43" on="1"/>
        <pt x="220" y="41" on="0"/>
        <pt x="226" y="40" on="1"/>
        <pt x="231" y="39" on="0"/>
        <pt x="250" y="38" on="0"/>
        <pt x="265" y="38" on="1"/>
        <pt x="290" y="38" on="0"/>
        <pt x="335" y="45" on="0"/>
        <pt x="369" y="61" on="0"/>
        <pt x="388" y="90" on="0"/>
        <pt x="388" y="111" on="1"/>
        <pt x="442" y="111" on="1"/>
        <pt x="442" y="69" on="0"/>
        <pt x="405" y="21" on="0"/>
        <pt x="350" y="-4" on="0"/>
        <pt x="286" y="-10" on="0"/>
        <pt x="258" y="-10" on="1"/>
        <pt x="197" y="-10" on="0"/>
        <pt x="112" y="15" on="0"/>
        <pt x="59" y="70" on="0"/>
        <pt x="35" y="159" on="0"/>
        <pt x="35" y="223" on="1"/>
        <pt x="35" y="287" on="0"/>
        <pt x="56" y="376" on="0"/>
        <pt x="108" y="431" on="0"/>
        <pt x="195" y="456" on="0"/>
      </contour>
      <contour>
        <pt x="217" y="405" on="1"/>
        <pt x="212" y="383" on="0"/>
        <pt x="208" y="357" on="1"/>
        <pt x="205" y="334" on="0"/>
        <pt x="199" y="273" on="0"/>
        <pt x="199" y="237" on="1"/>
        <pt x="296" y="237" on="1"/>
        <pt x="294" y="279" on="0"/>
        <pt x="288" y="342" on="0"/>
        <pt x="284" y="363" on="1"/>
        <pt x="280" y="388" on="0"/>
        <pt x="275" y="405" on="1"/>
        <pt x="272" y="406" on="0"/>
        <pt x="268" y="408" on="1"/>
        <pt x="264" y="409" on="0"/>
        <pt x="253" y="411" on="0"/>
        <pt x="246" y="411" on="1"/>
        <pt x="239" y="411" on="0"/>
        <pt x="229" y="409" on="0"/>
        <pt x="225" y="408" on="1"/>
        <pt x="221" y="406" on="0"/>
      </contour>
      <contour>
        <pt x="366" y="689" on="1"/>
        <pt x="383" y="703" on="0"/>
        <pt x="403" y="703" on="1"/>
        <pt x="414" y="703" on="0"/>
        <pt x="436" y="692" on="0"/>
        <pt x="453" y="673" on="0"/>
        <pt x="464" y="650" on="0"/>
        <pt x="464" y="638" on="1"/>
        <pt x="464" y="613" on="0"/>
        <pt x="443" y="595" on="1"/>
        <pt x="246" y="486" on="1"/>
        <pt x="221" y="514" on="1"/>
      </contour>
    </TTGlyph>
    <TTGlyph name="ecircumflex" xMin="35" yMin="-10" xMax="451" yMax="703">
      <contour>
        <pt x="262" y="456" on="1"/>
        <pt x="317" y="456" on="0"/>
        <pt x="389" y="435" on="0"/>
        <pt x="433" y="389" on="0"/>
        <pt x="451" y="314" on="0"/>
        <pt x="451" y="259" on="1"/>
        <pt x="451" y="242" on="0"/>
        <pt x="449" y="217" on="0"/>
        <pt x="448" y="209" on="1"/>
        <pt x="447" y="199" on="0"/>
        <pt x="446" y="194" on="1"/>
        <pt x="199" y="194" on="1"/>
        <pt x="200" y="160" on="0"/>
        <pt x="206" y="105" on="0"/>
        <pt x="209" y="85" on="1"/>
        <pt x="213" y="61" on="0"/>
        <pt x="217" y="43" on="1"/>
        <pt x="220" y="41" on="0"/>
        <pt x="226" y="40" on="1"/>
        <pt x="231" y="39" on="0"/>
        <pt x="250" y="38" on="0"/>
        <pt x="265" y="38" on="1"/>
        <pt x="290" y="38" on="0"/>
        <pt x="335" y="45" on="0"/>
        <pt x="369" y="61" on="0"/>
        <pt x="388" y="90" on="0"/>
        <pt x="388" y="111" on="1"/>
        <pt x="442" y="111" on="1"/>
        <pt x="442" y="69" on="0"/>
        <pt x="405" y="21" on="0"/>
        <pt x="350" y="-4" on="0"/>
        <pt x="286" y="-10" on="0"/>
        <pt x="258" y="-10" on="1"/>
        <pt x="197" y="-10" on="0"/>
        <pt x="112" y="15" on="0"/>
        <pt x="59" y="70" on="0"/>
        <pt x="35" y="159" on="0"/>
        <pt x="35" y="223" on="1"/>
        <pt x="35" y="287" on="0"/>
        <pt x="56" y="376" on="0"/>
        <pt x="108" y="431" on="0"/>
        <pt x="195" y="456" on="0"/>
      </contour>
      <contour>
        <pt x="217" y="405" on="1"/>
        <pt x="212" y="383" on="0"/>
        <pt x="208" y="357" on="1"/>
        <pt x="205" y="334" on="0"/>
        <pt x="199" y="273" on="0"/>
        <pt x="199" y="237" on="1"/>
        <pt x="296" y="237" on="1"/>
        <pt x="294" y="279" on="0"/>
        <pt x="288" y="342" on="0"/>
        <pt x="284" y="363" on="1"/>
        <pt x="280" y="388" on="0"/>
        <pt x="275" y="405" on="1"/>
        <pt x="272" y="406" on="0"/>
        <pt x="268" y="408" on="1"/>
        <pt x="264" y="409" on="0"/>
        <pt x="253" y="411" on="0"/>
        <pt x="246" y="411" on="1"/>
        <pt x="239" y="411" on="0"/>
        <pt x="229" y="409" on="0"/>
        <pt x="225" y="408" on="1"/>
        <pt x="221" y="406" on="0"/>
      </contour>
      <contour>
        <pt x="201" y="680" on="1"/>
        <pt x="208" y="688" on="0"/>
        <pt x="229" y="703" on="0"/>
        <pt x="242" y="703" on="1"/>
        <pt x="250" y="703" on="1"/>
        <pt x="273" y="703" on="0"/>
        <pt x="291" y="680" on="1"/>
        <pt x="428" y="514" on="1"/>
        <pt x="403" y="486" on="1"/>
        <pt x="246" y="573" on="1"/>
        <pt x="89" y="486" on="1"/>
        <pt x="64" y="514" on="1"/>
      </contour>
    </TTGlyph>
    <TTGlyph name="edieresis" xMin="35" yMin="-10" xMax="451" yMax="672">
      <contour>
        <pt x="262" y="456" on="1"/>
        <pt x="317" y="456" on="0"/>
        <pt x="389" y="435" on="0"/>
        <pt x="433" y="389" on="0"/>
        <pt x="451" y="314" on="0"/>
        <pt x="451" y="259" on="1"/>
        <pt x="451" y="242" on="0"/>
        <pt x="449" y="217" on="0"/>
        <pt x="448" y="209" on="1"/>
        <pt x="447" y="199" on="0"/>
        <pt x="446" y="194" on="1"/>
        <pt x="199" y="194" on="1"/>
        <pt x="200" y="160" on="0"/>
        <pt x="206" y="105" on="0"/>
        <pt x="209" y="85" on="1"/>
        <pt x="213" y="61" on="0"/>
        <pt x="217" y="43" on="1"/>
        <pt x="220" y="41" on="0"/>
        <pt x="226" y="40" on="1"/>
        <pt x="231" y="39" on="0"/>
        <pt x="250" y="38" on="0"/>
        <pt x="265" y="38" on="1"/>
        <pt x="290" y="38" on="0"/>
        <pt x="335" y="45" on="0"/>
        <pt x="369" y="61" on="0"/>
        <pt x="388" y="90" on="0"/>
        <pt x="388" y="111" on="1"/>
        <pt x="442" y="111" on="1"/>
        <pt x="442" y="69" on="0"/>
        <pt x="405" y="21" on="0"/>
        <pt x="350" y="-4" on="0"/>
        <pt x="286" y="-10" on="0"/>
        <pt x="258" y="-10" on="1"/>
        <pt x="197" y="-10" on="0"/>
        <pt x="112" y="15" on="0"/>
        <pt x="59" y="70" on="0"/>
        <pt x="35" y="159" on="0"/>
        <pt x="35" y="223" on="1"/>
        <pt x="35" y="287" on="0"/>
        <pt x="56" y="376" on="0"/>
        <pt x="108" y="431" on="0"/>
        <pt x="195" y="456" on="0"/>
      </contour>
      <contour>
        <pt x="217" y="405" on="1"/>
        <pt x="212" y="383" on="0"/>
        <pt x="208" y="357" on="1"/>
        <pt x="205" y="334" on="0"/>
        <pt x="199" y="273" on="0"/>
        <pt x="199" y="237" on="1"/>
        <pt x="296" y="237" on="1"/>
        <pt x="294" y="279" on="0"/>
        <pt x="288" y="342" on="0"/>
        <pt x="284" y="363" on="1"/>
        <pt x="280" y="388" on="0"/>
        <pt x="275" y="405" on="1"/>
        <pt x="272" y="406" on="0"/>
        <pt x="268" y="408" on="1"/>
        <pt x="264" y="409" on="0"/>
        <pt x="253" y="411" on="0"/>
        <pt x="246" y="411" on="1"/>
        <pt x="239" y="411" on="0"/>
        <pt x="229" y="409" on="0"/>
        <pt x="225" y="408" on="1"/>
        <pt x="221" y="406" on="0"/>
      </contour>
      <contour>
        <pt x="71" y="597" on="1"/>
        <pt x="71" y="635" on="0"/>
        <pt x="104" y="672" on="0"/>
        <pt x="142" y="672" on="1"/>
        <pt x="183" y="672" on="0"/>
        <pt x="213" y="635" on="0"/>
        <pt x="213" y="597" on="1"/>
        <pt x="213" y="559" on="0"/>
        <pt x="180" y="523" on="0"/>
        <pt x="142" y="523" on="1"/>
        <pt x="104" y="523" on="0"/>
        <pt x="71" y="559" on="0"/>
      </contour>
      <contour>
        <pt x="276" y="597" on="1"/>
        <pt x="276" y="635" on="0"/>
        <pt x="309" y="672" on="0"/>
        <pt x="347" y="672" on="1"/>
        <pt x="388" y="672" on="0"/>
        <pt x="418" y="635" on="0"/>
        <pt x="418" y="597" on="1"/>
        <pt x="418" y="559" on="0"/>
        <pt x="385" y="523" on="0"/>
        <pt x="347" y="523" on="1"/>
        <pt x="309" y="523" on="0"/>
        <pt x="276" y="559" on="0"/>
      </contour>
    </TTGlyph>
    <TTGlyph name="egrave" xMin="28" yMin="-10" xMax="451" yMax="703">
      <contour>
        <pt x="262" y="456" on="1"/>
        <pt x="317" y="456" on="0"/>
        <pt x="389" y="435" on="0"/>
        <pt x="433" y="389" on="0"/>
        <pt x="451" y="314" on="0"/>
        <pt x="451" y="259" on="1"/>
        <pt x="451" y="242" on="0"/>
        <pt x="449" y="217" on="0"/>
        <pt x="448" y="209" on="1"/>
        <pt x="447" y="199" on="0"/>
        <pt x="446" y="194" on="1"/>
        <pt x="199" y="194" on="1"/>
        <pt x="200" y="160" on="0"/>
        <pt x="206" y="105" on="0"/>
        <pt x="209" y="85" on="1"/>
        <pt x="213" y="61" on="0"/>
        <pt x="217" y="43" on="1"/>
        <pt x="220" y="41" on="0"/>
        <pt x="226" y="40" on="1"/>
        <pt x="231" y="39" on="0"/>
        <pt x="250" y="38" on="0"/>
        <pt x="265" y="38" on="1"/>
        <pt x="290" y="38" on="0"/>
        <pt x="335" y="45" on="0"/>
        <pt x="369" y="61" on="0"/>
        <pt x="388" y="90" on="0"/>
        <pt x="388" y="111" on="1"/>
        <pt x="442" y="111" on="1"/>
        <pt x="442" y="69" on="0"/>
        <pt x="405" y="21" on="0"/>
        <pt x="350" y="-4" on="0"/>
        <pt x="286" y="-10" on="0"/>
        <pt x="258" y="-10" on="1"/>
        <pt x="197" y="-10" on="0"/>
        <pt x="112" y="15" on="0"/>
        <pt x="59" y="70" on="0"/>
        <pt x="35" y="159" on="0"/>
        <pt x="35" y="223" on="1"/>
        <pt x="35" y="287" on="0"/>
        <pt x="56" y="376" on="0"/>
        <pt x="108" y="431" on="0"/>
        <pt x="195" y="456" on="0"/>
      </contour>
      <contour>
        <pt x="217" y="405" on="1"/>
        <pt x="212" y="383" on="0"/>
        <pt x="208" y="357" on="1"/>
        <pt x="205" y="334" on="0"/>
        <pt x="199" y="273" on="0"/>
        <pt x="199" y="237" on="1"/>
        <pt x="296" y="237" on="1"/>
        <pt x="294" y="279" on="0"/>
        <pt x="288" y="342" on="0"/>
        <pt x="284" y="363" on="1"/>
        <pt x="280" y="388" on="0"/>
        <pt x="275" y="405" on="1"/>
        <pt x="272" y="406" on="0"/>
        <pt x="268" y="408" on="1"/>
        <pt x="264" y="409" on="0"/>
        <pt x="253" y="411" on="0"/>
        <pt x="246" y="411" on="1"/>
        <pt x="239" y="411" on="0"/>
        <pt x="229" y="409" on="0"/>
        <pt x="225" y="408" on="1"/>
        <pt x="221" y="406" on="0"/>
      </contour>
      <contour>
        <pt x="271" y="514" on="1"/>
        <pt x="246" y="486" on="1"/>
        <pt x="49" y="595" on="1"/>
        <pt x="28" y="613" on="0"/>
        <pt x="28" y="638" on="1"/>
        <pt x="28" y="650" on="0"/>
        <pt x="39" y="673" on="0"/>
        <pt x="56" y="692" on="0"/>
        <pt x="78" y="703" on="0"/>
        <pt x="89" y="703" on="1"/>
        <pt x="109" y="703" on="0"/>
        <pt x="126" y="689" on="1"/>
      </contour>
    </TTGlyph>
    <TTGlyph name="eight" xMin="50" yMin="-10" xMax="507" yMax="631">
      <contour>
        <pt x="73" y="442" on="1"/>
        <pt x="73" y="476" on="0"/>
        <pt x="94" y="530" on="0"/>
        <pt x="142" y="567" on="0"/>
        <pt x="220" y="586" on="0"/>
        <pt x="278" y="586" on="1"/>
        <pt x="298" y="586" on="1"/>
        <pt x="329" y="586" on="0"/>
        <pt x="376" y="587" on="0"/>
        <pt x="408" y="596" on="0"/>
        <pt x="425" y="614" on="0"/>
        <pt x="425" y="631" on="1"/>
        <pt x="479" y="631" on="1"/>
        <pt x="479" y="599" on="0"/>
        <pt x="449" y="566" on="0"/>
        <pt x="423" y="558" on="1"/>
        <pt x="456" y="540" on="0"/>
        <pt x="484" y="481" on="0"/>
        <pt x="484" y="442" on="1"/>
        <pt x="484" y="395" on="0"/>
        <pt x="445" y="335" on="0"/>
        <pt x="397" y="321" on="1"/>
        <pt x="454" y="305" on="0"/>
        <pt x="507" y="231" on="0"/>
        <pt x="507" y="167" on="1"/>
        <pt x="507" y="76" on="0"/>
        <pt x="399" y="-10" on="0"/>
        <pt x="278" y="-10" on="1"/>
        <pt x="158" y="-10" on="0"/>
        <pt x="50" y="76" on="0"/>
        <pt x="50" y="167" on="1"/>
        <pt x="50" y="231" on="0"/>
        <pt x="103" y="305" on="0"/>
        <pt x="160" y="321" on="1"/>
        <pt x="112" y="335" on="0"/>
        <pt x="73" y="395" on="0"/>
      </contour>
      <contour>
        <pt x="232" y="166" on="1"/>
        <pt x="232" y="139" on="0"/>
        <pt x="236" y="92" on="0"/>
        <pt x="238" y="75" on="1"/>
        <pt x="241" y="55" on="0"/>
        <pt x="244" y="39" on="1"/>
        <pt x="248" y="38" on="0"/>
        <pt x="253" y="37" on="1"/>
        <pt x="258" y="36" on="0"/>
        <pt x="271" y="35" on="0"/>
        <pt x="279" y="35" on="1"/>
        <pt x="287" y="35" on="0"/>
        <pt x="301" y="36" on="0"/>
        <pt x="306" y="37" on="1"/>
        <pt x="311" y="38" on="0"/>
        <pt x="315" y="39" on="1"/>
        <pt x="318" y="55" on="0"/>
        <pt x="321" y="75" on="1"/>
        <pt x="323" y="92" on="0"/>
        <pt x="327" y="139" on="0"/>
        <pt x="327" y="166" on="1"/>
        <pt x="327" y="193" on="0"/>
        <pt x="323" y="241" on="0"/>
        <pt x="321" y="258" on="1"/>
        <pt x="318" y="278" on="0"/>
        <pt x="315" y="295" on="1"/>
        <pt x="244" y="295" on="1"/>
        <pt x="241" y="278" on="0"/>
        <pt x="238" y="258" on="1"/>
        <pt x="236" y="241" on="0"/>
        <pt x="232" y="193" on="0"/>
      </contour>
      <contour>
        <pt x="244" y="442" on="1"/>
        <pt x="244" y="422" on="0"/>
        <pt x="246" y="388" on="0"/>
        <pt x="248" y="375" on="1"/>
        <pt x="250" y="360" on="0"/>
        <pt x="253" y="348" on="1"/>
        <pt x="306" y="348" on="1"/>
        <pt x="308" y="360" on="0"/>
        <pt x="310" y="375" on="1"/>
        <pt x="312" y="388" on="0"/>
        <pt x="315" y="422" on="0"/>
        <pt x="315" y="442" on="1"/>
        <pt x="315" y="462" on="0"/>
        <pt x="312" y="497" on="0"/>
        <pt x="310" y="510" on="1"/>
        <pt x="308" y="525" on="0"/>
        <pt x="306" y="537" on="1"/>
        <pt x="302" y="537" on="0"/>
        <pt x="298" y="538" on="1"/>
        <pt x="294" y="539" on="0"/>
        <pt x="285" y="540" on="0"/>
        <pt x="279" y="540" on="1"/>
        <pt x="268" y="540" on="0"/>
        <pt x="260" y="538" on="1"/>
        <pt x="256" y="537" on="0"/>
        <pt x="253" y="537" on="1"/>
        <pt x="250" y="525" on="0"/>
        <pt x="248" y="510" on="1"/>
        <pt x="246" y="497" on="0"/>
        <pt x="244" y="462" on="0"/>
      </contour>
    </TTGlyph>
    <TTGlyph name="emdash" xMin="0" yMin="264" xMax="692" yMax="322">
      <contour>
        <pt x="692" y="322" on="1"/>
        <pt x="692" y="264" on="1"/>
        <pt x="0" y="264" on="1"/>
        <pt x="0" y="322" on="1"/>
      </contour>
    </TTGlyph>
    <TTGlyph name="endash" xMin="0" yMin="264" xMax="440" yMax="322">
      <contour>
        <pt x="440" y="322" on="1"/>
        <pt x="440" y="264" on="1"/>
        <pt x="0" y="264" on="1"/>
        <pt x="0" y="322" on="1"/>
      </contour>
    </TTGlyph>
    <TTGlyph name="equal" xMin="60" yMin="177" xMax="412" yMax="395">
      <contour>
        <pt x="412" y="395" on="1"/>
        <pt x="412" y="337" on="1"/>
        <pt x="60" y="337" on="1"/>
        <pt x="60" y="395" on="1"/>
      </contour>
      <contour>
        <pt x="412" y="235" on="1"/>
        <pt x="412" y="177" on="1"/>
        <pt x="60" y="177" on="1"/>
        <pt x="60" y="235" on="1"/>
      </contour>
    </TTGlyph>
    <TTGlyph name="eth" xMin="35" yMin="-10" xMax="501" yMax="653">
      <contour>
        <pt x="213" y="653" on="1"/>
        <pt x="242" y="638" on="0"/>
        <pt x="296" y="608" on="0"/>
        <pt x="322" y="591" on="1"/>
        <pt x="442" y="653" on="1"/>
        <pt x="475" y="604" on="1"/>
        <pt x="373" y="553" on="1"/>
        <pt x="443" y="492" on="0"/>
        <pt x="501" y="333" on="0"/>
        <pt x="501" y="223" on="1"/>
        <pt x="501" y="159" on="0"/>
        <pt x="477" y="70" on="0"/>
        <pt x="421" y="15" on="0"/>
        <pt x="332" y="-10" on="0"/>
        <pt x="268" y="-10" on="1"/>
        <pt x="203" y="-10" on="0"/>
        <pt x="115" y="15" on="0"/>
        <pt x="59" y="70" on="0"/>
        <pt x="35" y="159" on="0"/>
        <pt x="35" y="223" on="1"/>
        <pt x="35" y="287" on="0"/>
        <pt x="59" y="376" on="0"/>
        <pt x="115" y="431" on="0"/>
        <pt x="203" y="456" on="0"/>
        <pt x="268" y="456" on="1"/>
        <pt x="343" y="456" on="0"/>
        <pt x="397" y="429" on="1"/>
        <pt x="383" y="456" on="0"/>
        <pt x="339" y="504" on="0"/>
        <pt x="313" y="522" on="1"/>
        <pt x="219" y="475" on="1"/>
        <pt x="189" y="523" on="1"/>
        <pt x="259" y="559" on="1"/>
        <pt x="239" y="570" on="0"/>
        <pt x="201" y="592" on="0"/>
        <pt x="183" y="602" on="1"/>
      </contour>
      <contour>
        <pt x="199" y="223" on="1"/>
        <pt x="199" y="184" on="0"/>
        <pt x="204" y="117" on="0"/>
        <pt x="208" y="93" on="1"/>
        <pt x="212" y="64" on="0"/>
        <pt x="217" y="41" on="1"/>
        <pt x="222" y="39" on="0"/>
        <pt x="230" y="38" on="1"/>
        <pt x="243" y="35" on="0"/>
        <pt x="268" y="35" on="1"/>
        <pt x="292" y="35" on="0"/>
        <pt x="306" y="38" on="1"/>
        <pt x="314" y="39" on="0"/>
        <pt x="319" y="41" on="1"/>
        <pt x="324" y="64" on="0"/>
        <pt x="328" y="93" on="1"/>
        <pt x="331" y="117" on="0"/>
        <pt x="337" y="184" on="0"/>
        <pt x="337" y="223" on="1"/>
        <pt x="337" y="262" on="0"/>
        <pt x="331" y="328" on="0"/>
        <pt x="328" y="353" on="1"/>
        <pt x="324" y="381" on="0"/>
        <pt x="319" y="405" on="1"/>
        <pt x="313" y="406" on="0"/>
        <pt x="305" y="408" on="1"/>
        <pt x="298" y="409" on="0"/>
        <pt x="279" y="411" on="0"/>
        <pt x="268" y="411" on="1"/>
        <pt x="255" y="411" on="0"/>
        <pt x="237" y="409" on="0"/>
        <pt x="230" y="408" on="1"/>
        <pt x="222" y="406" on="0"/>
        <pt x="217" y="405" on="1"/>
        <pt x="212" y="381" on="0"/>
        <pt x="208" y="353" on="1"/>
        <pt x="204" y="328" on="0"/>
        <pt x="199" y="262" on="0"/>
      </contour>
    </TTGlyph>
    <TTGlyph name="exclam" xMin="100" yMin="-24" xMax="272" yMax="586">
      <contour>
        <pt x="213" y="198" on="1"/>
        <pt x="160" y="198" on="1"/>
        <pt x="100" y="492" on="1"/>
        <pt x="100" y="535" on="0"/>
        <pt x="141" y="586" on="0"/>
        <pt x="186" y="586" on="1"/>
        <pt x="228" y="586" on="0"/>
        <pt x="268" y="534" on="0"/>
        <pt x="268" y="492" on="1"/>
      </contour>
      <contour>
        <pt x="106" y="62" on="1"/>
        <pt x="106" y="107" on="0"/>
        <pt x="144" y="149" on="0"/>
        <pt x="189" y="149" on="1"/>
        <pt x="237" y="149" on="0"/>
        <pt x="272" y="107" on="0"/>
        <pt x="272" y="62" on="1"/>
        <pt x="272" y="17" on="0"/>
        <pt x="234" y="-24" on="0"/>
        <pt x="189" y="-24" on="1"/>
        <pt x="144" y="-24" on="0"/>
        <pt x="106" y="17" on="0"/>
      </contour>
    </TTGlyph>
    <TTGlyph name="exclamdown" xMin="40" yMin="-154" xMax="212" yMax="456">
      <contour>
        <pt x="99" y="234" on="1"/>
        <pt x="152" y="234" on="1"/>
        <pt x="212" y="-60" on="1"/>
        <pt x="212" y="-103" on="0"/>
        <pt x="171" y="-154" on="0"/>
        <pt x="126" y="-154" on="1"/>
        <pt x="84" y="-154" on="0"/>
        <pt x="44" y="-102" on="0"/>
        <pt x="44" y="-60" on="1"/>
      </contour>
      <contour>
        <pt x="206" y="370" on="1"/>
        <pt x="206" y="325" on="0"/>
        <pt x="168" y="283" on="0"/>
        <pt x="123" y="283" on="1"/>
        <pt x="75" y="283" on="0"/>
        <pt x="40" y="325" on="0"/>
        <pt x="40" y="370" on="1"/>
        <pt x="40" y="415" on="0"/>
        <pt x="78" y="456" on="0"/>
        <pt x="123" y="456" on="1"/>
        <pt x="168" y="456" on="0"/>
        <pt x="206" y="415" on="0"/>
      </contour>
    </TTGlyph>
    <TTGlyph name="f" xMin="20" yMin="0" xMax="373" yMax="651">
      <contour>
        <pt x="373" y="489" on="1"/>
        <pt x="332" y="489" on="0"/>
        <pt x="280" y="517" on="0"/>
        <pt x="250" y="555" on="0"/>
        <pt x="238" y="593" on="0"/>
        <pt x="237" y="604" on="1"/>
        <pt x="203" y="604" on="1"/>
        <pt x="201" y="597" on="0"/>
        <pt x="200" y="586" on="1"/>
        <pt x="197" y="566" on="0"/>
        <pt x="197" y="526" on="1"/>
        <pt x="197" y="491" on="0"/>
        <pt x="233" y="449" on="0"/>
        <pt x="265" y="449" on="1"/>
        <pt x="343" y="449" on="1"/>
        <pt x="343" y="398" on="1"/>
        <pt x="237" y="398" on="1"/>
        <pt x="237" y="51" on="1"/>
        <pt x="296" y="51" on="1"/>
        <pt x="296" y="0" on="1"/>
        <pt x="20" y="0" on="1"/>
        <pt x="20" y="51" on="1"/>
        <pt x="79" y="51" on="1"/>
        <pt x="79" y="488" on="1"/>
        <pt x="79" y="522" on="0"/>
        <pt x="99" y="582" on="0"/>
        <pt x="140" y="626" on="0"/>
        <pt x="203" y="651" on="0"/>
        <pt x="245" y="651" on="1"/>
        <pt x="270" y="651" on="0"/>
        <pt x="337" y="646" on="0"/>
        <pt x="373" y="643" on="1"/>
      </contour>
    </TTGlyph>
    <TTGlyph name="five" xMin="30" yMin="-10" xMax="425" yMax="631">
      <contour>
        <pt x="121" y="426" on="1"/>
        <pt x="121" y="339" on="1"/>
        <pt x="203" y="339" on="1"/>
        <pt x="254" y="339" on="0"/>
        <pt x="336" y="328" on="0"/>
        <pt x="394" y="291" on="0"/>
        <pt x="425" y="220" on="0"/>
        <pt x="425" y="160" on="1"/>
        <pt x="425" y="78" on="0"/>
        <pt x="331" y="-10" on="0"/>
        <pt x="234" y="-10" on="1"/>
        <pt x="207" y="-10" on="0"/>
        <pt x="137" y="-4" on="0"/>
        <pt x="74" y="18" on="0"/>
        <pt x="30" y="61" on="0"/>
        <pt x="30" y="99" on="1"/>
        <pt x="30" y="126" on="1"/>
        <pt x="90" y="126" on="1"/>
        <pt x="90" y="100" on="1"/>
        <pt x="90" y="82" on="0"/>
        <pt x="116" y="60" on="0"/>
        <pt x="156" y="48" on="0"/>
        <pt x="205" y="43" on="0"/>
        <pt x="229" y="43" on="1"/>
        <pt x="232" y="65" on="0"/>
        <pt x="236" y="87" on="1"/>
        <pt x="239" y="106" on="0"/>
        <pt x="244" y="148" on="0"/>
        <pt x="244" y="166" on="1"/>
        <pt x="244" y="186" on="0"/>
        <pt x="240" y="227" on="0"/>
        <pt x="238" y="244" on="1"/>
        <pt x="235" y="263" on="0"/>
        <pt x="233" y="281" on="1"/>
        <pt x="63" y="281" on="1"/>
        <pt x="63" y="574" on="1"/>
        <pt x="339" y="574" on="1"/>
        <pt x="339" y="631" on="1"/>
        <pt x="390" y="631" on="1"/>
        <pt x="392" y="623" on="0"/>
        <pt x="395" y="612" on="1"/>
        <pt x="397" y="602" on="0"/>
        <pt x="401" y="571" on="0"/>
        <pt x="401" y="550" on="1"/>
        <pt x="401" y="490" on="0"/>
        <pt x="350" y="426" on="0"/>
        <pt x="283" y="426" on="1"/>
      </contour>
    </TTGlyph>
    <TTGlyph name="four" xMin="-10" yMin="0" xMax="512" yMax="606">
      <contour>
        <pt x="-10" y="182" on="1"/>
        <pt x="245" y="581" on="1"/>
        <pt x="403" y="606" on="1"/>
        <pt x="403" y="219" on="1"/>
        <pt x="512" y="219" on="1"/>
        <pt x="512" y="161" on="1"/>
        <pt x="403" y="161" on="1"/>
        <pt x="403" y="58" on="1"/>
        <pt x="492" y="58" on="1"/>
        <pt x="492" y="0" on="1"/>
        <pt x="146" y="0" on="1"/>
        <pt x="146" y="58" on="1"/>
        <pt x="245" y="58" on="1"/>
        <pt x="245" y="161" on="1"/>
        <pt x="-10" y="161" on="1"/>
      </contour>
      <contour>
        <pt x="245" y="219" on="1"/>
        <pt x="245" y="463" on="1"/>
        <pt x="92" y="219" on="1"/>
      </contour>
    </TTGlyph>
    <TTGlyph name="fraction" xMin="0" yMin="0" xMax="346" yMax="577">
      <contour>
        <pt x="66" y="0" on="1"/>
        <pt x="0" y="0" on="1"/>
        <pt x="280" y="577" on="1"/>
        <pt x="346" y="577" on="1"/>
      </contour>
    </TTGlyph>
</ttFont>
